<svg width="73" height="30" viewBox="0 0 73 30" fill="none" xmlns="http://www.w3.org/2000/svg">
<path d="M4.852 8.728C5.356 8.01867 6.04667 7.43067 6.924 6.964C7.82 6.47867 8.83733 6.236 9.976 6.236C11.3013 6.236 12.496 6.56267 13.56 7.216C14.6427 7.86933 15.492 8.80267 16.108 10.016C16.7427 11.2107 17.06 12.6013 17.06 14.188C17.06 15.7747 16.7427 17.184 16.108 18.416C15.492 19.6293 14.6427 20.572 13.56 21.244C12.496 21.916 11.3013 22.252 9.976 22.252C8.83733 22.252 7.82933 22.0187 6.952 21.552C6.09333 21.0853 5.39333 20.4973 4.852 19.788V29.392H0.932V6.488H4.852V8.728ZM13.056 14.188C13.056 13.2547 12.86 12.452 12.468 11.78C12.0947 11.0893 11.5907 10.5667 10.956 10.212C10.34 9.85733 9.668 9.68 8.94 9.68C8.23067 9.68 7.55867 9.86667 6.924 10.24C6.308 10.5947 5.804 11.1173 5.412 11.808C5.03867 12.4987 4.852 13.3107 4.852 14.244C4.852 15.1773 5.03867 15.9893 5.412 16.68C5.804 17.3707 6.308 17.9027 6.924 18.276C7.55867 18.6307 8.23067 18.808 8.94 18.808C9.668 18.808 10.34 18.6213 10.956 18.248C11.5907 17.8747 12.0947 17.3427 12.468 16.652C12.86 15.9613 13.056 15.14 13.056 14.188ZM23.8286 8.896C24.3326 8.07467 24.9859 7.43067 25.7886 6.964C26.6099 6.49733 27.5432 6.264 28.5886 6.264V10.38H27.5526C26.3206 10.38 25.3872 10.6693 24.7526 11.248C24.1366 11.8267 23.8286 12.8347 23.8286 14.272V22H19.9086V6.488H23.8286V8.896ZM38.3409 9.708H35.6249V22H31.6489V9.708H29.8849V6.488H31.6489V5.704C31.6489 3.8 32.1902 2.4 33.2729 1.504C34.3555 0.607999 35.9889 0.187999 38.1729 0.244V3.548C37.2209 3.52933 36.5582 3.688 36.1849 4.024C35.8115 4.36 35.6249 4.96667 35.6249 5.844V6.488H38.3409V9.708ZM55.3012 13.908C55.3012 14.468 55.2639 14.972 55.1892 15.42H43.8492C43.9426 16.54 44.3346 17.4173 45.0252 18.052C45.7159 18.6867 46.5652 19.004 47.5732 19.004C49.0292 19.004 50.0652 18.3787 50.6812 17.128H54.9092C54.4612 18.6213 53.6026 19.8533 52.3332 20.824C51.0639 21.776 49.5052 22.252 47.6572 22.252C46.1639 22.252 44.8199 21.9253 43.6252 21.272C42.4492 20.6 41.5252 19.6573 40.8532 18.444C40.1999 17.2307 39.8732 15.8307 39.8732 14.244C39.8732 12.6387 40.1999 11.2293 40.8532 10.016C41.5066 8.80267 42.4212 7.86933 43.5972 7.216C44.7732 6.56267 46.1266 6.236 47.6572 6.236C49.1319 6.236 50.4479 6.55333 51.6052 7.188C52.7812 7.82267 53.6866 8.728 54.3212 9.904C54.9746 11.0613 55.3012 12.396 55.3012 13.908ZM51.2412 12.788C51.2226 11.78 50.8586 10.9773 50.1492 10.38C49.4399 9.764 48.5719 9.456 47.5452 9.456C46.5746 9.456 45.7532 9.75467 45.0812 10.352C44.4279 10.9307 44.0266 11.7427 43.8772 12.788H51.2412ZM57.1545 14.244C57.1545 12.6387 57.4811 11.2387 58.1345 10.044C58.7878 8.83067 59.6931 7.89733 60.8505 7.244C62.0078 6.572 63.3331 6.236 64.8265 6.236C66.7491 6.236 68.3358 6.72133 69.5865 7.692C70.8558 8.644 71.7051 9.988 72.1345 11.724H67.9065C67.6825 11.052 67.2998 10.5293 66.7585 10.156C66.2358 9.764 65.5825 9.568 64.7985 9.568C63.6785 9.568 62.7918 9.97867 62.1385 10.8C61.4851 11.6027 61.1585 12.7507 61.1585 14.244C61.1585 15.7187 61.4851 16.8667 62.1385 17.688C62.7918 18.4907 63.6785 18.892 64.7985 18.892C66.3851 18.892 67.4211 18.1827 67.9065 16.764H72.1345C71.7051 18.444 70.8558 19.7787 69.5865 20.768C68.3171 21.7573 66.7305 22.252 64.8265 22.252C63.3331 22.252 62.0078 21.9253 60.8505 21.272C59.6931 20.6 58.7878 19.6667 58.1345 18.472C57.4811 17.2587 57.1545 15.8493 57.1545 14.244Z" fill="black"/>
</svg>
