<svg width="54" height="50" viewBox="0 0 54 50" fill="none" xmlns="http://www.w3.org/2000/svg">
<mask id="mask0_2358_192" style="mask-type:alpha" maskUnits="userSpaceOnUse" x="0" y="0" width="54" height="50">
<rect width="54" height="50" fill="#D9D9D9"/>
</mask>
<g mask="url(#mask0_2358_192)">
<path d="M33.3563 22.9166C33.0188 22.0138 32.5031 21.2239 31.8094 20.5468C31.1157 19.8697 30.2813 19.3749 29.3063 19.0624V4.27075C34.6688 4.75686 39.2344 6.74471 43.0031 10.2343C46.7719 13.7239 48.9188 17.9513 49.4438 22.9166H33.3563ZM24.8063 45.7291C19.0313 45.2082 14.2125 42.9687 10.35 39.0103C6.48752 35.052 4.55627 30.3819 4.55627 24.9999C4.55627 19.618 6.48752 14.9478 10.35 10.9895C14.2125 7.03117 19.0313 4.79159 24.8063 4.27075V19.0624C23.4563 19.5138 22.3688 20.2864 21.5438 21.3801C20.7188 22.4739 20.3063 23.6805 20.3063 24.9999C20.3063 26.3194 20.7188 27.5086 21.5438 28.5676C22.3688 29.6267 23.4563 30.3819 24.8063 30.8333V45.7291ZM29.3063 45.7291V30.8333C30.2813 30.5208 31.1157 30.0433 31.8094 29.401C32.5031 28.7586 33.0188 27.986 33.3563 27.0833H49.4438C48.9188 32.0485 46.7719 36.276 43.0031 39.7655C39.2344 43.2551 34.6688 45.243 29.3063 45.7291Z" fill="#E3CE0D"/>
</g>
</svg>
