<svg width="54" height="50" viewBox="0 0 54 50" fill="none" xmlns="http://www.w3.org/2000/svg">
<mask id="mask0_2358_139" style="mask-type:alpha" maskUnits="userSpaceOnUse" x="0" y="0" width="54" height="50">
<rect width="54" height="50" fill="#D9D9D9"/>
</mask>
<g mask="url(#mask0_2358_139)">
<path d="M11.25 43.75C10.0125 43.75 8.95312 43.342 8.07188 42.526C7.19063 41.7101 6.75 40.7292 6.75 39.5833V10.4167C6.75 9.27083 7.19063 8.28993 8.07188 7.47396C8.95312 6.65799 10.0125 6.25 11.25 6.25H42.75C43.9875 6.25 45.0469 6.65799 45.9281 7.47396C46.8094 8.28993 47.25 9.27083 47.25 10.4167V39.5833C47.25 40.7292 46.8094 41.7101 45.9281 42.526C45.0469 43.342 43.9875 43.75 42.75 43.75H11.25ZM15.75 35.4167H31.5V31.25H15.75V35.4167ZM15.75 27.0833H38.25V22.9167H15.75V27.0833ZM15.75 18.75H38.25V14.5833H15.75V18.75Z" fill="#9F7BEA"/>
</g>
</svg>
