<svg width="54" height="50" viewBox="0 0 54 50" fill="none" xmlns="http://www.w3.org/2000/svg">
<mask id="mask0_2358_145" style="mask-type:alpha" maskUnits="userSpaceOnUse" x="0" y="0" width="54" height="50">
<rect width="54" height="50" fill="#D9D9D9"/>
</mask>
<g mask="url(#mask0_2358_145)">
<path d="M6.74963 43.75C5.51213 43.75 4.45276 43.342 3.57151 42.526C2.69026 41.7101 2.24963 40.7292 2.24963 39.5833V13.5417H6.74963V39.5833H43.8746V43.75H6.74963ZM15.7496 35.4167C14.5121 35.4167 13.4528 35.0087 12.5715 34.1927C11.6903 33.3767 11.2496 32.3958 11.2496 31.25V10.4167C11.2496 9.27083 11.6903 8.28993 12.5715 7.47396C13.4528 6.65799 14.5121 6.25 15.7496 6.25H47.2496C48.4871 6.25 49.5465 6.65799 50.4278 7.47396C51.309 8.28993 51.7496 9.27083 51.7496 10.4167V31.25C51.7496 32.3958 51.309 33.3767 50.4278 34.1927C49.5465 35.0087 48.4871 35.4167 47.2496 35.4167H15.7496ZM31.4996 25.625L47.2496 15.4688V10.4167L31.4996 20.5208L15.7496 10.4167V15.4688L31.4996 25.625Z" fill="#EA7BBA"/>
</g>
</svg>
