<svg width="57" height="60" viewBox="0 0 57 60" fill="none" xmlns="http://www.w3.org/2000/svg">
<mask id="mask0_2358_100" style="mask-type:alpha" maskUnits="userSpaceOnUse" x="0" y="0" width="57" height="60">
<rect width="57" height="60" fill="#D9D9D9"/>
</mask>
<g mask="url(#mask0_2358_100)">
<path d="M28.5 55C25.2542 55 22.1865 54.3438 19.2969 53.0312C16.4073 51.7188 13.8839 49.9271 11.7266 47.6562C9.56927 45.3854 7.86719 42.7292 6.62031 39.6875C5.37344 36.6458 4.75 33.4167 4.75 30C4.75 26.5417 5.37344 23.3021 6.62031 20.2812C7.86719 17.2604 9.56927 14.6146 11.7266 12.3438C13.8839 10.0729 16.4073 8.28125 19.2969 6.96875C22.1865 5.65625 25.2542 5 28.5 5C31.7854 5 34.863 5.65625 37.7328 6.96875C40.6026 8.28125 43.1161 10.0729 45.2734 12.3438C47.4307 14.6146 49.1328 17.2604 50.3797 20.2812C51.6266 23.3021 52.25 26.5417 52.25 30C52.25 33.4167 51.6266 36.6458 50.3797 39.6875C49.1328 42.7292 47.4307 45.3854 45.2734 47.6562C43.1161 49.9271 40.6026 51.7188 37.7328 53.0312C34.863 54.3438 31.7854 55 28.5 55ZM28.5 49.875C29.5292 48.375 30.4198 46.8125 31.1719 45.1875C31.924 43.5625 32.5375 41.8333 33.0125 40H23.9875C24.4625 41.8333 25.076 43.5625 25.8281 45.1875C26.5802 46.8125 27.4708 48.375 28.5 49.875ZM22.325 48.875C21.6125 47.5 20.9891 46.0729 20.4547 44.5938C19.9203 43.1146 19.475 41.5833 19.1188 40H12.1125C13.2604 42.0833 14.6953 43.8958 16.4172 45.4375C18.1391 46.9792 20.1083 48.125 22.325 48.875ZM34.675 48.875C36.8917 48.125 38.8609 46.9792 40.5828 45.4375C42.3047 43.8958 43.7396 42.0833 44.8875 40H37.8812C37.525 41.5833 37.0797 43.1146 36.5453 44.5938C36.0109 46.0729 35.3875 47.5 34.675 48.875ZM10.0938 35H18.1687C18.05 34.1667 17.9609 33.3438 17.9016 32.5312C17.8422 31.7188 17.8125 30.875 17.8125 30C17.8125 29.125 17.8422 28.2812 17.9016 27.4688C17.9609 26.6562 18.05 25.8333 18.1687 25H10.0938C9.89583 25.8333 9.7474 26.6562 9.64844 27.4688C9.54948 28.2812 9.5 29.125 9.5 30C9.5 30.875 9.54948 31.7188 9.64844 32.5312C9.7474 33.3438 9.89583 34.1667 10.0938 35ZM22.9188 35H34.0813C34.2 34.1667 34.2891 33.3438 34.3484 32.5312C34.4078 31.7188 34.4375 30.875 34.4375 30C34.4375 29.125 34.4078 28.2812 34.3484 27.4688C34.2891 26.6562 34.2 25.8333 34.0813 25H22.9188C22.8 25.8333 22.7109 26.6562 22.6516 27.4688C22.5922 28.2812 22.5625 29.125 22.5625 30C22.5625 30.875 22.5922 31.7188 22.6516 32.5312C22.7109 33.3438 22.8 34.1667 22.9188 35ZM38.8312 35H46.9062C47.1042 34.1667 47.2526 33.3438 47.3516 32.5312C47.4505 31.7188 47.5 30.875 47.5 30C47.5 29.125 47.4505 28.2812 47.3516 27.4688C47.2526 26.6562 47.1042 25.8333 46.9062 25H38.8312C38.95 25.8333 39.0391 26.6562 39.0984 27.4688C39.1578 28.2812 39.1875 29.125 39.1875 30C39.1875 30.875 39.1578 31.7188 39.0984 32.5312C39.0391 33.3438 38.95 34.1667 38.8312 35ZM37.8812 20H44.8875C43.7396 17.9167 42.3047 16.1042 40.5828 14.5625C38.8609 13.0208 36.8917 11.875 34.675 11.125C35.3875 12.5 36.0109 13.9271 36.5453 15.4062C37.0797 16.8854 37.525 18.4167 37.8812 20ZM23.9875 20H33.0125C32.5375 18.1667 31.924 16.4375 31.1719 14.8125C30.4198 13.1875 29.5292 11.625 28.5 10.125C27.4708 11.625 26.5802 13.1875 25.8281 14.8125C25.076 16.4375 24.4625 18.1667 23.9875 20ZM12.1125 20H19.1188C19.475 18.4167 19.9203 16.8854 20.4547 15.4062C20.9891 13.9271 21.6125 12.5 22.325 11.125C20.1083 11.875 18.1391 13.0208 16.4172 14.5625C14.6953 16.1042 13.2604 17.9167 12.1125 20Z" fill="#03D6BA"/>
</g>
</svg>
