<svg width="58" height="58" viewBox="0 0 58 58" fill="none" xmlns="http://www.w3.org/2000/svg">
<mask id="mask0_2358_188" style="mask-type:alpha" maskUnits="userSpaceOnUse" x="0" y="0" width="58" height="58">
<rect width="58" height="58" fill="#EA7BBA"/>
</mask>
<g mask="url(#mask0_2358_188)">
<path d="M29 50.7499L25.4958 47.6082C21.4278 43.9429 18.0646 40.7811 15.4062 38.1228C12.7479 35.4645 10.6333 33.078 9.0625 30.9634C7.49166 28.8488 6.39409 26.9054 5.76979 25.1332C5.14548 23.361 4.83333 21.5485 4.83333 19.6957C4.83333 15.9096 6.10208 12.7478 8.63958 10.2103C11.1771 7.6728 14.3389 6.40405 18.125 6.40405C20.2194 6.40405 22.2132 6.84711 24.1062 7.73322C25.9993 8.61933 27.6306 9.86794 29 11.4791C30.3694 9.86794 32.0007 8.61933 33.8937 7.73322C35.7868 6.84711 37.7806 6.40405 39.875 6.40405C43.6611 6.40405 46.8229 7.6728 49.3604 10.2103C51.8979 12.7478 53.1667 15.9096 53.1667 19.6957C53.1667 21.5485 52.8545 23.361 52.2302 25.1332C51.6059 26.9054 50.5083 28.8488 48.9375 30.9634C47.3667 33.078 45.2521 35.4645 42.5937 38.1228C39.9354 40.7811 36.5722 43.9429 32.5042 47.6082L29 50.7499Z" fill="#EA7BBA"/>
</g>
</svg>
