<svg width="64" height="58" viewBox="0 0 64 58" fill="none" xmlns="http://www.w3.org/2000/svg">
<g clip-path="url(#clip0_1811_199)">
<path d="M1.47127 41.6013L22.7193 5.2251C25.4183 6.8141 39.0283 14.3461 41.2263 15.7786L19.9783 52.1568C17.6545 55.2268 -1.47273 46.2601 1.47127 41.5993V41.6013Z" fill="#FBBC04"/>
<path d="M62.5212 41.6005L41.2732 5.22648C38.3027 0.282985 31.9052 -1.51352 26.6504 1.40623C21.3957 4.32598 19.7957 10.6155 22.7662 15.7797L44.0142 52.1582C46.9847 57.0995 53.3824 58.8957 58.6372 55.9762C63.6622 53.0562 65.4917 46.5437 62.5212 41.6047V41.6005Z" fill="#4285F4"/>
<path d="M10.666 57.3821C16.5567 57.3821 21.332 52.7254 21.332 46.9811C21.332 41.2368 16.5567 36.5801 10.666 36.5801C4.77533 36.5801 0 41.2368 0 46.9811C0 52.7254 4.77533 57.3821 10.666 57.3821Z" fill="#34A853"/>
</g>
<defs>
<clipPath id="clip0_1811_199">
<rect width="64" height="57.5" fill="white"/>
</clipPath>
</defs>
</svg>
