<svg width="1200" height="630" viewBox="0 0 1200 630" fill="none" xmlns="http://www.w3.org/2000/svg">
<rect width="1200" height="630" fill="#CDB2F8"/>
<g filter="url(#filter0_f_667_383)">
<ellipse cx="599.5" cy="314.5" rx="269.5" ry="256.5" fill="#D5BAFF"/>
</g>
<rect width="373" height="347" transform="translate(413 141)" fill="#D5BAFF"/>
<path d="M436 212V458.5C436 459.605 436.895 460.5 438 460.5H763.5" stroke="black" stroke-width="6" stroke-linecap="round"/>
<path fill-rule="evenodd" clip-rule="evenodd" d="M515.167 175.267C515.167 171.806 512.328 169 508.827 169H502.173C498.672 169 495.833 171.806 495.833 175.267V176.495C495.833 178.539 494.446 180.315 492.536 181.099C490.625 181.883 488.401 181.584 486.938 180.138L485.601 178.816C482.786 176.034 478.222 176.034 475.407 178.816L471.93 182.253C469.115 185.036 469.115 189.547 471.93 192.33L473.268 193.652C474.73 195.098 475.033 197.296 474.239 199.185C473.447 201.073 471.65 202.444 469.582 202.444H468.34C464.838 202.444 462 205.25 462 208.711V215.289C462 218.75 464.838 221.556 468.34 221.556H470.312C471.947 221.556 473.371 222.635 473.965 224.141C474.535 225.588 474.263 227.244 473.153 228.342L471.614 229.864C468.974 232.473 468.974 236.704 471.614 239.315L476.277 243.924C478.612 246.232 482.396 246.232 484.731 243.924L484.946 243.712C486.763 241.915 489.549 241.612 491.902 242.634C494.166 243.617 495.833 245.735 495.833 248.18V248.733C495.833 252.194 498.672 255 502.173 255H508.827C512.328 255 515.167 252.194 515.167 248.733V247.505C515.167 245.461 516.554 243.685 518.464 242.901C520.375 242.117 522.599 242.416 524.061 243.862L524.482 244.278C526.619 246.39 530.084 246.39 532.221 244.278L538.154 238.413C540.29 236.301 540.29 232.877 538.154 230.764L537.733 230.348C536.269 228.902 535.967 226.704 536.761 224.815C537.553 222.927 539.35 221.556 541.417 221.556H542.66C546.161 221.556 549 218.75 549 215.289V208.711C549 205.25 546.161 202.444 542.66 202.444H542.1C539.628 202.444 537.485 200.797 536.49 198.559C535.456 196.233 535.763 193.479 537.58 191.682L537.795 191.47C540.13 189.162 540.13 185.421 537.795 183.113L533.132 178.503C530.492 175.893 526.211 175.893 523.571 178.503L522.032 180.024C520.921 181.122 519.246 181.391 517.782 180.827C516.259 180.24 515.167 178.833 515.167 177.217V175.267Z" stroke="#09090B" stroke-width="6" stroke-linejoin="round"/>
<circle cx="505" cy="212" r="18" fill="#D5BAFF" stroke="black" stroke-width="6"/>
<path d="M471 460.5V393C471 391.895 471.895 391 473 391H503.5C504.605 391 505.5 391.895 505.5 393V460.5" stroke="black" stroke-width="6" stroke-linecap="round"/>
<path d="M543 460V371C543 369.895 543.895 369 545 369H576C577.105 369 578 369.895 578 371V460" stroke="black" stroke-width="6" stroke-linecap="round"/>
<path d="M616 460V342C616 340.895 616.895 340 618 340H649C650.105 340 651 340.895 651 342V460" stroke="black" stroke-width="6" stroke-linecap="round"/>
<path d="M689 460V315C689 313.895 689.895 313 691 313H722C723.105 313 724 313.895 724 315V460" stroke="black" stroke-width="6" stroke-linecap="round"/>
<circle cx="488" cy="350" r="16" fill="#D5BAFF" stroke="black" stroke-width="6"/>
<circle cx="549" cy="282" r="16" fill="#D5BAFF" stroke="black" stroke-width="6"/>
<circle cx="632" cy="309" r="16" fill="#D5BAFF" stroke="black" stroke-width="6"/>
<circle cx="689" cy="236" r="16" fill="#D5BAFF" stroke="black" stroke-width="6"/>
<path d="M502.5 338.5L537.5 294M568.5 282.5L617 303M649 303L681 251.5" stroke="black" stroke-width="6" stroke-linecap="round"/>
<defs>
<filter id="filter0_f_667_383" x="290" y="18" width="619" height="593" filterUnits="userSpaceOnUse" color-interpolation-filters="sRGB">
<feFlood flood-opacity="0" result="BackgroundImageFix"/>
<feBlend mode="normal" in="SourceGraphic" in2="BackgroundImageFix" result="shape"/>
<feGaussianBlur stdDeviation="20" result="effect1_foregroundBlur_667_383"/>
</filter>
</defs>
</svg>