<svg width="72" height="72" viewBox="0 0 72 72" fill="none" xmlns="http://www.w3.org/2000/svg">
<g clip-path="url(#clip0_1811_187)">
<path d="M30.6451 41.4182C30.6451 39.5732 31.5316 36.6392 38.4166 36.6392C40.5271 36.6392 41.8276 36.7922 43.5736 37.1837C43.0156 44.4107 39.4786 45.3647 36.0406 45.3647C34.1596 45.3647 30.6451 44.3837 30.6451 41.4182Z" fill="black"/>
<path d="M11.655 72H60.345C63.4361 72 66.4006 70.7721 68.5863 68.5863C70.7721 66.4006 72 63.4361 72 60.345V11.655C72 8.5639 70.7721 5.59941 68.5863 3.41367C66.4006 1.22793 63.4361 0 60.345 0L11.655 0C8.5639 0 5.59941 1.22793 3.41367 3.41367C1.22793 5.59941 0 8.5639 0 11.655L0 60.345C0 63.4361 1.22793 66.4006 3.41367 68.5863C5.59941 70.7721 8.5639 72 11.655 72ZM26.397 26.595C28.9485 22.95 32.3145 21.528 36.972 21.528C40.257 21.528 43.0515 22.635 45.0495 24.7275C47.043 26.8245 48.1815 29.8215 48.4425 33.651C49.5465 34.113 50.5635 34.6575 51.4935 35.2845C55.2375 37.8 57.2985 41.562 57.2985 45.873C57.2985 55.0395 49.7835 63 36.1845 63C24.507 63 12.375 56.205 12.375 35.982C12.375 15.867 24.1245 9 36.1485 9C41.7015 9 54.729 9.819 59.625 25.9965L55.035 27.1845C51.246 15.6645 43.3035 13.8285 36.027 13.8285C23.9895 13.8285 17.1855 21.1545 17.1855 36.747C17.1855 50.7285 24.7905 58.1535 36.1845 58.1535C45.558 58.1535 52.5465 53.2845 52.5465 46.152C52.5465 41.2965 48.4695 38.9745 48.258 38.9745C47.4615 43.137 45.3285 50.1435 35.9595 50.1435C30.501 50.1435 25.7895 46.3725 25.7895 41.4315C25.7895 34.3755 32.4855 31.8195 37.773 31.8195C39.753 31.8195 42.138 31.9545 43.3845 32.2065C43.3845 30.0555 41.5665 26.3745 36.9675 26.3745C32.868 26.3745 31.7475 27.6705 30.4425 29.1825L30.3345 29.304C29.4255 28.6965 26.397 26.595 26.397 26.595Z" fill="black"/>
</g>
<defs>
<clipPath id="clip0_1811_187">
<rect width="72" height="72" fill="white"/>
</clipPath>
</defs>
</svg>
