<svg width="47" height="46" viewBox="0 0 47 46" fill="none" xmlns="http://www.w3.org/2000/svg">
<rect x="0.5" width="46" height="46" rx="8" fill="#EA7BBA"/>
<path d="M15.1667 31.3333H26.8333V28H15.1667V31.3333ZM15.1667 24.6667H31.8333V21.3333H15.1667V24.6667ZM15.1667 18H31.8333V14.6667H15.1667V18ZM11.8333 38C10.9167 38 10.1319 37.6736 9.47917 37.0208C8.82639 36.3681 8.5 35.5833 8.5 34.6667V11.3333C8.5 10.4167 8.82639 9.63194 9.47917 8.97917C10.1319 8.32639 10.9167 8 11.8333 8H35.1667C36.0833 8 36.8681 8.32639 37.5208 8.97917C38.1736 9.63194 38.5 10.4167 38.5 11.3333V34.6667C38.5 35.5833 38.1736 36.3681 37.5208 37.0208C36.8681 37.6736 36.0833 38 35.1667 38H11.8333ZM11.8333 34.6667H35.1667V11.3333H11.8333V34.6667Z" fill="#FFFEF4"/>
</svg>
