<svg width="46" height="46" viewBox="0 0 46 46" fill="none" xmlns="http://www.w3.org/2000/svg">
<rect width="46" height="46" rx="8" fill="#5196DA"/>
<g clip-path="url(#clip0_2146_902)">
<path d="M23 8C14.72 8 8 14.72 8 23C8 31.28 14.72 38 23 38H35C36.65 38 38 36.65 38 35V23C38 14.72 31.28 8 23 8ZM23 35C18.665 35 14.855 32.69 12.755 29.24L17.18 24.815L22.115 29L29 22.13V24.5H32V17H24.5V20H26.87L21.95 24.92L17 20.75L11.465 26.3C11.165 25.25 11 24.14 11 23C11 16.385 16.385 11 23 11C29.615 11 35 16.385 35 23C35 29.615 29.615 35 23 35ZM34.25 35.75C33.425 35.75 32.75 35.075 32.75 34.25C32.75 33.425 33.425 32.75 34.25 32.75C35.075 32.75 35.75 33.425 35.75 34.25C35.75 35.075 35.075 35.75 34.25 35.75Z" fill="white"/>
</g>
<defs>
<clipPath id="clip0_2146_902">
<rect width="36" height="36" fill="white" transform="translate(5 5)"/>
</clipPath>
</defs>
</svg>
