<svg width="46" height="46" viewBox="0 0 46 46" fill="none" xmlns="http://www.w3.org/2000/svg">
<rect width="46" height="46" rx="8" fill="#EA7BBA"/>
<path d="M14.6 18.8H14.9C16.055 18.8 17 19.745 17 20.9V31.4C17 32.555 16.055 33.5 14.9 33.5H14.6C13.445 33.5 12.5 32.555 12.5 31.4V20.9C12.5 19.745 13.445 18.8 14.6 18.8ZM23 12.5C24.155 12.5 25.1 13.445 25.1 14.6V31.4C25.1 32.555 24.155 33.5 23 33.5C21.845 33.5 20.9 32.555 20.9 31.4V14.6C20.9 13.445 21.845 12.5 23 12.5ZM31.4 24.5C32.555 24.5 33.5 25.445 33.5 26.6V31.4C33.5 32.555 32.555 33.5 31.4 33.5C30.245 33.5 29.3 32.555 29.3 31.4V26.6C29.3 25.445 30.245 24.5 31.4 24.5Z" fill="white"/>
</svg>
