<svg width="62" height="62" viewBox="0 0 62 62" fill="none" xmlns="http://www.w3.org/2000/svg">
<rect width="62" height="62" rx="8" fill="#3BE7DA"/>
<path d="M25.1941 39.3467C24.6213 39.3467 24.1411 39.153 23.7537 38.7655C23.3662 38.378 23.1724 37.8979 23.1724 37.3251V33.2817C23.7452 33.2817 24.2254 33.088 24.6129 32.7005C25.0003 32.313 25.1941 31.8329 25.1941 31.2601C25.1941 30.6873 25.0003 30.2071 24.6129 29.8196C24.2254 29.4321 23.7452 29.2384 23.1724 29.2384V25.1951C23.1724 24.6223 23.3662 24.1421 23.7537 23.7546C24.1411 23.3671 24.6213 23.1734 25.1941 23.1734H37.3241C37.8969 23.1734 38.377 23.3671 38.7645 23.7546C39.152 24.1421 39.3458 24.6223 39.3458 25.1951V29.2384C38.7729 29.2384 38.2928 29.4321 37.9053 29.8196C37.5178 30.2071 37.3241 30.6873 37.3241 31.2601C37.3241 31.8329 37.5178 32.313 37.9053 32.7005C38.2928 33.088 38.7729 33.2817 39.3458 33.2817V37.3251C39.3458 37.8979 39.152 38.378 38.7645 38.7655C38.377 39.153 37.8969 39.3467 37.3241 39.3467H25.1941ZM31.2591 36.3142C31.5286 36.3142 31.7645 36.2131 31.9667 36.011C32.1688 35.8088 32.2699 35.573 32.2699 35.3034C32.2699 35.0338 32.1688 34.798 31.9667 34.5958C31.7645 34.3936 31.5286 34.2926 31.2591 34.2926C30.9895 34.2926 30.7537 34.3936 30.5515 34.5958C30.3493 34.798 30.2483 35.0338 30.2483 35.3034C30.2483 35.573 30.3493 35.8088 30.5515 36.011C30.7537 36.2131 30.9895 36.3142 31.2591 36.3142ZM31.2591 32.2709C31.5286 32.2709 31.7645 32.1698 31.9667 31.9676C32.1688 31.7655 32.2699 31.5296 32.2699 31.2601C32.2699 30.9905 32.1688 30.7546 31.9667 30.5525C31.7645 30.3503 31.5286 30.2492 31.2591 30.2492C30.9895 30.2492 30.7537 30.3503 30.5515 30.5525C30.3493 30.7546 30.2483 30.9905 30.2483 31.2601C30.2483 31.5296 30.3493 31.7655 30.5515 31.9676C30.7537 32.1698 30.9895 32.2709 31.2591 32.2709ZM31.2591 28.2276C31.5286 28.2276 31.7645 28.1265 31.9667 27.9243C32.1688 27.7221 32.2699 27.4863 32.2699 27.2167C32.2699 26.9472 32.1688 26.7113 31.9667 26.5091C31.7645 26.307 31.5286 26.2059 31.2591 26.2059C30.9895 26.2059 30.7537 26.307 30.5515 26.5091C30.3493 26.7113 30.2483 26.9472 30.2483 27.2167C30.2483 27.4863 30.3493 27.7221 30.5515 27.9243C30.7537 28.1265 30.9895 28.2276 31.2591 28.2276ZM20.477 53.4984C19.5673 53.4984 18.7782 53.1643 18.1097 52.4962C17.4415 51.8277 17.1074 51.0385 17.1074 50.1288V12.3913C17.1074 11.4816 17.4415 10.6925 18.1097 10.024C18.7782 9.35581 19.5673 9.02173 20.477 9.02173H42.0411C42.9509 9.02173 43.74 9.35581 44.4085 10.024C45.0767 10.6925 45.4108 11.4816 45.4108 12.3913V50.1288C45.4108 51.0385 45.0767 51.8277 44.4085 52.4962C43.74 53.1643 42.9509 53.4984 42.0411 53.4984H20.477ZM20.477 48.4442V50.1288H42.0411V48.4442H20.477ZM20.477 45.0746H42.0411V17.4455H20.477V45.0746ZM20.477 14.0759H42.0411V12.3913H20.477V14.0759Z" fill="white"/>
</svg>
