<svg width="46" height="46" viewBox="0 0 46 46" fill="none" xmlns="http://www.w3.org/2000/svg">
<rect width="46" height="46" rx="8" fill="#515BDA"/>
<g clip-path="url(#clip0_1226_789)">
<path d="M15.4998 31.9998C13.8498 31.9998 12.5148 33.3498 12.5148 34.9998C12.5148 36.6498 13.8498 37.9998 15.4998 37.9998C17.1498 37.9998 18.4998 36.6498 18.4998 34.9998C18.4998 33.3498 17.1498 31.9998 15.4998 31.9998ZM30.4998 31.9998C28.8498 31.9998 27.5148 33.3498 27.5148 34.9998C27.5148 36.6498 28.8498 37.9998 30.4998 37.9998C32.1498 37.9998 33.4998 36.6498 33.4998 34.9998C33.4998 33.3498 32.1498 31.9998 30.4998 31.9998ZM17.1498 24.4998H28.3248C29.4498 24.4998 30.4398 23.8848 30.9498 22.9548L36.4998 12.4398L33.8748 10.9998L28.3248 21.4998H17.7948L11.4048 7.99976H6.49976V10.9998H9.49976L14.8998 22.3848L12.8748 26.0448C11.7798 28.0548 13.2198 30.4998 15.4998 30.4998H33.4998V27.4998H15.4998L17.1498 24.4998ZM22.9998 7.99976L28.9998 13.9998L22.9998 19.9998L20.8848 17.8848L23.2548 15.4998H16.9998V12.4998H23.2548L20.8698 10.1148L22.9998 7.99976Z" fill="white"/>
</g>
<defs>
<clipPath id="clip0_1226_789">
<rect width="36" height="36" fill="white" transform="translate(5 5)"/>
</clipPath>
</defs>
</svg>
