<svg width="496" height="565" viewBox="0 0 496 565" fill="none" xmlns="http://www.w3.org/2000/svg">
<rect width="496" height="565" rx="32" fill="white"/>
<rect x="31" y="50" width="249" height="70" rx="22" fill="#F1DCFF"/>
<path d="M112.884 75.5455V93H109.722V75.5455H112.884ZM121.029 93.2301C120.001 93.2301 119.08 92.9659 118.268 92.4375C117.455 91.9091 116.813 91.142 116.342 90.1364C115.87 89.1307 115.634 87.9091 115.634 86.4716C115.634 85.017 115.873 83.7898 116.35 82.7898C116.833 81.7841 117.484 81.0256 118.302 80.5142C119.12 79.9972 120.032 79.7386 121.038 79.7386C121.805 79.7386 122.435 79.8693 122.93 80.1307C123.424 80.3864 123.816 80.696 124.106 81.0597C124.396 81.4176 124.62 81.7557 124.779 82.0739H124.907V75.5455H128.001V93H124.967V90.9375H124.779C124.62 91.2557 124.39 91.5937 124.089 91.9517C123.788 92.304 123.39 92.6051 122.896 92.8551C122.401 93.1051 121.779 93.2301 121.029 93.2301ZM121.89 90.6989C122.543 90.6989 123.1 90.5227 123.56 90.1705C124.021 89.8125 124.37 89.3153 124.609 88.679C124.847 88.0426 124.967 87.3011 124.967 86.4545C124.967 85.608 124.847 84.8722 124.609 84.2472C124.376 83.6222 124.029 83.1364 123.569 82.7898C123.114 82.4432 122.555 82.2699 121.89 82.2699C121.202 82.2699 120.629 82.4489 120.168 82.8068C119.708 83.1648 119.362 83.6591 119.129 84.2898C118.896 84.9205 118.779 85.642 118.779 86.4545C118.779 87.2727 118.896 88.0028 119.129 88.6449C119.367 89.2812 119.717 89.7841 120.177 90.1534C120.643 90.517 121.214 90.6989 121.89 90.6989ZM137.084 93.2557C135.771 93.2557 134.638 92.983 133.683 92.4375C132.734 91.8864 132.004 91.108 131.493 90.1023C130.982 89.0909 130.726 87.9006 130.726 86.5312C130.726 85.1847 130.982 84.0028 131.493 82.9858C132.01 81.9631 132.732 81.1676 133.658 80.5994C134.584 80.0256 135.672 79.7386 136.922 79.7386C137.729 79.7386 138.49 79.8693 139.206 80.1307C139.928 80.3864 140.564 80.7841 141.115 81.3239C141.672 81.8636 142.109 82.5511 142.428 83.3864C142.746 84.2159 142.905 85.2045 142.905 86.3523V87.2983H132.175V85.2188H139.947C139.942 84.6278 139.814 84.1023 139.564 83.642C139.314 83.1761 138.964 82.8097 138.516 82.5426C138.072 82.2756 137.555 82.142 136.964 82.142C136.334 82.142 135.78 82.2955 135.303 82.6023C134.825 82.9034 134.453 83.3011 134.186 83.7955C133.925 84.2841 133.791 84.821 133.786 85.4062V87.2216C133.786 87.983 133.925 88.6364 134.203 89.1818C134.482 89.7216 134.871 90.1364 135.371 90.4261C135.871 90.7102 136.456 90.8523 137.126 90.8523C137.575 90.8523 137.982 90.7898 138.345 90.6648C138.709 90.5341 139.024 90.3438 139.291 90.0938C139.558 89.8438 139.76 89.5341 139.896 89.1648L142.777 89.4886C142.595 90.25 142.249 90.9148 141.737 91.483C141.232 92.0455 140.584 92.483 139.794 92.7955C139.004 93.1023 138.101 93.2557 137.084 93.2557ZM149.282 93.2642C148.452 93.2642 147.705 93.1165 147.04 92.821C146.381 92.5199 145.859 92.0767 145.472 91.4915C145.092 90.9062 144.901 90.1847 144.901 89.3267C144.901 88.5881 145.038 87.9773 145.31 87.4943C145.583 87.0114 145.955 86.625 146.427 86.3352C146.898 86.0455 147.43 85.8267 148.021 85.679C148.617 85.5256 149.234 85.4148 149.87 85.3466C150.637 85.267 151.259 85.196 151.737 85.1335C152.214 85.0653 152.56 84.9631 152.776 84.8267C152.998 84.6847 153.109 84.4659 153.109 84.1705V84.1193C153.109 83.4773 152.918 82.9801 152.538 82.6278C152.157 82.2756 151.609 82.0994 150.893 82.0994C150.137 82.0994 149.538 82.2642 149.094 82.5938C148.657 82.9233 148.362 83.3125 148.208 83.7614L145.327 83.3523C145.555 82.5568 145.93 81.892 146.452 81.358C146.975 80.8182 147.614 80.4148 148.37 80.1477C149.126 79.875 149.961 79.7386 150.876 79.7386C151.506 79.7386 152.134 79.8125 152.759 79.9602C153.384 80.108 153.955 80.3523 154.472 80.6932C154.989 81.0284 155.404 81.4858 155.717 82.0653C156.035 82.6449 156.194 83.3693 156.194 84.2386V93H153.228V91.2017H153.126C152.938 91.5653 152.674 91.9062 152.333 92.2244C151.998 92.5369 151.575 92.7898 151.063 92.983C150.558 93.1705 149.964 93.2642 149.282 93.2642ZM150.083 90.9972C150.702 90.9972 151.239 90.875 151.694 90.6307C152.148 90.3807 152.498 90.0511 152.742 89.642C152.992 89.233 153.117 88.7869 153.117 88.304V86.7614C153.021 86.8409 152.856 86.9148 152.623 86.983C152.396 87.0511 152.14 87.1108 151.856 87.1619C151.572 87.2131 151.29 87.2585 151.012 87.2983C150.734 87.3381 150.492 87.3722 150.288 87.4006C149.827 87.4631 149.415 87.5653 149.052 87.7074C148.688 87.8494 148.401 88.0483 148.191 88.304C147.981 88.554 147.876 88.8778 147.876 89.2756C147.876 89.8438 148.083 90.2727 148.498 90.5625C148.913 90.8523 149.441 90.9972 150.083 90.9972ZM165.833 79.9091V82.2955H158.308V79.9091H165.833ZM160.165 76.7727H163.251V89.0625C163.251 89.4773 163.313 89.7955 163.438 90.017C163.569 90.233 163.739 90.3807 163.95 90.4602C164.16 90.5398 164.393 90.5795 164.648 90.5795C164.842 90.5795 165.018 90.5653 165.177 90.5369C165.342 90.5085 165.467 90.483 165.552 90.4602L166.072 92.8722C165.907 92.929 165.671 92.9915 165.364 93.0597C165.063 93.1278 164.694 93.1676 164.256 93.179C163.484 93.2017 162.788 93.0852 162.168 92.8295C161.549 92.5682 161.058 92.1648 160.694 91.6193C160.336 91.0739 160.16 90.392 160.165 89.5739V76.7727ZM168.413 93V79.9091H171.499V93H168.413ZM169.964 78.0511C169.476 78.0511 169.055 77.8892 168.703 77.5653C168.351 77.2358 168.175 76.8409 168.175 76.3807C168.175 75.9148 168.351 75.5199 168.703 75.196C169.055 74.8665 169.476 74.7017 169.964 74.7017C170.459 74.7017 170.879 74.8665 171.226 75.196C171.578 75.5199 171.754 75.9148 171.754 76.3807C171.754 76.8409 171.578 77.2358 171.226 77.5653C170.879 77.8892 170.459 78.0511 169.964 78.0511ZM180.381 93.2557C179.103 93.2557 177.995 92.9744 177.058 92.4119C176.12 91.8494 175.393 91.0625 174.876 90.0511C174.364 89.0398 174.109 87.858 174.109 86.5057C174.109 85.1534 174.364 83.9687 174.876 82.9517C175.393 81.9347 176.12 81.1449 177.058 80.5824C177.995 80.0199 179.103 79.7386 180.381 79.7386C181.66 79.7386 182.768 80.0199 183.705 80.5824C184.643 81.1449 185.367 81.9347 185.879 82.9517C186.396 83.9687 186.654 85.1534 186.654 86.5057C186.654 87.858 186.396 89.0398 185.879 90.0511C185.367 91.0625 184.643 91.8494 183.705 92.4119C182.768 92.9744 181.66 93.2557 180.381 93.2557ZM180.398 90.7841C181.092 90.7841 181.671 90.5937 182.137 90.2131C182.603 89.8267 182.95 89.3097 183.177 88.6619C183.41 88.0142 183.526 87.2926 183.526 86.4972C183.526 85.696 183.41 84.9716 183.177 84.3239C182.95 83.6705 182.603 83.1506 182.137 82.7642C181.671 82.3778 181.092 82.1847 180.398 82.1847C179.688 82.1847 179.097 82.3778 178.626 82.7642C178.16 83.1506 177.81 83.6705 177.577 84.3239C177.35 84.9716 177.237 85.696 177.237 86.4972C177.237 87.2926 177.35 88.0142 177.577 88.6619C177.81 89.3097 178.16 89.8267 178.626 90.2131C179.097 90.5937 179.688 90.7841 180.398 90.7841ZM192.358 85.3295V93H189.273V79.9091H192.222V82.1335H192.375C192.676 81.4006 193.156 80.8182 193.815 80.3864C194.48 79.9545 195.301 79.7386 196.278 79.7386C197.182 79.7386 197.969 79.9318 198.639 80.3182C199.315 80.7045 199.838 81.2642 200.207 81.9972C200.582 82.7301 200.767 83.6193 200.761 84.6648V93H197.676V85.142C197.676 84.267 197.449 83.5824 196.994 83.0881C196.545 82.5937 195.923 82.3466 195.128 82.3466C194.588 82.3466 194.108 82.4659 193.688 82.7045C193.273 82.9375 192.946 83.2756 192.707 83.7188C192.474 84.1619 192.358 84.6989 192.358 85.3295Z" fill="#7D7D7E"/>
<rect x="216" y="445" width="249" height="70" rx="22" fill="#F1DCFF"/>
<path d="M296.722 488V470.545H303.267C304.608 470.545 305.733 470.778 306.642 471.244C307.557 471.71 308.247 472.364 308.713 473.205C309.185 474.04 309.42 475.014 309.42 476.128C309.42 477.247 309.182 478.219 308.705 479.043C308.233 479.861 307.537 480.494 306.616 480.943C305.696 481.386 304.565 481.608 303.224 481.608H298.562V478.983H302.798C303.582 478.983 304.224 478.875 304.724 478.659C305.224 478.437 305.594 478.116 305.832 477.696C306.077 477.27 306.199 476.747 306.199 476.128C306.199 475.509 306.077 474.98 305.832 474.543C305.588 474.099 305.216 473.764 304.716 473.537C304.216 473.304 303.571 473.188 302.781 473.188H299.884V488H296.722ZM305.739 480.091L310.06 488H306.531L302.287 480.091H305.739ZM317.803 488.256C316.49 488.256 315.357 487.983 314.402 487.438C313.453 486.886 312.723 486.108 312.212 485.102C311.7 484.091 311.445 482.901 311.445 481.531C311.445 480.185 311.7 479.003 312.212 477.986C312.729 476.963 313.45 476.168 314.376 475.599C315.303 475.026 316.391 474.739 317.641 474.739C318.447 474.739 319.209 474.869 319.925 475.131C320.646 475.386 321.283 475.784 321.834 476.324C322.391 476.864 322.828 477.551 323.146 478.386C323.464 479.216 323.624 480.205 323.624 481.352V482.298H312.893V480.219H320.666C320.661 479.628 320.533 479.102 320.283 478.642C320.033 478.176 319.683 477.81 319.234 477.543C318.791 477.276 318.274 477.142 317.683 477.142C317.053 477.142 316.499 477.295 316.021 477.602C315.544 477.903 315.172 478.301 314.905 478.795C314.643 479.284 314.51 479.821 314.504 480.406V482.222C314.504 482.983 314.643 483.636 314.922 484.182C315.2 484.722 315.589 485.136 316.089 485.426C316.589 485.71 317.175 485.852 317.845 485.852C318.294 485.852 318.7 485.79 319.064 485.665C319.428 485.534 319.743 485.344 320.01 485.094C320.277 484.844 320.479 484.534 320.615 484.165L323.496 484.489C323.314 485.25 322.967 485.915 322.456 486.483C321.95 487.045 321.303 487.483 320.513 487.795C319.723 488.102 318.82 488.256 317.803 488.256ZM329.319 470.545V488H326.234V470.545H329.319ZM338.287 488.256C336.974 488.256 335.841 487.983 334.886 487.438C333.938 486.886 333.207 486.108 332.696 485.102C332.185 484.091 331.929 482.901 331.929 481.531C331.929 480.185 332.185 479.003 332.696 477.986C333.213 476.963 333.935 476.168 334.861 475.599C335.787 475.026 336.875 474.739 338.125 474.739C338.932 474.739 339.693 474.869 340.409 475.131C341.131 475.386 341.767 475.784 342.318 476.324C342.875 476.864 343.313 477.551 343.631 478.386C343.949 479.216 344.108 480.205 344.108 481.352V482.298H333.378V480.219H341.151C341.145 479.628 341.017 479.102 340.767 478.642C340.517 478.176 340.168 477.81 339.719 477.543C339.276 477.276 338.759 477.142 338.168 477.142C337.537 477.142 336.983 477.295 336.506 477.602C336.028 477.903 335.656 478.301 335.389 478.795C335.128 479.284 334.994 479.821 334.989 480.406V482.222C334.989 482.983 335.128 483.636 335.406 484.182C335.685 484.722 336.074 485.136 336.574 485.426C337.074 485.71 337.659 485.852 338.33 485.852C338.778 485.852 339.185 485.79 339.548 485.665C339.912 485.534 340.227 485.344 340.494 485.094C340.761 484.844 340.963 484.534 341.099 484.165L343.98 484.489C343.798 485.25 343.452 485.915 342.94 486.483C342.435 487.045 341.787 487.483 340.997 487.795C340.207 488.102 339.304 488.256 338.287 488.256ZM350.485 488.264C349.656 488.264 348.908 488.116 348.244 487.821C347.585 487.52 347.062 487.077 346.675 486.491C346.295 485.906 346.104 485.185 346.104 484.327C346.104 483.588 346.241 482.977 346.513 482.494C346.786 482.011 347.158 481.625 347.63 481.335C348.102 481.045 348.633 480.827 349.224 480.679C349.82 480.526 350.437 480.415 351.073 480.347C351.84 480.267 352.462 480.196 352.94 480.134C353.417 480.065 353.763 479.963 353.979 479.827C354.201 479.685 354.312 479.466 354.312 479.17V479.119C354.312 478.477 354.121 477.98 353.741 477.628C353.36 477.276 352.812 477.099 352.096 477.099C351.34 477.099 350.741 477.264 350.298 477.594C349.86 477.923 349.565 478.312 349.411 478.761L346.531 478.352C346.758 477.557 347.133 476.892 347.656 476.358C348.178 475.818 348.817 475.415 349.573 475.148C350.329 474.875 351.164 474.739 352.079 474.739C352.71 474.739 353.337 474.812 353.962 474.96C354.587 475.108 355.158 475.352 355.675 475.693C356.192 476.028 356.607 476.486 356.92 477.065C357.238 477.645 357.397 478.369 357.397 479.239V488H354.431V486.202H354.329C354.141 486.565 353.877 486.906 353.536 487.224C353.201 487.537 352.778 487.79 352.266 487.983C351.761 488.17 351.167 488.264 350.485 488.264ZM351.286 485.997C351.906 485.997 352.442 485.875 352.897 485.631C353.352 485.381 353.701 485.051 353.945 484.642C354.195 484.233 354.32 483.787 354.32 483.304V481.761C354.224 481.841 354.059 481.915 353.826 481.983C353.599 482.051 353.343 482.111 353.059 482.162C352.775 482.213 352.494 482.259 352.215 482.298C351.937 482.338 351.695 482.372 351.491 482.401C351.031 482.463 350.619 482.565 350.255 482.707C349.891 482.849 349.604 483.048 349.394 483.304C349.184 483.554 349.079 483.878 349.079 484.276C349.079 484.844 349.286 485.273 349.701 485.562C350.116 485.852 350.644 485.997 351.286 485.997ZM370.846 478.369L368.033 478.676C367.954 478.392 367.815 478.125 367.616 477.875C367.423 477.625 367.161 477.423 366.832 477.27C366.502 477.116 366.099 477.04 365.621 477.04C364.979 477.04 364.44 477.179 364.002 477.457C363.57 477.736 363.357 478.097 363.363 478.54C363.357 478.92 363.496 479.23 363.781 479.469C364.07 479.707 364.548 479.903 365.212 480.057L367.445 480.534C368.684 480.801 369.604 481.224 370.207 481.804C370.815 482.384 371.121 483.142 371.127 484.08C371.121 484.903 370.88 485.631 370.403 486.261C369.931 486.886 369.275 487.375 368.434 487.727C367.593 488.08 366.627 488.256 365.536 488.256C363.934 488.256 362.644 487.92 361.667 487.25C360.69 486.574 360.107 485.634 359.92 484.429L362.928 484.139C363.065 484.73 363.354 485.176 363.798 485.477C364.241 485.778 364.817 485.929 365.528 485.929C366.261 485.929 366.849 485.778 367.292 485.477C367.741 485.176 367.965 484.804 367.965 484.361C367.965 483.986 367.82 483.676 367.531 483.432C367.246 483.187 366.803 483 366.201 482.869L363.968 482.401C362.712 482.139 361.783 481.699 361.181 481.08C360.579 480.455 360.281 479.665 360.286 478.71C360.281 477.903 360.499 477.205 360.942 476.614C361.391 476.017 362.013 475.557 362.809 475.233C363.61 474.903 364.533 474.739 365.579 474.739C367.113 474.739 368.32 475.065 369.201 475.719C370.087 476.372 370.636 477.256 370.846 478.369ZM379.467 488.256C378.154 488.256 377.021 487.983 376.066 487.438C375.117 486.886 374.387 486.108 373.876 485.102C373.364 484.091 373.109 482.901 373.109 481.531C373.109 480.185 373.364 479.003 373.876 477.986C374.393 476.963 375.114 476.168 376.04 475.599C376.967 475.026 378.055 474.739 379.305 474.739C380.112 474.739 380.873 474.869 381.589 475.131C382.31 475.386 382.947 475.784 383.498 476.324C384.055 476.864 384.492 477.551 384.81 478.386C385.129 479.216 385.288 480.205 385.288 481.352V482.298H374.558V480.219H382.33C382.325 479.628 382.197 479.102 381.947 478.642C381.697 478.176 381.347 477.81 380.898 477.543C380.455 477.276 379.938 477.142 379.347 477.142C378.717 477.142 378.163 477.295 377.685 477.602C377.208 477.903 376.836 478.301 376.569 478.795C376.308 479.284 376.174 479.821 376.168 480.406V482.222C376.168 482.983 376.308 483.636 376.586 484.182C376.864 484.722 377.254 485.136 377.754 485.426C378.254 485.71 378.839 485.852 379.509 485.852C379.958 485.852 380.364 485.79 380.728 485.665C381.092 485.534 381.407 485.344 381.674 485.094C381.941 484.844 382.143 484.534 382.279 484.165L385.16 484.489C384.978 485.25 384.631 485.915 384.12 486.483C383.614 487.045 382.967 487.483 382.177 487.795C381.387 488.102 380.484 488.256 379.467 488.256Z" fill="#7D7D7E"/>
<line x1="248" y1="120" x2="248" y2="445" stroke="#7D7D7E" stroke-width="2" stroke-dasharray="6 6"/>
<rect x="216" y="182" width="249" height="70" rx="22" fill="#F1DCFF"/>
<path d="M307.662 213.435H304.474C304.384 212.912 304.216 212.449 303.972 212.045C303.727 211.636 303.423 211.29 303.06 211.006C302.696 210.722 302.281 210.509 301.815 210.366C301.355 210.219 300.858 210.145 300.324 210.145C299.375 210.145 298.534 210.384 297.801 210.861C297.068 211.332 296.494 212.026 296.08 212.94C295.665 213.849 295.457 214.96 295.457 216.273C295.457 217.608 295.665 218.733 296.08 219.648C296.5 220.557 297.074 221.244 297.801 221.71C298.534 222.17 299.372 222.401 300.315 222.401C300.838 222.401 301.327 222.332 301.781 222.196C302.241 222.054 302.653 221.847 303.017 221.574C303.386 221.301 303.696 220.966 303.946 220.568C304.202 220.17 304.378 219.716 304.474 219.205L307.662 219.222C307.543 220.051 307.284 220.83 306.886 221.557C306.494 222.284 305.98 222.926 305.344 223.483C304.707 224.034 303.963 224.466 303.111 224.778C302.259 225.085 301.313 225.239 300.273 225.239C298.739 225.239 297.369 224.884 296.165 224.173C294.96 223.463 294.011 222.438 293.318 221.097C292.625 219.756 292.278 218.148 292.278 216.273C292.278 214.392 292.628 212.784 293.327 211.449C294.026 210.108 294.977 209.082 296.182 208.372C297.386 207.662 298.75 207.307 300.273 207.307C301.244 207.307 302.148 207.443 302.983 207.716C303.818 207.989 304.563 208.389 305.216 208.918C305.869 209.44 306.406 210.082 306.827 210.844C307.253 211.599 307.531 212.463 307.662 213.435ZM316.131 225.256C314.853 225.256 313.745 224.974 312.808 224.412C311.87 223.849 311.143 223.062 310.626 222.051C310.114 221.04 309.859 219.858 309.859 218.506C309.859 217.153 310.114 215.969 310.626 214.952C311.143 213.935 311.87 213.145 312.808 212.582C313.745 212.02 314.853 211.739 316.131 211.739C317.41 211.739 318.518 212.02 319.455 212.582C320.393 213.145 321.117 213.935 321.629 214.952C322.146 215.969 322.404 217.153 322.404 218.506C322.404 219.858 322.146 221.04 321.629 222.051C321.117 223.062 320.393 223.849 319.455 224.412C318.518 224.974 317.41 225.256 316.131 225.256ZM316.148 222.784C316.842 222.784 317.421 222.594 317.887 222.213C318.353 221.827 318.7 221.31 318.927 220.662C319.16 220.014 319.276 219.293 319.276 218.497C319.276 217.696 319.16 216.972 318.927 216.324C318.7 215.67 318.353 215.151 317.887 214.764C317.421 214.378 316.842 214.185 316.148 214.185C315.438 214.185 314.847 214.378 314.376 214.764C313.91 215.151 313.56 215.67 313.327 216.324C313.1 216.972 312.987 217.696 312.987 218.497C312.987 219.293 313.1 220.014 313.327 220.662C313.56 221.31 313.91 221.827 314.376 222.213C314.847 222.594 315.438 222.784 316.148 222.784ZM328.108 217.33V225H325.023V211.909H327.972V214.134H328.125C328.426 213.401 328.906 212.818 329.565 212.386C330.23 211.955 331.051 211.739 332.028 211.739C332.932 211.739 333.719 211.932 334.389 212.318C335.065 212.705 335.588 213.264 335.957 213.997C336.332 214.73 336.517 215.619 336.511 216.665V225H333.426V217.142C333.426 216.267 333.199 215.582 332.744 215.088C332.295 214.594 331.673 214.347 330.878 214.347C330.338 214.347 329.858 214.466 329.438 214.705C329.023 214.937 328.696 215.276 328.457 215.719C328.224 216.162 328.108 216.699 328.108 217.33ZM345.358 225.256C344.051 225.256 342.929 224.969 341.991 224.395C341.06 223.821 340.341 223.028 339.835 222.017C339.335 221 339.085 219.83 339.085 218.506C339.085 217.176 339.341 216.003 339.852 214.986C340.364 213.963 341.085 213.168 342.017 212.599C342.955 212.026 344.063 211.739 345.341 211.739C346.403 211.739 347.344 211.935 348.162 212.327C348.986 212.713 349.642 213.261 350.131 213.972C350.619 214.676 350.898 215.5 350.966 216.443H348.017C347.898 215.812 347.614 215.287 347.165 214.866C346.722 214.44 346.128 214.227 345.384 214.227C344.753 214.227 344.199 214.398 343.722 214.739C343.244 215.074 342.872 215.557 342.605 216.188C342.344 216.818 342.213 217.574 342.213 218.455C342.213 219.347 342.344 220.114 342.605 220.756C342.866 221.392 343.233 221.884 343.705 222.23C344.182 222.571 344.741 222.741 345.384 222.741C345.838 222.741 346.244 222.656 346.602 222.486C346.966 222.31 347.27 222.057 347.514 221.727C347.759 221.398 347.926 220.997 348.017 220.526H350.966C350.892 221.452 350.619 222.273 350.148 222.989C349.676 223.699 349.034 224.256 348.222 224.659C347.409 225.057 346.455 225.256 345.358 225.256ZM359.295 225.256C357.982 225.256 356.849 224.983 355.894 224.438C354.945 223.886 354.215 223.108 353.704 222.102C353.192 221.091 352.937 219.901 352.937 218.531C352.937 217.185 353.192 216.003 353.704 214.986C354.221 213.963 354.942 213.168 355.869 212.599C356.795 212.026 357.883 211.739 359.133 211.739C359.94 211.739 360.701 211.869 361.417 212.131C362.138 212.386 362.775 212.784 363.326 213.324C363.883 213.864 364.32 214.551 364.638 215.386C364.957 216.216 365.116 217.205 365.116 218.352V219.298H354.386V217.219H362.158C362.153 216.628 362.025 216.102 361.775 215.642C361.525 215.176 361.175 214.81 360.727 214.543C360.283 214.276 359.766 214.142 359.175 214.142C358.545 214.142 357.991 214.295 357.513 214.602C357.036 214.903 356.664 215.301 356.397 215.795C356.136 216.284 356.002 216.821 355.996 217.406V219.222C355.996 219.983 356.136 220.636 356.414 221.182C356.692 221.722 357.082 222.136 357.582 222.426C358.082 222.71 358.667 222.852 359.337 222.852C359.786 222.852 360.192 222.79 360.556 222.665C360.92 222.534 361.235 222.344 361.502 222.094C361.769 221.844 361.971 221.534 362.107 221.165L364.988 221.489C364.806 222.25 364.46 222.915 363.948 223.483C363.442 224.045 362.795 224.483 362.005 224.795C361.215 225.102 360.312 225.256 359.295 225.256ZM367.726 229.909V211.909H370.76V214.074H370.939C371.098 213.756 371.322 213.418 371.612 213.06C371.902 212.696 372.294 212.386 372.788 212.131C373.283 211.869 373.913 211.739 374.68 211.739C375.692 211.739 376.604 211.997 377.416 212.514C378.234 213.026 378.882 213.784 379.359 214.79C379.842 215.79 380.084 217.017 380.084 218.472C380.084 219.909 379.848 221.131 379.376 222.136C378.905 223.142 378.263 223.909 377.45 224.438C376.638 224.966 375.717 225.23 374.689 225.23C373.939 225.23 373.317 225.105 372.822 224.855C372.328 224.605 371.93 224.304 371.629 223.952C371.334 223.594 371.104 223.256 370.939 222.938H370.811V229.909H367.726ZM370.751 218.455C370.751 219.301 370.871 220.043 371.109 220.679C371.354 221.315 371.703 221.812 372.158 222.17C372.618 222.523 373.175 222.699 373.828 222.699C374.51 222.699 375.081 222.517 375.541 222.153C376.001 221.784 376.348 221.281 376.581 220.645C376.82 220.003 376.939 219.273 376.939 218.455C376.939 217.642 376.822 216.92 376.589 216.29C376.357 215.659 376.01 215.165 375.55 214.807C375.089 214.449 374.516 214.27 373.828 214.27C373.169 214.27 372.609 214.443 372.149 214.79C371.689 215.136 371.339 215.622 371.101 216.247C370.868 216.872 370.751 217.608 370.751 218.455ZM389.263 211.909V214.295H381.737V211.909H389.263ZM383.595 208.773H386.68V221.062C386.68 221.477 386.743 221.795 386.868 222.017C386.999 222.233 387.169 222.381 387.379 222.46C387.589 222.54 387.822 222.58 388.078 222.58C388.271 222.58 388.447 222.565 388.607 222.537C388.771 222.509 388.896 222.483 388.982 222.46L389.501 224.872C389.337 224.929 389.101 224.991 388.794 225.06C388.493 225.128 388.124 225.168 387.686 225.179C386.913 225.202 386.217 225.085 385.598 224.83C384.979 224.568 384.487 224.165 384.124 223.619C383.766 223.074 383.589 222.392 383.595 221.574V208.773Z" fill="#7D7D7E"/>
<rect x="31" y="314" width="249" height="70" rx="22" fill="#F1DCFF"/>
<path d="M112.955 342.196V339.545H126.881V342.196H121.486V357H118.349V342.196H112.955ZM133.326 357.256C132.013 357.256 130.88 356.983 129.925 356.438C128.977 355.886 128.246 355.108 127.735 354.102C127.224 353.091 126.968 351.901 126.968 350.531C126.968 349.185 127.224 348.003 127.735 346.986C128.252 345.963 128.974 345.168 129.9 344.599C130.826 344.026 131.914 343.739 133.164 343.739C133.971 343.739 134.732 343.869 135.448 344.131C136.17 344.386 136.806 344.784 137.357 345.324C137.914 345.864 138.352 346.551 138.67 347.386C138.988 348.216 139.147 349.205 139.147 350.352V351.298H128.417V349.219H136.19C136.184 348.628 136.056 348.102 135.806 347.642C135.556 347.176 135.207 346.81 134.758 346.543C134.315 346.276 133.798 346.142 133.207 346.142C132.576 346.142 132.022 346.295 131.545 346.602C131.067 346.903 130.695 347.301 130.428 347.795C130.167 348.284 130.033 348.821 130.028 349.406V351.222C130.028 351.983 130.167 352.636 130.445 353.182C130.724 353.722 131.113 354.136 131.613 354.426C132.113 354.71 132.698 354.852 133.369 354.852C133.817 354.852 134.224 354.79 134.587 354.665C134.951 354.534 135.266 354.344 135.533 354.094C135.8 353.844 136.002 353.534 136.138 353.165L139.019 353.489C138.837 354.25 138.491 354.915 137.979 355.483C137.474 356.045 136.826 356.483 136.036 356.795C135.246 357.102 134.343 357.256 133.326 357.256ZM152.104 347.369L149.291 347.676C149.212 347.392 149.072 347.125 148.874 346.875C148.68 346.625 148.419 346.423 148.089 346.27C147.76 346.116 147.357 346.04 146.879 346.04C146.237 346.04 145.697 346.179 145.26 346.457C144.828 346.736 144.615 347.097 144.621 347.54C144.615 347.92 144.754 348.23 145.038 348.469C145.328 348.707 145.805 348.903 146.47 349.057L148.703 349.534C149.942 349.801 150.862 350.224 151.464 350.804C152.072 351.384 152.379 352.142 152.385 353.08C152.379 353.903 152.138 354.631 151.661 355.261C151.189 355.886 150.533 356.375 149.692 356.727C148.851 357.08 147.885 357.256 146.794 357.256C145.192 357.256 143.902 356.92 142.925 356.25C141.947 355.574 141.365 354.634 141.178 353.429L144.186 353.139C144.322 353.73 144.612 354.176 145.055 354.477C145.499 354.778 146.075 354.929 146.786 354.929C147.518 354.929 148.107 354.778 148.55 354.477C148.999 354.176 149.223 353.804 149.223 353.361C149.223 352.986 149.078 352.676 148.788 352.432C148.504 352.187 148.061 352 147.459 351.869L145.226 351.401C143.97 351.139 143.041 350.699 142.439 350.08C141.837 349.455 141.538 348.665 141.544 347.71C141.538 346.903 141.757 346.205 142.2 345.614C142.649 345.017 143.271 344.557 144.067 344.233C144.868 343.903 145.791 343.739 146.837 343.739C148.371 343.739 149.578 344.065 150.459 344.719C151.345 345.372 151.893 346.256 152.104 347.369ZM161.466 343.909V346.295H153.94V343.909H161.466ZM155.798 340.773H158.884V353.062C158.884 353.477 158.946 353.795 159.071 354.017C159.202 354.233 159.372 354.381 159.582 354.46C159.793 354.54 160.026 354.58 160.281 354.58C160.474 354.58 160.651 354.565 160.81 354.537C160.974 354.509 161.099 354.483 161.185 354.46L161.705 356.872C161.54 356.929 161.304 356.991 160.997 357.06C160.696 357.128 160.327 357.168 159.889 357.179C159.116 357.202 158.42 357.085 157.801 356.83C157.182 356.568 156.69 356.165 156.327 355.619C155.969 355.074 155.793 354.392 155.798 353.574V340.773ZM164.046 357V343.909H167.131V357H164.046ZM165.597 342.051C165.109 342.051 164.688 341.889 164.336 341.565C163.984 341.236 163.808 340.841 163.808 340.381C163.808 339.915 163.984 339.52 164.336 339.196C164.688 338.866 165.109 338.702 165.597 338.702C166.092 338.702 166.512 338.866 166.859 339.196C167.211 339.52 167.387 339.915 167.387 340.381C167.387 340.841 167.211 341.236 166.859 341.565C166.512 341.889 166.092 342.051 165.597 342.051ZM173.389 349.33V357H170.304V343.909H173.253V346.134H173.406C173.707 345.401 174.188 344.818 174.847 344.386C175.511 343.955 176.332 343.739 177.31 343.739C178.213 343.739 179 343.932 179.67 344.318C180.347 344.705 180.869 345.264 181.239 345.997C181.614 346.73 181.798 347.619 181.793 348.665V357H178.707V349.142C178.707 348.267 178.48 347.582 178.026 347.088C177.577 346.594 176.955 346.347 176.159 346.347C175.619 346.347 175.139 346.466 174.719 346.705C174.304 346.937 173.977 347.276 173.739 347.719C173.506 348.162 173.389 348.699 173.389 349.33ZM190.622 362.182C189.514 362.182 188.563 362.031 187.767 361.73C186.972 361.435 186.332 361.037 185.849 360.537C185.366 360.037 185.031 359.483 184.844 358.875L187.622 358.202C187.747 358.457 187.929 358.71 188.168 358.96C188.406 359.216 188.727 359.426 189.131 359.591C189.54 359.761 190.054 359.847 190.673 359.847C191.548 359.847 192.273 359.634 192.847 359.207C193.42 358.787 193.707 358.094 193.707 357.128V354.648H193.554C193.395 354.966 193.162 355.293 192.855 355.628C192.554 355.963 192.153 356.244 191.653 356.472C191.159 356.699 190.537 356.812 189.787 356.812C188.781 356.812 187.869 356.577 187.051 356.105C186.239 355.628 185.591 354.918 185.108 353.974C184.631 353.026 184.392 351.838 184.392 350.412C184.392 348.974 184.631 347.761 185.108 346.773C185.591 345.778 186.241 345.026 187.06 344.514C187.878 343.997 188.79 343.739 189.795 343.739C190.563 343.739 191.193 343.869 191.688 344.131C192.188 344.386 192.585 344.696 192.881 345.06C193.176 345.418 193.401 345.756 193.554 346.074H193.724V343.909H196.767V357.213C196.767 358.332 196.5 359.259 195.966 359.991C195.432 360.724 194.702 361.273 193.776 361.636C192.849 362 191.798 362.182 190.622 362.182ZM190.648 354.392C191.301 354.392 191.858 354.233 192.318 353.915C192.778 353.597 193.128 353.139 193.366 352.543C193.605 351.946 193.724 351.23 193.724 350.395C193.724 349.571 193.605 348.849 193.366 348.23C193.134 347.611 192.787 347.131 192.327 346.79C191.872 346.443 191.313 346.27 190.648 346.27C189.96 346.27 189.386 346.449 188.926 346.807C188.466 347.165 188.119 347.656 187.886 348.281C187.653 348.901 187.537 349.605 187.537 350.395C187.537 351.196 187.653 351.898 187.886 352.5C188.125 353.097 188.474 353.562 188.935 353.898C189.401 354.227 189.972 354.392 190.648 354.392Z" fill="#7D7D7E"/>
</svg>
