<svg width="65" height="64" viewBox="0 0 65 64" fill="none" xmlns="http://www.w3.org/2000/svg">
<path d="M21.8334 48.0002H43.1667V42.6668H21.8334V48.0002ZM21.8334 37.3335H43.1667V32.0002H21.8334V37.3335ZM16.5 58.6668C15.0334 58.6668 13.7778 58.1446 12.7334 57.1002C11.6889 56.0557 11.1667 54.8002 11.1667 53.3335V10.6668C11.1667 9.20016 11.6889 7.94461 12.7334 6.90016C13.7778 5.85572 15.0334 5.3335 16.5 5.3335H37.8334L53.8334 21.3335V53.3335C53.8334 54.8002 53.3111 56.0557 52.2667 57.1002C51.2222 58.1446 49.9667 58.6668 48.5 58.6668H16.5ZM35.1667 24.0002V10.6668H16.5V53.3335H48.5V24.0002H35.1667Z" fill="#515BDA"/>
</svg>
