<svg width="65" height="64" viewBox="0 0 65 64" fill="none" xmlns="http://www.w3.org/2000/svg">
<path d="M13.8333 10.6668V26.7335V26.6668V53.3335V10.6668ZM19.1667 37.3335H28.5C28.9 36.3113 29.3889 35.3557 29.9667 34.4668C30.5444 33.5779 31.2111 32.7557 31.9667 32.0002H19.1667V37.3335ZM19.1667 48.0002H27.6333C27.4111 47.1113 27.2667 46.2224 27.2 45.3335C27.1333 44.4446 27.1444 43.5557 27.2333 42.6668H19.1667V48.0002ZM13.8333 58.6668C12.3667 58.6668 11.1111 58.1446 10.0667 57.1002C9.02222 56.0557 8.5 54.8002 8.5 53.3335V10.6668C8.5 9.20016 9.02222 7.94461 10.0667 6.90016C11.1111 5.85572 12.3667 5.3335 13.8333 5.3335H35.1667L51.1667 21.3335V28.0002C50.3222 27.6446 49.4556 27.3668 48.5667 27.1668C47.6778 26.9668 46.7667 26.8224 45.8333 26.7335V24.0002H32.5V10.6668H13.8333V53.3335H29.9C30.6111 54.4002 31.4111 55.3891 32.3 56.3002C33.1889 57.2113 34.1667 58.0002 35.2333 58.6668H13.8333ZM44.5 50.6668C46.3667 50.6668 47.9444 50.0224 49.2333 48.7335C50.5222 47.4446 51.1667 45.8668 51.1667 44.0002C51.1667 42.1335 50.5222 40.5557 49.2333 39.2668C47.9444 37.9779 46.3667 37.3335 44.5 37.3335C42.6333 37.3335 41.0556 37.9779 39.7667 39.2668C38.4778 40.5557 37.8333 42.1335 37.8333 44.0002C37.8333 45.8668 38.4778 47.4446 39.7667 48.7335C41.0556 50.0224 42.6333 50.6668 44.5 50.6668ZM58.1 61.3335L50.9 54.1335C49.9667 54.7557 48.9556 55.2224 47.8667 55.5335C46.7778 55.8446 45.6556 56.0002 44.5 56.0002C41.1667 56.0002 38.3333 54.8335 36 52.5002C33.6667 50.1668 32.5 47.3335 32.5 44.0002C32.5 40.6668 33.6667 37.8335 36 35.5002C38.3333 33.1668 41.1667 32.0002 44.5 32.0002C47.8333 32.0002 50.6667 33.1668 53 35.5002C55.3333 37.8335 56.5 40.6668 56.5 44.0002C56.5 45.1557 56.3444 46.2779 56.0333 47.3668C55.7222 48.4557 55.2556 49.4668 54.6333 50.4002L61.8333 57.6002L58.1 61.3335Z" fill="#CDB2F8"/>
</svg>
