<svg width="46" height="46" viewBox="0 0 46 46" fill="none" xmlns="http://www.w3.org/2000/svg">
<rect width="46" height="46" rx="8" fill="#5196DA"/>
<g clip-path="url(#clip0_1226_843)">
<path d="M32.5456 18.9093L34.2501 15.1592L38.0001 13.4546L34.2501 11.7501L32.5456 8L30.841 11.7501L27.0911 13.4546L30.841 15.1592L32.5456 18.9093Z" fill="white"/>
<path d="M32.5453 27.0908L30.8408 30.8409L27.0908 32.5455L30.8408 34.25L32.5453 38.0001L34.2499 34.25L37.9998 32.5455L34.2499 30.8409L32.5453 27.0908Z" fill="white"/>
<path d="M22.3181 19.5912L18.909 12.0911L15.4999 19.5912L8 23.0003L15.4999 26.4095L18.909 33.9096L22.3181 26.4095L29.818 23.0003L22.3181 19.5912ZM20.259 24.3504L18.909 27.3231L17.559 24.3504L14.5863 23.0003L17.559 21.6503L18.909 18.6775L20.259 21.6503L23.2317 23.0003L20.259 24.3504Z" fill="white"/>
</g>
<defs>
<clipPath id="clip0_1226_843">
<rect width="36" height="36" fill="white" transform="translate(5 5)"/>
</clipPath>
</defs>
</svg>
