<svg width="72" height="49" viewBox="0 0 72 49" fill="none" xmlns="http://www.w3.org/2000/svg">
<path d="M7.77684 31.5382C7.77684 34.2875 8.38041 36.3982 9.16903 37.6751C10.2032 39.3477 11.7453 40.0562 13.3177 40.0562C15.3458 40.0562 17.2013 39.5527 20.7765 34.6078C23.641 30.6444 27.0163 25.0807 29.2871 21.593L33.1332 15.6839C35.8048 11.5802 38.8969 7.01831 42.4426 3.92597C45.3364 1.40203 48.4588 0 51.6009 0C56.8766 0 61.9017 3.05719 65.7478 8.79103C69.9567 15.0705 72 22.9801 72 31.1425C72 35.9949 71.0438 39.5603 69.4162 42.3773C67.8437 45.1015 64.7789 47.8232 59.6236 47.8232V40.0562C64.0378 40.0562 65.1395 36 65.1395 31.358C65.1395 24.743 63.5971 17.4015 60.1996 12.1562C57.7882 8.43525 54.6635 6.16191 51.2257 6.16191C47.5076 6.16191 44.5154 8.96597 41.1528 13.9666C39.3652 16.623 37.5297 19.8605 35.4693 23.5133L33.2007 27.5321C28.6436 35.6119 27.4894 37.4521 25.211 40.4893C21.2172 45.8078 17.8073 47.8232 13.3177 47.8232C7.99228 47.8232 4.62431 45.5169 2.53884 42.0418C0.836156 39.2099 0 35.4943 0 31.2604L7.77684 31.5382Z" fill="#0081FB"/>
<path d="M6.13086 9.33919C9.69655 3.84356 14.8417 0 20.7432 0C24.1612 0 27.5587 1.01166 31.1067 3.90853C34.9874 7.07569 39.1237 12.2912 44.2841 20.887L46.1347 23.9715C50.6013 31.4131 53.1426 35.2412 54.6299 37.0468C56.5429 39.3652 57.8825 40.0562 59.6226 40.0562C64.0369 40.0562 65.1385 36 65.1385 31.358L71.999 31.1425C71.999 35.9949 71.0428 39.5603 69.4152 42.3773C67.8427 45.1015 64.778 47.8232 59.6226 47.8232C56.4178 47.8232 53.5786 47.1271 50.4387 44.165C48.025 41.8916 45.2032 37.8529 43.0323 34.2222L36.5748 23.4357C33.335 18.0225 30.3628 13.9866 28.643 12.1584C26.7929 10.1931 24.4141 7.81931 20.6183 7.81931C17.5462 7.81931 14.9371 9.97538 12.7537 13.2728L6.13086 9.33919Z" fill="url(#paint0_linear_1811_195)"/>
<path d="M20.619 7.81931C17.5469 7.81931 14.9377 9.97538 12.7544 13.2728C9.66741 17.9325 7.77684 24.8729 7.77684 31.5382C7.77684 34.2875 8.38041 36.3982 9.16903 37.6751L2.53884 42.0418C0.836156 39.2099 0 35.4943 0 31.2604C0 23.5609 2.11331 15.5363 6.13181 9.33919C9.6975 3.84356 14.8427 0 20.7442 0L20.619 7.81931Z" fill="url(#paint1_linear_1811_195)"/>
<defs>
<linearGradient id="paint0_linear_1811_195" x1="920.249" y1="2674.94" x2="5871.92" y2="2925.03" gradientUnits="userSpaceOnUse">
<stop stop-color="#0064E1"/>
<stop offset="0.4" stop-color="#0064E1"/>
<stop offset="0.83" stop-color="#0073EE"/>
<stop offset="1" stop-color="#0082FB"/>
</linearGradient>
<linearGradient id="paint1_linear_1811_195" x1="1126.72" y1="3480.31" x2="1126.72" y2="1652.54" gradientUnits="userSpaceOnUse">
<stop stop-color="#0082FB"/>
<stop offset="1" stop-color="#0064E0"/>
</linearGradient>
</defs>
</svg>
