<svg width="62" height="62" viewBox="0 0 62 62" fill="none" xmlns="http://www.w3.org/2000/svg">
<rect width="62" height="62" rx="8" fill="#515BDA"/>
<path d="M31.2596 51.4768C28.4856 51.4768 25.8687 50.9461 23.409 49.8847C20.9493 48.8233 18.804 47.38 16.973 45.5548C15.1424 43.7299 13.6964 41.5876 12.635 39.1279C11.5737 36.6682 11.043 34.0569 11.043 31.294C11.043 25.9814 12.8232 21.41 16.3837 17.58C19.9439 13.7503 24.3521 11.6164 29.6084 11.1784V16.6369C25.8684 17.0412 22.7489 18.6333 20.2501 21.4131C17.751 24.1929 16.5015 27.4865 16.5015 31.294C16.5015 35.3821 17.939 38.8582 20.8142 41.7222C23.6897 44.5863 27.1715 46.0183 31.2596 46.0183C33.6182 46.0183 35.8392 45.496 37.9225 44.4515C40.0062 43.407 41.7725 41.9525 43.2213 40.0882L47.9384 42.8175C46.0289 45.5242 43.6142 47.644 40.6943 49.1771C37.774 50.7102 34.6291 51.4768 31.2596 51.4768ZM49.6229 39.7511L44.9059 37.0891C45.2765 36.1234 45.5545 35.1547 45.7398 34.1829C45.9251 33.2115 46.0178 32.2373 46.0178 31.2601C46.0178 27.4526 44.774 24.1535 42.2863 21.3625C39.7983 18.5713 36.6956 16.9848 32.9781 16.603V11.1445C38.2118 11.56 42.6034 13.6772 46.1528 17.4961C49.7018 21.3147 51.4763 25.8577 51.4763 31.1252C51.4763 32.6303 51.3247 34.1017 51.0214 35.5395C50.7182 36.9769 50.252 38.3808 49.6229 39.7511Z" fill="white"/>
</svg>