<svg width="72" height="72" viewBox="0 0 72 72" fill="none" xmlns="http://www.w3.org/2000/svg">
<g clip-path="url(#clip0_1811_169)">
<path d="M55.125 0H16.875C7.55519 0 0 7.55519 0 16.875V55.125C0 64.4448 7.55519 72 16.875 72H55.125C64.4448 72 72 64.4448 72 55.125V16.875C72 7.55519 64.4448 0 55.125 0Z" fill="url(#paint0_radial_1811_169)"/>
<path d="M55.125 0H16.875C7.55519 0 0 7.55519 0 16.875V55.125C0 64.4448 7.55519 72 16.875 72H55.125C64.4448 72 72 64.4448 72 55.125V16.875C72 7.55519 64.4448 0 55.125 0Z" fill="url(#paint1_radial_1811_169)"/>
<path d="M36.0025 7.875C28.3643 7.875 27.4056 7.90847 24.4058 8.04488C21.4116 8.18213 19.3677 8.65603 17.5795 9.35156C15.7295 10.0699 14.1604 11.0309 12.5972 12.5947C11.0326 14.1581 10.0716 15.7272 9.351 17.5764C8.6535 19.3652 8.17903 21.4099 8.04431 24.4027C7.91016 27.4028 7.875 28.3618 7.875 36.0003C7.875 43.6388 7.90875 44.5944 8.04488 47.5942C8.18269 50.5884 8.65659 52.6323 9.35156 54.4205C10.0704 56.2705 11.0315 57.8396 12.5952 59.4028C14.1581 60.9674 15.7272 61.9307 17.5759 62.649C19.3655 63.3445 21.4096 63.8184 24.4032 63.9557C27.4033 64.0921 28.3612 64.1256 35.9992 64.1256C43.6382 64.1256 44.5939 64.0921 47.5937 63.9557C50.5879 63.8184 52.634 63.3445 54.4236 62.649C56.2728 61.9307 57.8396 60.9674 59.4022 59.4028C60.9668 57.8396 61.9276 56.2705 62.6484 54.4213C63.3397 52.6323 63.8145 50.5879 63.9551 47.5948C64.0898 44.595 64.125 43.6388 64.125 36.0003C64.125 28.3618 64.0898 27.4033 63.9551 24.4032C63.8145 21.409 63.3397 19.3655 62.6484 17.5773C61.9276 15.7272 60.9668 14.1581 59.4022 12.5947C57.8379 11.0303 56.2733 10.0693 54.4219 9.35184C52.6289 8.65603 50.5839 8.18184 47.5897 8.04488C44.5897 7.90847 43.6345 7.875 35.9938 7.875H36.0025ZM33.4794 12.9434C34.2284 12.9423 35.064 12.9434 36.0025 12.9434C43.5122 12.9434 44.4021 12.9704 47.3676 13.1051C50.1097 13.2306 51.5981 13.6887 52.5895 14.0738C53.9021 14.5834 54.8378 15.1928 55.8217 16.1775C56.806 17.1619 57.4152 18.0993 57.9263 19.4119C58.3113 20.4019 58.77 21.8903 58.8949 24.6324C59.0296 27.5974 59.0588 28.4878 59.0588 35.9938C59.0588 43.4998 59.0296 44.3905 58.8949 47.3552C58.7694 50.0974 58.3113 51.5858 57.9263 52.576C57.4166 53.8886 56.806 54.8232 55.8217 55.807C54.8373 56.7914 53.9027 57.4006 52.5895 57.9105C51.5993 58.2972 50.1097 58.7543 47.3676 58.8797C44.4026 59.0144 43.5122 59.0437 36.0025 59.0437C28.4926 59.0437 27.6024 59.0144 24.6378 58.8797C21.8956 58.7531 20.4072 58.295 19.415 57.9099C18.1027 57.4 17.165 56.7908 16.1806 55.8065C15.1962 54.8221 14.587 53.8869 14.076 52.5738C13.691 51.5835 13.2323 50.0951 13.1074 47.3529C12.9727 44.388 12.9457 43.4976 12.9457 35.9868C12.9457 28.476 12.9727 27.5903 13.1074 24.6254C13.2328 21.8832 13.691 20.3948 14.076 19.4034C14.5859 18.0908 15.1962 17.1534 16.1809 16.1691C17.1655 15.1847 18.1027 14.5752 19.4152 14.0645C20.4067 13.6778 21.8956 13.2207 24.6378 13.0947C27.2323 12.9774 28.2378 12.9423 33.4794 12.9364V12.9434ZM51.0157 17.6133C49.1524 17.6133 47.6407 19.1236 47.6407 20.9872C47.6407 22.8504 49.1524 24.3622 51.0157 24.3622C52.8789 24.3622 54.3907 22.8504 54.3907 20.9872C54.3907 19.1239 52.8789 17.6122 51.0157 17.6122V17.6133ZM36.0025 21.5567C28.0263 21.5567 21.5592 28.0238 21.5592 36.0003C21.5592 43.9768 28.0263 50.4408 36.0025 50.4408C43.9791 50.4408 50.4439 43.9768 50.4439 36.0003C50.4439 28.024 43.9785 21.5567 36.002 21.5567H36.0025ZM36.0025 26.6251C41.1801 26.6251 45.3777 30.8222 45.3777 36.0003C45.3777 41.1778 41.1801 45.3755 36.0025 45.3755C30.825 45.3755 26.6276 41.1778 26.6276 36.0003C26.6276 30.8222 30.8247 26.6251 36.0025 26.6251Z" fill="white"/>
</g>
<defs>
<radialGradient id="paint0_radial_1811_169" cx="0" cy="0" r="1" gradientUnits="userSpaceOnUse" gradientTransform="translate(19.125 77.5454) rotate(-90) scale(71.3573 66.368)">
<stop stop-color="#FFDD55"/>
<stop offset="0.1" stop-color="#FFDD55"/>
<stop offset="0.5" stop-color="#FF543E"/>
<stop offset="1" stop-color="#C837AB"/>
</radialGradient>
<radialGradient id="paint1_radial_1811_169" cx="0" cy="0" r="1" gradientUnits="userSpaceOnUse" gradientTransform="translate(-12.0603 5.18653) rotate(78.681) scale(31.8971 131.481)">
<stop stop-color="#3771C8"/>
<stop offset="0.128" stop-color="#3771C8"/>
<stop offset="1" stop-color="#6600FF" stop-opacity="0"/>
</radialGradient>
<clipPath id="clip0_1811_169">
<rect width="72" height="72" fill="white"/>
</clipPath>
</defs>
</svg>
