<svg width="46" height="46" viewBox="0 0 46 46" fill="none" xmlns="http://www.w3.org/2000/svg">
<rect width="46" height="46" rx="8" fill="#EE6DBC"/>
<path d="M16.41 8H28.59C33.23 8 37 11.77 37 16.41V28.59C37 30.8205 36.114 32.9596 34.5368 34.5368C32.9596 36.114 30.8205 37 28.59 37H16.41C11.77 37 8 33.23 8 28.59V16.41C8 14.1795 8.88605 12.0404 10.4632 10.4632C12.0404 8.88605 14.1795 8 16.41 8ZM16.12 10.9C14.7356 10.9 13.4078 11.45 12.4289 12.4289C11.45 13.4078 10.9 14.7356 10.9 16.12V28.88C10.9 31.7655 13.2345 34.1 16.12 34.1H28.88C30.2644 34.1 31.5922 33.55 32.5711 32.5711C33.55 31.5922 34.1 30.2644 34.1 28.88V16.12C34.1 13.2345 31.7655 10.9 28.88 10.9H16.12ZM30.1125 13.075C30.5932 13.075 31.0542 13.266 31.3941 13.6059C31.734 13.9458 31.925 14.4068 31.925 14.8875C31.925 15.3682 31.734 15.8292 31.3941 16.1691C31.0542 16.509 30.5932 16.7 30.1125 16.7C29.6318 16.7 29.1708 16.509 28.8309 16.1691C28.491 15.8292 28.3 15.3682 28.3 14.8875C28.3 14.4068 28.491 13.9458 28.8309 13.6059C29.1708 13.266 29.6318 13.075 30.1125 13.075ZM22.5 15.25C24.4228 15.25 26.2669 16.0138 27.6265 17.3735C28.9862 18.7331 29.75 20.5772 29.75 22.5C29.75 24.4228 28.9862 26.2669 27.6265 27.6265C26.2669 28.9862 24.4228 29.75 22.5 29.75C20.5772 29.75 18.7331 28.9862 17.3735 27.6265C16.0138 26.2669 15.25 24.4228 15.25 22.5C15.25 20.5772 16.0138 18.7331 17.3735 17.3735C18.7331 16.0138 20.5772 15.25 22.5 15.25ZM22.5 18.15C21.3463 18.15 20.2399 18.6083 19.4241 19.4241C18.6083 20.2399 18.15 21.3463 18.15 22.5C18.15 23.6537 18.6083 24.7601 19.4241 25.5759C20.2399 26.3917 21.3463 26.85 22.5 26.85C23.6537 26.85 24.7601 26.3917 25.5759 25.5759C26.3917 24.7601 26.85 23.6537 26.85 22.5C26.85 21.3463 26.3917 20.2399 25.5759 19.4241C24.7601 18.6083 23.6537 18.15 22.5 18.15Z" fill="white"/>
</svg>
