<svg width="46" height="46" viewBox="0 0 46 46" fill="none" xmlns="http://www.w3.org/2000/svg">
<rect width="46" height="46" rx="8" fill="#6363DC"/>
<path d="M14.086 12.1125C14.0856 12.9376 13.7647 13.7287 13.1937 14.3118C12.6227 14.8949 11.8486 15.2223 11.0415 15.2219C10.2344 15.2215 9.4606 14.8933 8.8902 14.3096C8.31981 13.7259 7.9996 12.9345 8 12.1094C8.0004 11.2843 8.32139 10.4932 8.89236 9.91007C9.46332 9.32695 10.2375 8.99959 11.0445 9C11.8516 9.00041 12.6254 9.32857 13.1958 9.91227C13.7662 10.496 14.0864 11.2874 14.086 12.1125ZM14.1773 17.5255H8.09129V37H14.1773V17.5255ZM23.7933 17.5255H17.7377V37H23.7324V26.7806C23.7324 21.0876 30.99 20.5587 30.99 26.7806V37H37V24.6651C37 15.0679 26.2581 15.4256 23.7324 20.1387L23.7933 17.5255Z" fill="white"/>
</svg>
