<svg width="1200" height="630" viewBox="0 0 1200 630" fill="none" xmlns="http://www.w3.org/2000/svg">
<rect width="1200" height="630" fill="#EA7BBA"/>
<g filter="url(#filter0_f_667_351)">
<ellipse cx="599.5" cy="314.5" rx="269.5" ry="256.5" fill="#F281C1"/>
</g>
<rect width="373" height="347" transform="translate(413 141)" fill="#F281C1"/>
<circle cx="617" cy="333" r="118.5" transform="rotate(-1.43566 617 333)" fill="#F281C1" stroke="black" stroke-width="7" stroke-dasharray="12 12"/>
<rect width="89" height="86" transform="translate(472 217)" fill="#F281C1"/>
<path d="M555.5 234H489C487.895 234 487 234.895 487 236V297.5C487 298.605 487.895 299.5 489 299.5H555.5C556.605 299.5 557.5 298.605 557.5 297.5V236C557.5 234.895 556.605 234 555.5 234Z" stroke="black" stroke-width="6"/>
<path d="M489 252H557.5" stroke="black" stroke-width="6"/>
<path d="M517.5 265H499C497.895 265 497 265.895 497 267V284C497 285.105 497.895 286 499 286H517.5C518.605 286 519.5 285.105 519.5 284V267C519.5 265.895 518.605 265 517.5 265Z" stroke="black" stroke-width="6"/>
<path d="M529 267H543" stroke="black" stroke-width="6" stroke-linecap="round"/>
<path d="M529 276H543" stroke="black" stroke-width="6" stroke-linecap="round"/>
<path d="M529 286H543" stroke="black" stroke-width="6" stroke-linecap="round"/>
<path d="M660.5 304H584C582.895 304 582 304.895 582 306V359.5C582 360.605 582.895 361.5 584 361.5H660.5C661.605 361.5 662.5 360.605 662.5 359.5V306C662.5 304.895 661.605 304 660.5 304Z" stroke="black" stroke-width="6" stroke-linecap="round"/>
<g clip-path="url(#clip0_667_351)">
<rect x="460" y="368" width="125" height="81" rx="40.5" fill="#F281C1"/>
<circle cx="544.5" cy="408.5" r="37.5" fill="#F281C1" stroke="black" stroke-width="6"/>
<circle cx="545" cy="409" r="24" fill="#F281C1" stroke="black" stroke-width="6"/>
<circle cx="544.5" cy="408.5" r="9.5" fill="#F281C1" stroke="black" stroke-width="6"/>
<path d="M481 408H543" stroke="black" stroke-width="6" stroke-linecap="round"/>
<path d="M492.342 398H466.423C464.46 398 463.672 400.532 465.287 401.646L472.051 406.311C473.22 407.117 473.2 408.852 472.012 409.63L465.606 413.827C463.944 414.916 464.715 417.5 466.702 417.5H492.35C492.45 417.5 492.549 417.488 492.646 417.464C502.758 415.001 502.735 400.624 492.654 398.039C492.552 398.013 492.447 398 492.342 398Z" stroke="black" stroke-width="6" stroke-linecap="round"/>
</g>
<path d="M558 281H699.5C700.605 281 701.5 281.895 701.5 283V383.5C701.5 384.605 700.605 385.5 699.5 385.5H575.5" stroke="black" stroke-width="6"/>
<path d="M552 368V301" stroke="black" stroke-width="6" stroke-linecap="round"/>
<rect width="107" height="102" transform="translate(622 174)" fill="#F281C1"/>
<path d="M696 260.5V198.5C696 193.806 699.806 190 704.5 190C709.194 190 713 193.806 713 198.5V260.5C713 265.194 709.194 269 704.5 269C699.806 269 696 265.194 696 260.5Z" stroke="black" stroke-width="6" stroke-linecap="round"/>
<path d="M672.445 212.703L694.445 198.036C695.11 197.593 696 198.07 696 198.869V261C696 261.824 695.059 262.294 694.4 261.8L672.4 245.3C672.148 245.111 672 244.815 672 244.5V213.535C672 213.201 672.167 212.889 672.445 212.703Z" stroke="black" stroke-width="6" stroke-linecap="round"/>
<path d="M639 245V214C639 213.448 639.448 213 640 213H670.5C671.052 213 671.5 213.448 671.5 214V245C671.5 245.552 671.052 246 670.5 246H640C639.448 246 639 245.552 639 245Z" stroke="black" stroke-width="6" stroke-linecap="round"/>
<mask id="path-21-inside-1_667_351" fill="white">
<path d="M642 217C640.293 217 638.602 217.336 637.025 217.99C635.448 218.643 634.015 219.6 632.808 220.808C631.6 222.015 630.643 223.448 629.99 225.025C629.336 226.602 629 228.293 629 230C629 231.707 629.336 233.398 629.99 234.975C630.643 236.552 631.6 237.985 632.808 239.192C634.015 240.4 635.448 241.357 637.025 242.01C638.602 242.664 640.293 243 642 243L642 230L642 217Z"/>
</mask>
<path d="M642 217C640.293 217 638.602 217.336 637.025 217.99C635.448 218.643 634.015 219.6 632.808 220.808C631.6 222.015 630.643 223.448 629.99 225.025C629.336 226.602 629 228.293 629 230C629 231.707 629.336 233.398 629.99 234.975C630.643 236.552 631.6 237.985 632.808 239.192C634.015 240.4 635.448 241.357 637.025 242.01C638.602 242.664 640.293 243 642 243L642 230L642 217Z" fill="#F281C1" stroke="black" stroke-width="10" mask="url(#path-21-inside-1_667_351)"/>
<mask id="path-22-inside-2_667_351" fill="white">
<path d="M710.098 243.049C711.805 243.042 713.494 242.7 715.069 242.04C716.644 241.381 718.073 240.418 719.276 239.207C720.478 237.995 721.431 236.558 722.078 234.978C722.725 233.399 723.055 231.707 723.049 230C723.042 228.293 722.7 226.604 722.041 225.029C721.381 223.454 720.418 222.025 719.207 220.822C717.995 219.619 716.558 218.667 714.979 218.02C713.399 217.372 711.707 217.042 710 217.049L710.049 230.049L710.098 243.049Z"/>
</mask>
<path d="M710.098 243.049C711.805 243.042 713.494 242.7 715.069 242.04C716.644 241.381 718.073 240.418 719.276 239.207C720.478 237.995 721.431 236.558 722.078 234.978C722.725 233.399 723.055 231.707 723.049 230C723.042 228.293 722.7 226.604 722.041 225.029C721.381 223.454 720.418 222.025 719.207 220.822C717.995 219.619 716.558 218.667 714.979 218.02C713.399 217.372 711.707 217.042 710 217.049L710.049 230.049L710.098 243.049Z" fill="#F281C1" stroke="black" stroke-width="10" mask="url(#path-22-inside-2_667_351)"/>
<path d="M648 247V265.566C648 266.566 649.307 266.947 649.844 266.103L662 247" stroke="black" stroke-width="6" stroke-linecap="round"/>
<path d="M635.5 332.134C636.167 332.519 636.167 333.481 635.5 333.866L616 345.124C615.333 345.509 614.5 345.028 614.5 344.258L614.5 321.742C614.5 320.972 615.333 320.491 616 320.876L635.5 332.134Z" fill="#F281C1" stroke="black" stroke-width="6"/>
<path d="M585 407H592.5C593.605 407 594.5 406.105 594.5 405V387C594.5 385.895 595.395 385 596.5 385H653.5C654.605 385 655.5 385.895 655.5 387V405C655.5 406.105 656.395 407 657.5 407H681.5C682.605 407 683.5 407.895 683.5 409V420C683.5 421.105 682.605 422 681.5 422H580" stroke="black" stroke-width="6"/>
<defs>
<filter id="filter0_f_667_351" x="290" y="18" width="619" height="593" filterUnits="userSpaceOnUse" color-interpolation-filters="sRGB">
<feFlood flood-opacity="0" result="BackgroundImageFix"/>
<feBlend mode="normal" in="SourceGraphic" in2="BackgroundImageFix" result="shape"/>
<feGaussianBlur stdDeviation="20" result="effect1_foregroundBlur_667_351"/>
</filter>
<clipPath id="clip0_667_351">
<rect x="460" y="368" width="125" height="81" rx="40.5" fill="white"/>
</clipPath>
</defs>
</svg>
