<svg width="46" height="46" viewBox="0 0 46 46" fill="none" xmlns="http://www.w3.org/2000/svg">
<rect width="46" height="46" rx="8" fill="#EA7BBA"/>
<g clip-path="url(#clip0_1226_801)">
<path d="M28.5385 8H17.4615C15.5508 8 14 9.52727 14 11.4091V34.5909C14 36.4727 15.5508 38 17.4615 38H28.5385C30.4492 38 32 36.4727 32 34.5909V11.4091C32 9.52727 30.4492 8 28.5385 8ZM23 36.6364C21.8508 36.6364 20.9231 35.7227 20.9231 34.5909C20.9231 33.4591 21.8508 32.5455 23 32.5455C24.1492 32.5455 25.0769 33.4591 25.0769 34.5909C25.0769 35.7227 24.1492 36.6364 23 36.6364ZM29.2308 31.1818H16.7692V12.0909H29.2308V31.1818Z" fill="white"/>
</g>
<defs>
<clipPath id="clip0_1226_801">
<rect width="36" height="36" fill="white" transform="translate(5 5)"/>
</clipPath>
</defs>
</svg>
