<svg width="47" height="46" viewBox="0 0 47 46" fill="none" xmlns="http://www.w3.org/2000/svg">
<rect x="0.5" width="46" height="46" rx="8" fill="#6673F2"/>
<path d="M11.5 38C10.675 38 9.96875 37.6736 9.38125 37.0208C8.79375 36.3681 8.5 35.5833 8.5 34.6667V11.3333C8.5 10.4167 8.79375 9.63194 9.38125 8.97917C9.96875 8.32639 10.675 8 11.5 8H35.5C36.325 8 37.0312 8.32639 37.6187 8.97917C38.2062 9.63194 38.5 10.4167 38.5 11.3333V34.6667C38.5 35.5833 38.2062 36.3681 37.6187 37.0208C37.0312 37.6736 36.325 38 35.5 38H11.5ZM11.5 34.6667H35.5V11.3333H11.5V34.6667ZM14.5 31.3333H32.5V28H14.5V31.3333ZM14.5 24.6667H20.5V14.6667H14.5V24.6667ZM23.5 24.6667H32.5V21.3333H23.5V24.6667ZM23.5 18H32.5V14.6667H23.5V18Z" fill="white"/>
</svg>
