<svg width="1200" height="630" viewBox="0 0 1200 630" fill="none" xmlns="http://www.w3.org/2000/svg">
<rect width="1200" height="630" fill="#03D6BA"/>
<g filter="url(#filter0_f_667_271)">
<ellipse cx="599.5" cy="314.5" rx="269.5" ry="256.5" fill="#00DFC1"/>
</g>
<rect width="373" height="347" transform="translate(413 141)" fill="#01DFC1"/>
<rect x="636" y="315" width="79" height="131" rx="2" fill="#01DFC1" stroke="black" stroke-width="4"/>
<path d="M490 391V249C490 247.895 490.895 247 492 247H693.5C694.605 247 695.5 247.895 695.5 249V313" stroke="black" stroke-width="4"/>
<path d="M523.356 391H480C478.895 391 478 391.895 478 393V411C478 412.105 478.895 413 480 413H634C635.105 413 636 412.105 636 411V393C636 391.895 635.105 391 634 391H534.82" stroke="black" stroke-width="4" stroke-linecap="round"/>
<line x1="559" y1="248" x2="559" y2="273" stroke="black" stroke-width="4" stroke-linecap="round"/>
<line x1="597" y1="402" x2="572" y2="402" stroke="black" stroke-width="4" stroke-linecap="round"/>
<line x1="653" y1="326" x2="648" y2="326" stroke="black" stroke-width="4" stroke-linecap="round"/>
<line x1="683" y1="326" x2="678" y2="326" stroke="black" stroke-width="4" stroke-linecap="round"/>
<line x1="697" y1="326" x2="692" y2="326" stroke="black" stroke-width="4" stroke-linecap="round"/>
<line x1="705" y1="393" x2="647" y2="393" stroke="black" stroke-width="4" stroke-linecap="round"/>
<line x1="713" y1="426" x2="636" y2="426" stroke="black" stroke-width="4" stroke-linecap="round"/>
<line x1="694" y1="404" x2="647" y2="404" stroke="black" stroke-width="4" stroke-linecap="round"/>
<line x1="705" y1="353" x2="680" y2="353" stroke="black" stroke-width="4" stroke-linecap="round"/>
<line x1="698" y1="361" x2="680" y2="361" stroke="black" stroke-width="4" stroke-linecap="round"/>
<line x1="691" y1="368" x2="680" y2="368" stroke="black" stroke-width="4" stroke-linecap="round"/>
<line x1="559" y1="341" x2="622" y2="341" stroke="black" stroke-width="4" stroke-linecap="round"/>
<line x1="559" y1="329" x2="622" y2="329" stroke="black" stroke-width="4" stroke-linecap="round"/>
<line x1="638" y1="336" x2="713" y2="336" stroke="black" stroke-width="4" stroke-linecap="round"/>
<line x1="492" y1="273" x2="694" y2="273" stroke="black" stroke-width="4" stroke-linecap="round"/>
<path d="M628.5 357H513C511.895 357 511 357.895 511 359V378.5C511 379.605 511.895 380.5 513 380.5H621" stroke="black" stroke-width="4" stroke-linecap="round"/>
<path d="M545 296H513C511.895 296 511 296.895 511 298V345C511 346.105 511.895 347 513 347H545C546.105 347 547 346.105 547 345V298C547 296.895 546.105 296 545 296Z" stroke="black" stroke-width="4" stroke-linecap="round"/>
<path d="M669 351H647C645.895 351 645 351.895 645 353V379C645 380.105 645.895 381 647 381H669C670.105 381 671 380.105 671 379V353C671 351.895 670.105 351 669 351Z" stroke="black" stroke-width="4" stroke-linecap="round"/>
<path d="M661 288H559C557.895 288 557 288.895 557 290V302.5C557 303.605 557.895 304.5 559 304.5H661C662.105 304.5 663 303.605 663 302.5V290C663 288.895 662.105 288 661 288Z" stroke="black" stroke-width="4" stroke-linecap="round"/>
<circle cx="505" cy="260" r="6" fill="#01DFC1" stroke="black" stroke-width="4"/>
<circle cx="525" cy="260" r="6" fill="#01DFC1" stroke="black" stroke-width="4"/>
<circle cx="544" cy="260" r="6" fill="#01DFC1" stroke="black" stroke-width="4"/>
<path d="M476.136 314.567L459.315 314.061C459.145 315.258 458.764 316.438 458.173 317.601C457.581 318.763 456.781 319.819 455.772 320.769C453.274 323.121 450.345 324.247 446.985 324.146C443.625 324.045 440.769 322.745 438.417 320.247C436.064 317.748 434.939 314.819 435.04 311.459C435.141 308.099 436.441 305.243 438.939 302.891C441.437 300.539 444.366 299.413 447.726 299.514C451.086 299.615 453.942 300.915 456.294 303.413C457.244 304.422 457.979 305.524 458.5 306.72C459.021 307.916 459.33 309.117 459.427 310.322L476.249 310.829L476.136 314.567ZM453.182 318.018C454.901 316.4 455.796 314.422 455.866 312.086C455.937 309.75 455.163 307.722 453.544 306.003C451.925 304.284 449.948 303.389 447.612 303.319C445.275 303.249 443.248 304.023 441.529 305.641C439.81 307.26 438.915 309.237 438.845 311.574C438.774 313.91 439.548 315.938 441.167 317.657C442.786 319.376 444.763 320.271 447.099 320.341C449.436 320.411 451.463 319.637 453.182 318.018Z" fill="#1C1B1F"/>
<path d="M484.845 244.084L472.425 232.728C471.515 233.526 470.457 234.172 469.25 234.667C468.043 235.162 466.748 235.441 465.364 235.503C461.936 235.656 458.982 234.599 456.501 232.331C454.02 230.063 452.703 227.215 452.549 223.786C452.396 220.358 453.453 217.404 455.721 214.923C457.989 212.442 460.837 211.125 464.265 210.972C467.694 210.818 470.648 211.876 473.129 214.144C475.61 216.412 476.927 219.26 477.08 222.688C477.142 224.072 476.981 225.387 476.595 226.633C476.21 227.879 475.661 228.991 474.948 229.968L487.369 241.324L484.845 244.084ZM465.195 231.729C467.554 231.623 469.522 230.708 471.099 228.983C472.676 227.258 473.412 225.216 473.306 222.857C473.201 220.498 472.285 218.53 470.56 216.953C468.835 215.376 466.793 214.64 464.434 214.746C462.076 214.851 460.108 215.767 458.531 217.492C456.953 219.217 456.218 221.259 456.323 223.617C456.429 225.976 457.344 227.944 459.069 229.521C460.794 231.099 462.836 231.834 465.195 231.729Z" fill="#1C1B1F"/>
<path d="M597.172 227.213L597.172 210.384C595.97 210.251 594.779 209.906 593.599 209.349C592.419 208.793 591.339 208.025 590.36 207.045C587.934 204.619 586.72 201.725 586.72 198.363C586.72 195.002 587.934 192.108 590.36 189.682C592.786 187.255 595.68 186.042 599.042 186.042C602.403 186.042 605.297 187.255 607.723 189.682C610.15 192.108 611.363 195.002 611.363 198.363C611.363 201.725 610.15 204.619 607.723 207.045C606.744 208.025 605.664 208.793 604.484 209.349C603.305 209.906 602.114 210.251 600.912 210.384L600.912 227.213H597.172ZM593.031 204.374C594.701 206.043 596.704 206.878 599.042 206.878C601.379 206.878 603.382 206.043 605.052 204.374C606.722 202.704 607.556 200.701 607.556 198.363C607.556 196.026 606.722 194.023 605.052 192.353C603.382 190.683 601.379 189.849 599.042 189.849C596.704 189.849 594.701 190.683 593.031 192.353C591.362 194.023 590.527 196.026 590.527 198.363C590.527 200.701 591.362 202.704 593.031 204.374Z" fill="#1C1B1F"/>
<path d="M700 243.356L711.9 231.456C711.144 230.511 710.546 229.425 710.106 228.197C709.665 226.969 709.444 225.663 709.444 224.278C709.444 220.846 710.633 217.942 713.01 215.565C715.387 213.188 718.291 212 721.722 212C725.154 212 728.058 213.188 730.435 215.565C732.812 217.942 734 220.846 734 224.278C734 227.709 732.812 230.613 730.435 232.99C728.058 235.367 725.154 236.556 721.722 236.556C720.337 236.556 719.031 236.335 717.803 235.894C716.575 235.454 715.489 234.856 714.544 234.1L702.644 246L700 243.356ZM713.222 224.278C713.222 226.639 714.049 228.646 715.701 230.299C717.354 231.951 719.361 232.778 721.722 232.778C724.083 232.778 726.09 231.951 727.743 230.299C729.396 228.646 730.222 226.639 730.222 224.278C730.222 221.917 729.396 219.91 727.743 218.257C726.09 216.604 724.083 215.778 721.722 215.778C719.361 215.778 717.354 216.604 715.701 218.257C714.049 219.91 713.222 221.917 713.222 224.278Z" fill="#1C1B1F"/>
<path d="M723.87 310.172L740.699 310.172C740.833 308.97 741.178 307.779 741.734 306.599C742.291 305.419 743.059 304.339 744.038 303.36C746.465 300.933 749.358 299.72 752.72 299.72C756.081 299.72 758.975 300.933 761.402 303.36C763.828 305.786 765.041 308.68 765.041 312.042C765.041 315.403 763.828 318.297 761.402 320.723C758.975 323.15 756.081 324.363 752.72 324.363C749.358 324.363 746.465 323.15 744.038 320.723C743.059 319.744 742.291 318.664 741.734 317.484C741.178 316.304 740.833 315.113 740.699 313.911L723.87 313.911V310.172ZM746.709 306.031C745.04 307.701 744.205 309.704 744.205 312.042C744.205 314.379 745.04 316.382 746.709 318.052C748.379 319.721 750.382 320.556 752.72 320.556C755.057 320.556 757.061 319.721 758.73 318.052C760.4 316.382 761.235 314.379 761.235 312.042C761.235 309.704 760.4 307.701 758.73 306.031C757.061 304.362 755.057 303.527 752.72 303.527C750.382 303.527 748.379 304.362 746.709 306.031Z" fill="#1C1B1F"/>
<line x1="688" y1="436" x2="663" y2="436" stroke="black" stroke-width="4" stroke-linecap="round"/>
<defs>
<filter id="filter0_f_667_271" x="290" y="18" width="619" height="593" filterUnits="userSpaceOnUse" color-interpolation-filters="sRGB">
<feFlood flood-opacity="0" result="BackgroundImageFix"/>
<feBlend mode="normal" in="SourceGraphic" in2="BackgroundImageFix" result="shape"/>
<feGaussianBlur stdDeviation="20" result="effect1_foregroundBlur_667_271"/>
</filter>
</defs>
</svg>
