<svg width="496" height="565" viewBox="0 0 496 565" fill="none" xmlns="http://www.w3.org/2000/svg">
<rect width="496" height="565" rx="32" fill="url(#paint0_linear_1923_722)"/>
<path d="M248 503C248 503.276 248.224 503.5 248.5 503.5C248.776 503.5 249 503.276 249 503L248 503ZM248 62L248 64.0045L249 64.0045L249 62L248 62ZM248 68.0136L248 72.0227L249 72.0227L249 68.0136L248 68.0136ZM248 76.0318L248 80.0409L249 80.0409L249 76.0318L248 76.0318ZM248 84.05L248 88.0591L249 88.0591L249 84.05L248 84.05ZM248 92.0682L248 96.0773L249 96.0773L249 92.0682L248 92.0682ZM248 100.086L248 104.095L249 104.095L249 100.086L248 100.086ZM248 108.105L248 112.114L249 112.114L249 108.105L248 108.105ZM248 116.123L248 120.132L249 120.132L249 116.123L248 116.123ZM248 124.141L248 128.15L249 128.15L249 124.141L248 124.141ZM248 132.159L248 136.168L249 136.168L249 132.159L248 132.159ZM248 140.177L248 144.186L249 144.186L249 140.177L248 140.177ZM248 148.195L248 152.205L249 152.205L249 148.195L248 148.195ZM248 156.214L248 160.223L249 160.223L249 156.214L248 156.214ZM248 164.232L248 168.241L249 168.241L249 164.232L248 164.232ZM248 172.25L248 176.259L249 176.259L249 172.25L248 172.25ZM248 180.268L248 184.277L249 184.277L249 180.268L248 180.268ZM248 188.286L248 192.296L249 192.296L249 188.286L248 188.286ZM248 196.305L248 200.314L249 200.314L249 196.305L248 196.305ZM248 204.323L248 208.332L249 208.332L249 204.323L248 204.323ZM248 212.341L248 216.35L249 216.35L249 212.341L248 212.341ZM248 220.359L248 224.368L249 224.368L249 220.359L248 220.359ZM248 228.377L248 232.386L249 232.386L249 228.377L248 228.377ZM248 236.396L248 240.405L249 240.405L249 236.396L248 236.396ZM248 244.414L248 248.423L249 248.423L249 244.414L248 244.414ZM248 252.432L248 256.441L249 256.441L249 252.432L248 252.432ZM248 260.45L248 264.459L249 264.459L249 260.45L248 260.45ZM248 268.468L248 272.477L249 272.477L249 268.468L248 268.468ZM248 276.486L248 280.496L249 280.496L249 276.486L248 276.486ZM248 284.505L248 288.514L249 288.514L249 284.505L248 284.505ZM248 292.523L248 296.532L249 296.532L249 292.523L248 292.523ZM248 300.541L248 304.55L249 304.55L249 300.541L248 300.541ZM248 308.559L248 312.568L249 312.568L249 308.559L248 308.559ZM248 316.577L248 320.587L249 320.587L249 316.577L248 316.577ZM248 324.596L248 328.605L249 328.605L249 324.596L248 324.596ZM248 332.614L248 336.623L249 336.623L249 332.614L248 332.614ZM248 340.632L248 344.641L249 344.641L249 340.632L248 340.632ZM248 348.65L248 352.659L249 352.659L249 348.65L248 348.65ZM248 356.668L248 360.677L249 360.677L249 356.668L248 356.668ZM248 364.687L248 368.696L249 368.696L249 364.687L248 364.687ZM248 372.705L248 376.714L249 376.714L249 372.705L248 372.705ZM248 380.723L248 384.732L249 384.732L249 380.723L248 380.723ZM248 388.741L248 392.75L249 392.75L249 388.741L248 388.741ZM248 396.759L248 400.768L249 400.768L249 396.759L248 396.759ZM248 404.777L248 408.787L249 408.787L249 404.777L248 404.777ZM248 412.796L248 416.805L249 416.805L249 412.796L248 412.796ZM248 420.814L248 424.823L249 424.823L249 420.814L248 420.814ZM248 428.832L248 432.841L249 432.841L249 428.832L248 428.832ZM248 436.85L248 440.859L249 440.859L249 436.85L248 436.85ZM248 444.868L248 448.878L249 448.878L249 444.868L248 444.868ZM248 452.887L248 456.896L249 456.896L249 452.887L248 452.887ZM248 460.905L248 464.914L249 464.914L249 460.905L248 460.905ZM248 468.923L248 472.932L249 472.932L249 468.923L248 468.923ZM248 476.941L248 480.95L249 480.95L249 476.941L248 476.941ZM248 484.959L248 488.968L249 488.968L249 484.959L248 484.959ZM248 492.978L248 496.987L249 496.987L249 492.978L248 492.978ZM248 500.996L248 503L249 503L249 500.996L248 500.996Z" fill="white"/>
<path d="M27 281.5C26.7238 281.5 26.5 281.724 26.5 282C26.5 282.276 26.7238 282.5 27 282.5L27 281.5ZM468 281.5L465.995 281.5L465.995 282.5L468 282.5L468 281.5ZM461.986 281.5L457.977 281.5L457.977 282.5L461.986 282.5L461.986 281.5ZM453.968 281.5L449.959 281.5L449.959 282.5L453.968 282.5L453.968 281.5ZM445.95 281.5L441.941 281.5L441.941 282.5L445.95 282.5L445.95 281.5ZM437.932 281.5L433.923 281.5L433.923 282.5L437.932 282.5L437.932 281.5ZM429.914 281.5L425.905 281.5L425.905 282.5L429.914 282.5L429.914 281.5ZM421.895 281.5L417.886 281.5L417.886 282.5L421.895 282.5L421.895 281.5ZM413.877 281.5L409.868 281.5L409.868 282.5L413.877 282.5L413.877 281.5ZM405.859 281.5L401.85 281.5L401.85 282.5L405.859 282.5L405.859 281.5ZM397.841 281.5L393.832 281.5L393.832 282.5L397.841 282.5L397.841 281.5ZM389.823 281.5L385.814 281.5L385.814 282.5L389.823 282.5L389.823 281.5ZM381.805 281.5L377.795 281.5L377.795 282.5L381.805 282.5L381.805 281.5ZM373.786 281.5L369.777 281.5L369.777 282.5L373.786 282.5L373.786 281.5ZM365.768 281.5L361.759 281.5L361.759 282.5L365.768 282.5L365.768 281.5ZM357.75 281.5L353.741 281.5L353.741 282.5L357.75 282.5L357.75 281.5ZM349.732 281.5L345.723 281.5L345.723 282.5L349.732 282.5L349.732 281.5ZM341.714 281.5L337.704 281.5L337.704 282.5L341.714 282.5L341.714 281.5ZM333.695 281.5L329.686 281.5L329.686 282.5L333.695 282.5L333.695 281.5ZM325.677 281.5L321.668 281.5L321.668 282.5L325.677 282.5L325.677 281.5ZM317.659 281.5L313.65 281.5L313.65 282.5L317.659 282.5L317.659 281.5ZM309.641 281.5L305.632 281.5L305.632 282.5L309.641 282.5L309.641 281.5ZM301.623 281.5L297.614 281.5L297.614 282.5L301.623 282.5L301.623 281.5ZM293.604 281.5L289.595 281.5L289.595 282.5L293.604 282.5L293.604 281.5ZM285.586 281.5L281.577 281.5L281.577 282.5L285.586 282.5L285.586 281.5ZM277.568 281.5L273.559 281.5L273.559 282.5L277.568 282.5L277.568 281.5ZM269.55 281.5L265.541 281.5L265.541 282.5L269.55 282.5L269.55 281.5ZM261.532 281.5L257.523 281.5L257.523 282.5L261.532 282.5L261.532 281.5ZM253.514 281.5L249.504 281.5L249.504 282.5L253.514 282.5L253.514 281.5ZM245.495 281.5L241.486 281.5L241.486 282.5L245.495 282.5L245.495 281.5ZM237.477 281.5L233.468 281.5L233.468 282.5L237.477 282.5L237.477 281.5ZM229.459 281.5L225.45 281.5L225.45 282.5L229.459 282.5L229.459 281.5ZM221.441 281.5L217.432 281.5L217.432 282.5L221.441 282.5L221.441 281.5ZM213.423 281.5L209.413 281.5L209.413 282.5L213.423 282.5L213.423 281.5ZM205.404 281.5L201.395 281.5L201.395 282.5L205.404 282.5L205.404 281.5ZM197.386 281.5L193.377 281.5L193.377 282.5L197.386 282.5L197.386 281.5ZM189.368 281.5L185.359 281.5L185.359 282.5L189.368 282.5L189.368 281.5ZM181.35 281.5L177.341 281.5L177.341 282.5L181.35 282.5L181.35 281.5ZM173.332 281.5L169.323 281.5L169.323 282.5L173.332 282.5L173.332 281.5ZM165.313 281.5L161.304 281.5L161.304 282.5L165.313 282.5L165.313 281.5ZM157.295 281.5L153.286 281.5L153.286 282.5L157.295 282.5L157.295 281.5ZM149.277 281.5L145.268 281.5L145.268 282.5L149.277 282.5L149.277 281.5ZM141.259 281.5L137.25 281.5L137.25 282.5L141.259 282.5L141.259 281.5ZM133.241 281.5L129.232 281.5L129.232 282.5L133.241 282.5L133.241 281.5ZM125.223 281.5L121.213 281.5L121.213 282.5L125.223 282.5L125.223 281.5ZM117.204 281.5L113.195 281.5L113.195 282.5L117.204 282.5L117.204 281.5ZM109.186 281.5L105.177 281.5L105.177 282.5L109.186 282.5L109.186 281.5ZM101.168 281.5L97.1588 281.5L97.1588 282.5L101.168 282.5L101.168 281.5ZM93.1497 281.5L89.1407 281.5L89.1407 282.5L93.1497 282.5L93.1497 281.5ZM85.1316 281.5L81.1225 281.5L81.1225 282.5L85.1316 282.5L85.1316 281.5ZM77.1134 281.5L73.1043 281.5L73.1043 282.5L77.1134 282.5L77.1134 281.5ZM69.0952 281.5L65.0861 281.5L65.0861 282.5L69.0952 282.5L69.0952 281.5ZM61.077 281.5L57.0679 281.5L57.0679 282.5L61.077 282.5L61.077 281.5ZM53.0588 281.5L49.0497 281.5L49.0497 282.5L53.0588 282.5L53.0588 281.5ZM45.0406 281.5L41.0315 281.5L41.0315 282.5L45.0406 282.5L45.0406 281.5ZM37.0224 281.5L33.0133 281.5L33.0133 282.5L37.0224 282.5L37.0224 281.5ZM29.0042 281.5L27 281.5L27 282.5L29.0042 282.5L29.0042 281.5Z" fill="white"/>
<rect x="60" y="131" width="152" height="115" rx="12" fill="#FFFFFE"/>
<path d="M96.6626 170.909V184H94.2912V170.909H96.6626ZM101.442 178.247V184H99.1284V174.182H101.34V175.85H101.455C101.681 175.3 102.041 174.864 102.535 174.54C103.034 174.216 103.65 174.054 104.383 174.054C105.06 174.054 105.65 174.199 106.153 174.489C106.66 174.778 107.052 175.198 107.329 175.748C107.611 176.298 107.749 176.964 107.745 177.749V184H105.431V178.107C105.431 177.45 105.26 176.937 104.92 176.566C104.583 176.195 104.116 176.01 103.52 176.01C103.115 176.01 102.755 176.099 102.439 176.278C102.128 176.453 101.883 176.707 101.704 177.039C101.53 177.371 101.442 177.774 101.442 178.247ZM114.38 184.192C113.4 184.192 112.558 183.977 111.855 183.546C111.156 183.116 110.617 182.521 110.238 181.763C109.863 181 109.675 180.122 109.675 179.129C109.675 178.132 109.867 177.252 110.251 176.489C110.634 175.722 111.175 175.126 111.874 174.7C112.577 174.269 113.408 174.054 114.367 174.054C115.164 174.054 115.869 174.201 116.483 174.495C117.101 174.785 117.593 175.196 117.959 175.729C118.326 176.257 118.535 176.875 118.586 177.582H116.374C116.285 177.109 116.072 176.715 115.735 176.4C115.403 176.08 114.957 175.92 114.399 175.92C113.926 175.92 113.51 176.048 113.153 176.304C112.795 176.555 112.515 176.918 112.315 177.391C112.119 177.864 112.021 178.43 112.021 179.091C112.021 179.76 112.119 180.335 112.315 180.817C112.511 181.294 112.786 181.663 113.14 181.923C113.498 182.178 113.917 182.306 114.399 182.306C114.74 182.306 115.045 182.242 115.313 182.114C115.586 181.982 115.814 181.793 115.997 181.545C116.18 181.298 116.306 180.998 116.374 180.644H118.586C118.53 181.339 118.326 181.955 117.972 182.491C117.618 183.024 117.137 183.442 116.528 183.744C115.918 184.043 115.202 184.192 114.38 184.192ZM120.486 184V174.182H122.729V175.818H122.832C123.011 175.251 123.317 174.815 123.752 174.508C124.191 174.197 124.692 174.041 125.254 174.041C125.382 174.041 125.525 174.048 125.683 174.06C125.844 174.069 125.979 174.084 126.085 174.105V176.234C125.987 176.2 125.832 176.17 125.619 176.144C125.41 176.114 125.207 176.099 125.011 176.099C124.589 176.099 124.21 176.191 123.874 176.374C123.541 176.553 123.279 176.803 123.087 177.122C122.896 177.442 122.8 177.81 122.8 178.228V184H120.486ZM131.565 184.192C130.58 184.192 129.73 183.987 129.014 183.578C128.303 183.165 127.755 182.581 127.372 181.827C126.988 181.068 126.796 180.175 126.796 179.148C126.796 178.138 126.988 177.252 127.372 176.489C127.759 175.722 128.301 175.126 128.995 174.7C129.69 174.269 130.506 174.054 131.443 174.054C132.048 174.054 132.619 174.152 133.156 174.348C133.698 174.54 134.175 174.838 134.588 175.243C135.006 175.648 135.334 176.163 135.573 176.79C135.811 177.412 135.931 178.153 135.931 179.014V179.724H127.883V178.164H133.713C133.708 177.721 133.612 177.327 133.425 176.982C133.237 176.632 132.975 176.357 132.639 176.157C132.306 175.957 131.919 175.857 131.475 175.857C131.002 175.857 130.587 175.972 130.229 176.202C129.871 176.428 129.592 176.726 129.392 177.097C129.195 177.463 129.095 177.866 129.091 178.305V179.666C129.091 180.237 129.195 180.727 129.404 181.136C129.613 181.541 129.905 181.852 130.28 182.07C130.655 182.283 131.094 182.389 131.597 182.389C131.933 182.389 132.238 182.342 132.511 182.249C132.784 182.151 133.02 182.008 133.22 181.82C133.421 181.633 133.572 181.401 133.674 181.124L135.835 181.366C135.698 181.937 135.438 182.436 135.055 182.862C134.676 183.284 134.19 183.612 133.597 183.847C133.005 184.077 132.328 184.192 131.565 184.192ZM140.713 184.198C140.091 184.198 139.531 184.087 139.032 183.866C138.538 183.64 138.146 183.308 137.856 182.869C137.571 182.43 137.428 181.888 137.428 181.245C137.428 180.691 137.53 180.233 137.735 179.871C137.939 179.509 138.218 179.219 138.572 179.001C138.926 178.784 139.324 178.62 139.767 178.509C140.215 178.394 140.677 178.311 141.154 178.26C141.73 178.2 142.196 178.147 142.554 178.1C142.912 178.049 143.172 177.972 143.334 177.87C143.5 177.763 143.583 177.599 143.583 177.378V177.339C143.583 176.858 143.441 176.485 143.155 176.221C142.87 175.957 142.458 175.825 141.922 175.825C141.355 175.825 140.905 175.948 140.573 176.195C140.245 176.442 140.023 176.734 139.908 177.071L137.748 176.764C137.918 176.168 138.199 175.669 138.591 175.268C138.983 174.864 139.463 174.561 140.029 174.361C140.596 174.156 141.223 174.054 141.909 174.054C142.382 174.054 142.853 174.109 143.321 174.22C143.79 174.331 144.218 174.514 144.606 174.77C144.994 175.021 145.305 175.364 145.539 175.799C145.778 176.234 145.897 176.777 145.897 177.429V184H143.673V182.651H143.596C143.456 182.924 143.257 183.18 143.002 183.418C142.75 183.653 142.433 183.842 142.049 183.987C141.67 184.128 141.225 184.198 140.713 184.198ZM141.314 182.498C141.779 182.498 142.181 182.406 142.522 182.223C142.863 182.036 143.125 181.788 143.309 181.482C143.496 181.175 143.59 180.84 143.59 180.478V179.321C143.517 179.381 143.394 179.436 143.219 179.487C143.049 179.538 142.857 179.583 142.644 179.621C142.431 179.66 142.22 179.694 142.011 179.724C141.802 179.754 141.621 179.779 141.468 179.8C141.123 179.847 140.814 179.924 140.541 180.031C140.268 180.137 140.053 180.286 139.895 180.478C139.738 180.665 139.659 180.908 139.659 181.207C139.659 181.633 139.814 181.955 140.125 182.172C140.436 182.389 140.833 182.498 141.314 182.498ZM155.984 176.777L153.875 177.007C153.815 176.794 153.711 176.594 153.561 176.406C153.417 176.219 153.221 176.067 152.973 175.952C152.726 175.837 152.424 175.78 152.066 175.78C151.584 175.78 151.179 175.884 150.851 176.093C150.527 176.302 150.368 176.572 150.372 176.905C150.368 177.19 150.472 177.423 150.685 177.602C150.902 177.781 151.26 177.928 151.759 178.043L153.434 178.401C154.363 178.601 155.053 178.918 155.505 179.353C155.961 179.788 156.191 180.357 156.195 181.06C156.191 181.678 156.01 182.223 155.652 182.696C155.298 183.165 154.806 183.531 154.175 183.795C153.544 184.06 152.82 184.192 152.002 184.192C150.8 184.192 149.833 183.94 149.1 183.438C148.367 182.93 147.93 182.225 147.789 181.322L150.046 181.104C150.148 181.548 150.365 181.882 150.698 182.108C151.03 182.334 151.463 182.447 151.995 182.447C152.545 182.447 152.986 182.334 153.319 182.108C153.655 181.882 153.824 181.603 153.824 181.271C153.824 180.989 153.715 180.757 153.498 180.574C153.284 180.391 152.952 180.25 152.5 180.152L150.826 179.8C149.884 179.604 149.187 179.274 148.735 178.81C148.284 178.341 148.06 177.749 148.064 177.033C148.06 176.428 148.224 175.903 148.556 175.46C148.893 175.013 149.36 174.668 149.956 174.425C150.557 174.178 151.25 174.054 152.034 174.054C153.184 174.054 154.09 174.299 154.75 174.789C155.415 175.279 155.826 175.942 155.984 176.777ZM162.45 184.192C161.465 184.192 160.615 183.987 159.899 183.578C159.188 183.165 158.64 182.581 158.256 181.827C157.873 181.068 157.681 180.175 157.681 179.148C157.681 178.138 157.873 177.252 158.256 176.489C158.644 175.722 159.185 175.126 159.88 174.7C160.575 174.269 161.391 174.054 162.328 174.054C162.933 174.054 163.504 174.152 164.041 174.348C164.582 174.54 165.06 174.838 165.473 175.243C165.891 175.648 166.219 176.163 166.457 176.79C166.696 177.412 166.815 178.153 166.815 179.014V179.724H158.768V178.164H164.597C164.593 177.721 164.497 177.327 164.31 176.982C164.122 176.632 163.86 176.357 163.523 176.157C163.191 175.957 162.803 175.857 162.36 175.857C161.887 175.857 161.472 175.972 161.114 176.202C160.756 176.428 160.477 176.726 160.276 177.097C160.08 177.463 159.98 177.866 159.976 178.305V179.666C159.976 180.237 160.08 180.727 160.289 181.136C160.498 181.541 160.79 181.852 161.165 182.07C161.54 182.283 161.979 182.389 162.482 182.389C162.818 182.389 163.123 182.342 163.396 182.249C163.668 182.151 163.905 182.008 164.105 181.82C164.305 181.633 164.457 181.401 164.559 181.124L166.719 181.366C166.583 181.937 166.323 182.436 165.94 182.862C165.56 183.284 165.075 183.612 164.482 183.847C163.89 184.077 163.212 184.192 162.45 184.192ZM172.416 184.173C171.645 184.173 170.955 183.974 170.345 183.578C169.736 183.182 169.254 182.607 168.901 181.852C168.547 181.098 168.37 180.182 168.37 179.104C168.37 178.013 168.549 177.092 168.907 176.342C169.269 175.588 169.757 175.019 170.371 174.636C170.985 174.248 171.669 174.054 172.423 174.054C172.998 174.054 173.471 174.152 173.842 174.348C174.213 174.54 174.507 174.772 174.724 175.045C174.941 175.313 175.11 175.567 175.229 175.805H175.325V170.909H177.645V184H175.369V182.453H175.229C175.11 182.692 174.937 182.945 174.711 183.214C174.485 183.478 174.187 183.704 173.816 183.891C173.445 184.079 172.979 184.173 172.416 184.173ZM173.062 182.274C173.552 182.274 173.97 182.142 174.315 181.878C174.66 181.609 174.922 181.237 175.101 180.759C175.28 180.282 175.369 179.726 175.369 179.091C175.369 178.456 175.28 177.904 175.101 177.435C174.926 176.967 174.666 176.602 174.321 176.342C173.98 176.082 173.561 175.952 173.062 175.952C172.546 175.952 172.116 176.087 171.771 176.355C171.426 176.624 171.166 176.994 170.991 177.467C170.816 177.94 170.729 178.482 170.729 179.091C170.729 179.705 170.816 180.252 170.991 180.734C171.17 181.211 171.432 181.588 171.777 181.865C172.127 182.138 172.555 182.274 173.062 182.274ZM94.1889 206V196.182H96.4325V197.818H96.5348C96.7138 197.251 97.0206 196.815 97.4553 196.508C97.8942 196.197 98.3949 196.041 98.9574 196.041C99.0852 196.041 99.228 196.048 99.3857 196.06C99.5476 196.069 99.6818 196.084 99.7884 196.105V198.234C99.6903 198.2 99.5348 198.17 99.3217 198.144C99.1129 198.114 98.9105 198.099 98.7145 198.099C98.2926 198.099 97.9134 198.191 97.5767 198.374C97.2443 198.553 96.9822 198.803 96.7905 199.122C96.5987 199.442 96.5028 199.81 96.5028 200.228V206H94.1889ZM105.268 206.192C104.284 206.192 103.433 205.987 102.718 205.578C102.006 205.165 101.458 204.581 101.075 203.827C100.691 203.068 100.499 202.175 100.499 201.148C100.499 200.138 100.691 199.252 101.075 198.489C101.463 197.722 102.004 197.126 102.698 196.7C103.393 196.269 104.209 196.054 105.146 196.054C105.752 196.054 106.323 196.152 106.86 196.348C107.401 196.54 107.878 196.838 108.291 197.243C108.709 197.648 109.037 198.163 109.276 198.79C109.514 199.412 109.634 200.153 109.634 201.014V201.724H101.586V200.164H107.416C107.411 199.721 107.316 199.327 107.128 198.982C106.941 198.632 106.678 198.357 106.342 198.157C106.009 197.957 105.622 197.857 105.178 197.857C104.705 197.857 104.29 197.972 103.932 198.202C103.574 198.428 103.295 198.726 103.095 199.097C102.899 199.463 102.798 199.866 102.794 200.305V201.666C102.794 202.237 102.899 202.727 103.107 203.136C103.316 203.541 103.608 203.852 103.983 204.07C104.358 204.283 104.797 204.389 105.3 204.389C105.637 204.389 105.941 204.342 106.214 204.249C106.487 204.151 106.723 204.008 106.923 203.82C107.124 203.633 107.275 203.401 107.377 203.124L109.538 203.366C109.401 203.937 109.142 204.436 108.758 204.862C108.379 205.284 107.893 205.612 107.301 205.847C106.708 206.077 106.031 206.192 105.268 206.192ZM113.905 192.909V206H111.591V192.909H113.905ZM120.631 206.192C119.647 206.192 118.797 205.987 118.081 205.578C117.369 205.165 116.822 204.581 116.438 203.827C116.055 203.068 115.863 202.175 115.863 201.148C115.863 200.138 116.055 199.252 116.438 198.489C116.826 197.722 117.367 197.126 118.062 196.7C118.756 196.269 119.572 196.054 120.51 196.054C121.115 196.054 121.686 196.152 122.223 196.348C122.764 196.54 123.241 196.838 123.655 197.243C124.072 197.648 124.4 198.163 124.639 198.79C124.878 199.412 124.997 200.153 124.997 201.014V201.724H116.949V200.164H122.779C122.775 199.721 122.679 199.327 122.491 198.982C122.304 198.632 122.042 198.357 121.705 198.157C121.373 197.957 120.985 197.857 120.542 197.857C120.069 197.857 119.653 197.972 119.295 198.202C118.937 198.428 118.658 198.726 118.458 199.097C118.262 199.463 118.162 199.866 118.157 200.305V201.666C118.157 202.237 118.262 202.727 118.471 203.136C118.68 203.541 118.971 203.852 119.346 204.07C119.721 204.283 120.16 204.389 120.663 204.389C121 204.389 121.305 204.342 121.577 204.249C121.85 204.151 122.086 204.008 122.287 203.82C122.487 203.633 122.638 203.401 122.741 203.124L124.901 203.366C124.765 203.937 124.505 204.436 124.121 204.862C123.742 205.284 123.256 205.612 122.664 205.847C122.072 206.077 121.394 206.192 120.631 206.192ZM135.443 196.182L131.947 206H129.39L125.893 196.182H128.361L130.617 203.475H130.719L132.982 196.182H135.443ZM139.588 206.198C138.966 206.198 138.406 206.087 137.907 205.866C137.413 205.64 137.021 205.308 136.731 204.869C136.446 204.43 136.303 203.888 136.303 203.245C136.303 202.691 136.405 202.233 136.61 201.871C136.814 201.509 137.093 201.219 137.447 201.001C137.801 200.784 138.199 200.62 138.642 200.509C139.09 200.394 139.552 200.311 140.029 200.26C140.605 200.2 141.071 200.147 141.429 200.1C141.787 200.049 142.047 199.972 142.209 199.87C142.375 199.763 142.458 199.599 142.458 199.378V199.339C142.458 198.858 142.316 198.485 142.03 198.221C141.745 197.957 141.333 197.825 140.797 197.825C140.23 197.825 139.78 197.948 139.448 198.195C139.12 198.442 138.898 198.734 138.783 199.071L136.623 198.764C136.793 198.168 137.074 197.669 137.466 197.268C137.858 196.864 138.338 196.561 138.904 196.361C139.471 196.156 140.098 196.054 140.784 196.054C141.257 196.054 141.728 196.109 142.196 196.22C142.665 196.331 143.093 196.514 143.481 196.77C143.869 197.021 144.18 197.364 144.414 197.799C144.653 198.234 144.772 198.777 144.772 199.429V206H142.548V204.651H142.471C142.331 204.924 142.132 205.18 141.877 205.418C141.625 205.653 141.308 205.842 140.924 205.987C140.545 206.128 140.1 206.198 139.588 206.198ZM140.189 204.498C140.654 204.498 141.056 204.406 141.397 204.223C141.738 204.036 142 203.788 142.184 203.482C142.371 203.175 142.465 202.84 142.465 202.478V201.321C142.392 201.381 142.269 201.436 142.094 201.487C141.924 201.538 141.732 201.583 141.519 201.621C141.306 201.66 141.095 201.694 140.886 201.724C140.677 201.754 140.496 201.779 140.343 201.8C139.998 201.847 139.689 201.924 139.416 202.031C139.143 202.137 138.928 202.286 138.77 202.478C138.613 202.665 138.534 202.908 138.534 203.207C138.534 203.633 138.689 203.955 139 204.172C139.311 204.389 139.708 204.498 140.189 204.498ZM149.413 200.247V206H147.099V196.182H149.311V197.85H149.426C149.652 197.3 150.012 196.864 150.506 196.54C151.005 196.216 151.62 196.054 152.353 196.054C153.031 196.054 153.621 196.199 154.124 196.489C154.631 196.778 155.023 197.198 155.3 197.748C155.581 198.298 155.72 198.964 155.716 199.749V206H153.402V200.107C153.402 199.45 153.231 198.937 152.89 198.566C152.554 198.195 152.087 198.01 151.49 198.01C151.086 198.01 150.725 198.099 150.41 198.278C150.099 198.453 149.854 198.707 149.675 199.039C149.5 199.371 149.413 199.774 149.413 200.247ZM162.35 206.192C161.37 206.192 160.529 205.977 159.826 205.546C159.127 205.116 158.588 204.521 158.208 203.763C157.833 203 157.646 202.122 157.646 201.129C157.646 200.132 157.838 199.252 158.221 198.489C158.605 197.722 159.146 197.126 159.845 196.7C160.548 196.269 161.379 196.054 162.338 196.054C163.135 196.054 163.84 196.201 164.453 196.495C165.071 196.785 165.564 197.196 165.93 197.729C166.297 198.257 166.505 198.875 166.556 199.582H164.345C164.255 199.109 164.042 198.715 163.706 198.4C163.373 198.08 162.928 197.92 162.37 197.92C161.897 197.92 161.481 198.048 161.123 198.304C160.765 198.555 160.486 198.918 160.286 199.391C160.09 199.864 159.992 200.43 159.992 201.091C159.992 201.76 160.09 202.335 160.286 202.817C160.482 203.294 160.757 203.663 161.11 203.923C161.468 204.178 161.888 204.306 162.37 204.306C162.711 204.306 163.015 204.242 163.284 204.114C163.556 203.982 163.784 203.793 163.968 203.545C164.151 203.298 164.277 202.998 164.345 202.644H166.556C166.501 203.339 166.297 203.955 165.943 204.491C165.589 205.024 165.108 205.442 164.498 205.744C163.889 206.043 163.173 206.192 162.35 206.192ZM172.803 206.192C171.819 206.192 170.969 205.987 170.253 205.578C169.541 205.165 168.993 204.581 168.61 203.827C168.226 203.068 168.035 202.175 168.035 201.148C168.035 200.138 168.226 199.252 168.61 198.489C168.998 197.722 169.539 197.126 170.233 196.7C170.928 196.269 171.744 196.054 172.682 196.054C173.287 196.054 173.858 196.152 174.395 196.348C174.936 196.54 175.413 196.838 175.827 197.243C176.244 197.648 176.572 198.163 176.811 198.79C177.05 199.412 177.169 200.153 177.169 201.014V201.724H169.121V200.164H174.951C174.947 199.721 174.851 199.327 174.663 198.982C174.476 198.632 174.214 198.357 173.877 198.157C173.545 197.957 173.157 197.857 172.714 197.857C172.241 197.857 171.825 197.972 171.467 198.202C171.109 198.428 170.83 198.726 170.63 199.097C170.434 199.463 170.334 199.866 170.329 200.305V201.666C170.329 202.237 170.434 202.727 170.643 203.136C170.851 203.541 171.143 203.852 171.518 204.07C171.893 204.283 172.332 204.389 172.835 204.389C173.172 204.389 173.476 204.342 173.749 204.249C174.022 204.151 174.258 204.008 174.459 203.82C174.659 203.633 174.81 203.401 174.912 203.124L177.073 203.366C176.937 203.937 176.677 204.436 176.293 204.862C175.914 205.284 175.428 205.612 174.836 205.847C174.243 206.077 173.566 206.192 172.803 206.192Z" fill="#7D7D7E"/>
<rect x="60" y="318" width="152" height="115" rx="12" fill="white"/>
<path d="M76.6626 357.909V371H74.2912V357.909H76.6626ZM79.1284 371V361.182H81.34V362.85H81.4551C81.6596 362.288 81.9984 361.849 82.4714 361.533C82.9444 361.214 83.5091 361.054 84.1653 361.054C84.8301 361.054 85.3904 361.216 85.8464 361.54C86.3066 361.859 86.6305 362.296 86.818 362.85H86.9203C87.1376 362.305 87.5041 361.87 88.0197 361.546C88.5396 361.218 89.1554 361.054 89.867 361.054C90.7704 361.054 91.5076 361.339 92.0787 361.911C92.6497 362.482 92.9352 363.315 92.9352 364.41V371H90.6149V364.768C90.6149 364.158 90.4529 363.713 90.1291 363.432C89.8052 363.146 89.4089 363.004 88.9402 363.004C88.3819 363.004 87.9451 363.178 87.6298 363.528C87.3187 363.873 87.1632 364.322 87.1632 364.876V371H84.894V364.672C84.894 364.165 84.7406 363.76 84.4338 363.457C84.1312 363.155 83.7349 363.004 83.2449 363.004C82.9125 363.004 82.6099 363.089 82.3372 363.259C82.0645 363.425 81.8471 363.662 81.6852 363.969C81.5233 364.271 81.4423 364.625 81.4423 365.03V371H79.1284ZM95.2827 374.682V361.182H97.5582V362.805H97.6925C97.8118 362.567 97.9801 362.313 98.1974 362.045C98.4148 361.772 98.7088 361.54 99.0795 361.348C99.4503 361.152 99.9233 361.054 100.499 361.054C101.257 361.054 101.941 361.248 102.55 361.636C103.164 362.019 103.65 362.588 104.008 363.342C104.37 364.092 104.551 365.013 104.551 366.104C104.551 367.182 104.374 368.098 104.021 368.852C103.667 369.607 103.185 370.182 102.576 370.578C101.967 370.974 101.276 371.173 100.505 371.173C99.9425 371.173 99.4759 371.079 99.1051 370.891C98.7344 370.704 98.4361 370.478 98.2102 370.214C97.9886 369.945 97.8161 369.692 97.6925 369.453H97.5966V374.682H95.2827ZM97.5518 366.091C97.5518 366.726 97.6413 367.282 97.8203 367.759C98.0036 368.237 98.2656 368.609 98.6065 368.878C98.9517 369.142 99.3693 369.274 99.8594 369.274C100.371 369.274 100.799 369.138 101.144 368.865C101.489 368.588 101.749 368.211 101.924 367.734C102.103 367.252 102.192 366.705 102.192 366.091C102.192 365.482 102.105 364.94 101.93 364.467C101.756 363.994 101.496 363.624 101.151 363.355C100.805 363.087 100.375 362.952 99.8594 362.952C99.3651 362.952 98.9453 363.082 98.6001 363.342C98.255 363.602 97.9929 363.967 97.8139 364.435C97.6392 364.904 97.5518 365.456 97.5518 366.091ZM106.533 371V361.182H108.776V362.818H108.879C109.058 362.251 109.364 361.815 109.799 361.508C110.238 361.197 110.739 361.041 111.301 361.041C111.429 361.041 111.572 361.048 111.729 361.06C111.891 361.069 112.026 361.084 112.132 361.105V363.234C112.034 363.2 111.879 363.17 111.665 363.144C111.457 363.114 111.254 363.099 111.058 363.099C110.636 363.099 110.257 363.191 109.92 363.374C109.588 363.553 109.326 363.803 109.134 364.122C108.942 364.442 108.847 364.81 108.847 365.228V371H106.533ZM117.548 371.192C116.589 371.192 115.758 370.981 115.055 370.559C114.352 370.137 113.806 369.547 113.419 368.788C113.035 368.03 112.843 367.143 112.843 366.129C112.843 365.115 113.035 364.227 113.419 363.464C113.806 362.701 114.352 362.109 115.055 361.687C115.758 361.265 116.589 361.054 117.548 361.054C118.507 361.054 119.338 361.265 120.041 361.687C120.744 362.109 121.287 362.701 121.671 363.464C122.058 364.227 122.252 365.115 122.252 366.129C122.252 367.143 122.058 368.03 121.671 368.788C121.287 369.547 120.744 370.137 120.041 370.559C119.338 370.981 118.507 371.192 117.548 371.192ZM117.561 369.338C118.08 369.338 118.515 369.195 118.865 368.91C119.214 368.62 119.474 368.232 119.644 367.746C119.819 367.261 119.906 366.719 119.906 366.123C119.906 365.522 119.819 364.979 119.644 364.493C119.474 364.003 119.214 363.613 118.865 363.323C118.515 363.033 118.08 362.888 117.561 362.888C117.028 362.888 116.585 363.033 116.231 363.323C115.882 363.613 115.619 364.003 115.445 364.493C115.274 364.979 115.189 365.522 115.189 366.123C115.189 366.719 115.274 367.261 115.445 367.746C115.619 368.232 115.882 368.62 116.231 368.91C116.585 369.195 117.028 369.338 117.561 369.338ZM132.652 361.182L129.156 371H126.599L123.102 361.182H125.57L127.826 368.475H127.928L130.191 361.182H132.652ZM138.266 371.192C137.282 371.192 136.431 370.987 135.716 370.578C135.004 370.165 134.456 369.581 134.073 368.827C133.689 368.068 133.498 367.175 133.498 366.148C133.498 365.138 133.689 364.252 134.073 363.489C134.461 362.722 135.002 362.126 135.696 361.7C136.391 361.269 137.207 361.054 138.145 361.054C138.75 361.054 139.321 361.152 139.858 361.348C140.399 361.54 140.876 361.838 141.289 362.243C141.707 362.648 142.035 363.163 142.274 363.79C142.512 364.412 142.632 365.153 142.632 366.014V366.724H134.584V365.164H140.414C140.409 364.721 140.314 364.327 140.126 363.982C139.939 363.632 139.676 363.357 139.34 363.157C139.007 362.957 138.62 362.857 138.176 362.857C137.703 362.857 137.288 362.972 136.93 363.202C136.572 363.428 136.293 363.726 136.093 364.097C135.897 364.463 135.797 364.866 135.792 365.305V366.666C135.792 367.237 135.897 367.727 136.105 368.136C136.314 368.541 136.606 368.852 136.981 369.07C137.356 369.283 137.795 369.389 138.298 369.389C138.635 369.389 138.939 369.342 139.212 369.249C139.485 369.151 139.721 369.008 139.922 368.82C140.122 368.633 140.273 368.401 140.375 368.124L142.536 368.366C142.4 368.937 142.14 369.436 141.756 369.862C141.377 370.284 140.891 370.612 140.299 370.847C139.706 371.077 139.029 371.192 138.266 371.192ZM148.233 371.173C147.461 371.173 146.771 370.974 146.162 370.578C145.552 370.182 145.071 369.607 144.717 368.852C144.363 368.098 144.187 367.182 144.187 366.104C144.187 365.013 144.366 364.092 144.724 363.342C145.086 362.588 145.574 362.019 146.187 361.636C146.801 361.248 147.485 361.054 148.239 361.054C148.814 361.054 149.287 361.152 149.658 361.348C150.029 361.54 150.323 361.772 150.54 362.045C150.758 362.313 150.926 362.567 151.045 362.805H151.141V357.909H153.461V371H151.186V369.453H151.045C150.926 369.692 150.753 369.945 150.528 370.214C150.302 370.478 150.003 370.704 149.633 370.891C149.262 371.079 148.795 371.173 148.233 371.173ZM148.878 369.274C149.368 369.274 149.786 369.142 150.131 368.878C150.476 368.609 150.738 368.237 150.917 367.759C151.096 367.282 151.186 366.726 151.186 366.091C151.186 365.456 151.096 364.904 150.917 364.435C150.743 363.967 150.483 363.602 150.138 363.342C149.797 363.082 149.377 362.952 148.878 362.952C148.363 362.952 147.932 363.087 147.587 363.355C147.242 363.624 146.982 363.994 146.807 364.467C146.633 364.94 146.545 365.482 146.545 366.091C146.545 366.705 146.633 367.252 146.807 367.734C146.986 368.211 147.248 368.588 147.594 368.865C147.943 369.138 148.371 369.274 148.878 369.274ZM166.65 366.871V361.182H168.964V371H166.72V369.255H166.618C166.396 369.805 166.032 370.254 165.525 370.604C165.022 370.953 164.402 371.128 163.665 371.128C163.021 371.128 162.452 370.985 161.958 370.7C161.468 370.41 161.085 369.99 160.808 369.44C160.531 368.886 160.392 368.217 160.392 367.433V361.182H162.706V367.075C162.706 367.697 162.876 368.192 163.217 368.558C163.558 368.925 164.006 369.108 164.56 369.108C164.901 369.108 165.231 369.025 165.55 368.859C165.87 368.692 166.132 368.445 166.337 368.117C166.545 367.785 166.65 367.369 166.65 366.871ZM179.103 363.777L176.994 364.007C176.934 363.794 176.83 363.594 176.681 363.406C176.536 363.219 176.34 363.067 176.093 362.952C175.845 362.837 175.543 362.78 175.185 362.78C174.703 362.78 174.298 362.884 173.97 363.093C173.646 363.302 173.487 363.572 173.491 363.905C173.487 364.19 173.591 364.423 173.804 364.602C174.021 364.781 174.379 364.928 174.878 365.043L176.553 365.401C177.482 365.601 178.172 365.918 178.624 366.353C179.08 366.788 179.31 367.357 179.314 368.06C179.31 368.678 179.129 369.223 178.771 369.696C178.417 370.165 177.925 370.531 177.294 370.795C176.664 371.06 175.939 371.192 175.121 371.192C173.919 371.192 172.952 370.94 172.219 370.438C171.486 369.93 171.049 369.225 170.909 368.322L173.165 368.104C173.267 368.548 173.485 368.882 173.817 369.108C174.149 369.334 174.582 369.447 175.115 369.447C175.664 369.447 176.105 369.334 176.438 369.108C176.774 368.882 176.943 368.603 176.943 368.271C176.943 367.989 176.834 367.757 176.617 367.574C176.404 367.391 176.071 367.25 175.619 367.152L173.945 366.8C173.003 366.604 172.306 366.274 171.855 365.81C171.403 365.341 171.179 364.749 171.183 364.033C171.179 363.428 171.343 362.903 171.676 362.46C172.012 362.013 172.479 361.668 173.075 361.425C173.676 361.178 174.369 361.054 175.153 361.054C176.303 361.054 177.209 361.299 177.869 361.789C178.534 362.279 178.945 362.942 179.103 363.777ZM185.569 371.192C184.584 371.192 183.734 370.987 183.018 370.578C182.307 370.165 181.759 369.581 181.376 368.827C180.992 368.068 180.8 367.175 180.8 366.148C180.8 365.138 180.992 364.252 181.376 363.489C181.763 362.722 182.305 362.126 182.999 361.7C183.694 361.269 184.51 361.054 185.447 361.054C186.052 361.054 186.623 361.152 187.16 361.348C187.702 361.54 188.179 361.838 188.592 362.243C189.01 362.648 189.338 363.163 189.577 363.79C189.815 364.412 189.934 365.153 189.934 366.014V366.724H181.887V365.164H187.716C187.712 364.721 187.616 364.327 187.429 363.982C187.241 363.632 186.979 363.357 186.643 363.157C186.31 362.957 185.922 362.857 185.479 362.857C185.006 362.857 184.591 362.972 184.233 363.202C183.875 363.428 183.596 363.726 183.395 364.097C183.199 364.463 183.099 364.866 183.095 365.305V366.666C183.095 367.237 183.199 367.727 183.408 368.136C183.617 368.541 183.909 368.852 184.284 369.07C184.659 369.283 185.098 369.389 185.601 369.389C185.937 369.389 186.242 369.342 186.515 369.249C186.787 369.151 187.024 369.008 187.224 368.82C187.425 368.633 187.576 368.401 187.678 368.124L189.839 368.366C189.702 368.937 189.442 369.436 189.059 369.862C188.68 370.284 188.194 370.612 187.601 370.847C187.009 371.077 186.331 371.192 185.569 371.192ZM191.892 371V361.182H194.136V362.818H194.238C194.417 362.251 194.724 361.815 195.158 361.508C195.597 361.197 196.098 361.041 196.661 361.041C196.788 361.041 196.931 361.048 197.089 361.06C197.251 361.069 197.385 361.084 197.491 361.105V363.234C197.393 363.2 197.238 363.17 197.025 363.144C196.816 363.114 196.614 363.099 196.418 363.099C195.996 363.099 195.616 363.191 195.28 363.374C194.947 363.553 194.685 363.803 194.494 364.122C194.302 364.442 194.206 364.81 194.206 365.228V371H191.892ZM78.5355 393.192C77.5511 393.192 76.701 392.987 75.9851 392.578C75.2734 392.165 74.7259 391.581 74.3423 390.827C73.9588 390.068 73.767 389.175 73.767 388.148C73.767 387.138 73.9588 386.252 74.3423 385.489C74.7301 384.722 75.2713 384.126 75.9659 383.7C76.6605 383.269 77.4766 383.054 78.4141 383.054C79.0192 383.054 79.5902 383.152 80.1271 383.348C80.6683 383.54 81.1456 383.838 81.5589 384.243C81.9766 384.648 82.3047 385.163 82.5433 385.79C82.782 386.412 82.9013 387.153 82.9013 388.014V388.724H74.8537V387.164H80.6832C80.679 386.721 80.5831 386.327 80.3956 385.982C80.2081 385.632 79.946 385.357 79.6094 385.157C79.277 384.957 78.8892 384.857 78.446 384.857C77.973 384.857 77.5575 384.972 77.1996 385.202C76.8416 385.428 76.5625 385.726 76.3622 386.097C76.1662 386.463 76.0661 386.866 76.0618 387.305V388.666C76.0618 389.237 76.1662 389.727 76.375 390.136C76.5838 390.541 76.8757 390.852 77.2507 391.07C77.6257 391.283 78.0646 391.389 78.5675 391.389C78.9041 391.389 79.2088 391.342 79.4815 391.249C79.7543 391.151 79.9908 391.008 80.1911 390.82C80.3913 390.633 80.5426 390.401 80.6449 390.124L82.8054 390.366C82.669 390.937 82.4091 391.436 82.0256 391.862C81.6463 392.284 81.1605 392.612 80.5682 392.847C79.9759 393.077 79.2983 393.192 78.5355 393.192ZM86.54 383.182L88.5215 386.806L90.535 383.182H92.9831L90.0236 388.091L93.0343 393H90.5989L88.5215 389.465L86.4632 393H84.0087L87.0002 388.091L84.0854 383.182H86.54ZM94.7729 396.682V383.182H97.0485V384.805H97.1827C97.302 384.567 97.4703 384.313 97.6877 384.045C97.905 383.772 98.199 383.54 98.5698 383.348C98.9405 383.152 99.4135 383.054 99.9888 383.054C100.747 383.054 101.431 383.248 102.041 383.636C102.654 384.019 103.14 384.588 103.498 385.342C103.86 386.092 104.041 387.013 104.041 388.104C104.041 389.182 103.865 390.098 103.511 390.852C103.157 391.607 102.676 392.182 102.066 392.578C101.457 392.974 100.767 393.173 99.9952 393.173C99.4327 393.173 98.9661 393.079 98.5953 392.891C98.2246 392.704 97.9263 392.478 97.7005 392.214C97.4789 391.945 97.3063 391.692 97.1827 391.453H97.0868V396.682H94.7729ZM97.0421 388.091C97.0421 388.726 97.1316 389.282 97.3105 389.759C97.4938 390.237 97.7559 390.609 98.0968 390.878C98.4419 391.142 98.8596 391.274 99.3496 391.274C99.861 391.274 100.289 391.138 100.634 390.865C100.98 390.588 101.24 390.211 101.414 389.734C101.593 389.252 101.683 388.705 101.683 388.091C101.683 387.482 101.595 386.94 101.421 386.467C101.246 385.994 100.986 385.624 100.641 385.355C100.296 385.087 99.8652 384.952 99.3496 384.952C98.8553 384.952 98.4355 385.082 98.0904 385.342C97.7452 385.602 97.4831 385.967 97.3042 386.435C97.1294 386.904 97.0421 387.456 97.0421 388.091ZM110.369 393.192C109.385 393.192 108.535 392.987 107.819 392.578C107.107 392.165 106.56 391.581 106.176 390.827C105.793 390.068 105.601 389.175 105.601 388.148C105.601 387.138 105.793 386.252 106.176 385.489C106.564 384.722 107.105 384.126 107.8 383.7C108.494 383.269 109.311 383.054 110.248 383.054C110.853 383.054 111.424 383.152 111.961 383.348C112.502 383.54 112.98 383.838 113.393 384.243C113.811 384.648 114.139 385.163 114.377 385.79C114.616 386.412 114.735 387.153 114.735 388.014V388.724H106.688V387.164H112.517C112.513 386.721 112.417 386.327 112.23 385.982C112.042 385.632 111.78 385.357 111.443 385.157C111.111 384.957 110.723 384.857 110.28 384.857C109.807 384.857 109.392 384.972 109.034 385.202C108.676 385.428 108.396 385.726 108.196 386.097C108 386.463 107.9 386.866 107.896 387.305V388.666C107.896 389.237 108 389.727 108.209 390.136C108.418 390.541 108.71 390.852 109.085 391.07C109.46 391.283 109.899 391.389 110.401 391.389C110.738 391.389 111.043 391.342 111.316 391.249C111.588 391.151 111.825 391.008 112.025 390.82C112.225 390.633 112.377 390.401 112.479 390.124L114.639 390.366C114.503 390.937 114.243 391.436 113.86 391.862C113.48 392.284 112.994 392.612 112.402 392.847C111.81 393.077 111.132 393.192 110.369 393.192ZM116.693 393V383.182H118.936V384.818H119.039C119.218 384.251 119.525 383.815 119.959 383.508C120.398 383.197 120.899 383.041 121.461 383.041C121.589 383.041 121.732 383.048 121.89 383.06C122.051 383.069 122.186 383.084 122.292 383.105V385.234C122.194 385.2 122.039 385.17 121.826 385.144C121.617 385.114 121.414 385.099 121.218 385.099C120.797 385.099 120.417 385.191 120.081 385.374C119.748 385.553 119.486 385.803 119.294 386.122C119.103 386.442 119.007 386.81 119.007 387.228V393H116.693ZM123.83 393V383.182H126.143V393H123.83ZM124.993 381.788C124.626 381.788 124.311 381.667 124.047 381.424C123.783 381.177 123.651 380.881 123.651 380.536C123.651 380.186 123.783 379.89 124.047 379.647C124.311 379.4 124.626 379.276 124.993 379.276C125.364 379.276 125.679 379.4 125.939 379.647C126.203 379.89 126.335 380.186 126.335 380.536C126.335 380.881 126.203 381.177 125.939 381.424C125.679 381.667 125.364 381.788 124.993 381.788ZM132.869 393.192C131.885 393.192 131.035 392.987 130.319 392.578C129.607 392.165 129.06 391.581 128.676 390.827C128.293 390.068 128.101 389.175 128.101 388.148C128.101 387.138 128.293 386.252 128.676 385.489C129.064 384.722 129.605 384.126 130.3 383.7C130.994 383.269 131.811 383.054 132.748 383.054C133.353 383.054 133.924 383.152 134.461 383.348C135.002 383.54 135.48 383.838 135.893 384.243C136.311 384.648 136.639 385.163 136.877 385.79C137.116 386.412 137.235 387.153 137.235 388.014V388.724H129.188V387.164H135.017C135.013 386.721 134.917 386.327 134.73 385.982C134.542 385.632 134.28 385.357 133.943 385.157C133.611 384.957 133.223 384.857 132.78 384.857C132.307 384.857 131.892 384.972 131.534 385.202C131.176 385.428 130.896 385.726 130.696 386.097C130.5 386.463 130.4 386.866 130.396 387.305V388.666C130.396 389.237 130.5 389.727 130.709 390.136C130.918 390.541 131.21 390.852 131.585 391.07C131.96 391.283 132.399 391.389 132.901 391.389C133.238 391.389 133.543 391.342 133.816 391.249C134.088 391.151 134.325 391.008 134.525 390.82C134.725 390.633 134.877 390.401 134.979 390.124L137.139 390.366C137.003 390.937 136.743 391.436 136.36 391.862C135.98 392.284 135.494 392.612 134.902 392.847C134.31 393.077 133.632 393.192 132.869 393.192ZM141.507 387.247V393H139.193V383.182H141.404V384.85H141.52C141.745 384.3 142.105 383.864 142.6 383.54C143.098 383.216 143.714 383.054 144.447 383.054C145.125 383.054 145.715 383.199 146.218 383.489C146.725 383.778 147.117 384.198 147.394 384.748C147.675 385.298 147.814 385.964 147.809 386.749V393H145.495V387.107C145.495 386.45 145.325 385.937 144.984 385.566C144.647 385.195 144.181 385.01 143.584 385.01C143.179 385.01 142.819 385.099 142.504 385.278C142.193 385.453 141.948 385.707 141.769 386.039C141.594 386.371 141.507 386.774 141.507 387.247ZM154.444 393.192C153.464 393.192 152.623 392.977 151.919 392.546C151.221 392.116 150.681 391.521 150.302 390.763C149.927 390 149.74 389.122 149.74 388.129C149.74 387.132 149.931 386.252 150.315 385.489C150.699 384.722 151.24 384.126 151.939 383.7C152.642 383.269 153.473 383.054 154.431 383.054C155.228 383.054 155.934 383.201 156.547 383.495C157.165 383.785 157.657 384.196 158.024 384.729C158.39 385.257 158.599 385.875 158.65 386.582H156.439C156.349 386.109 156.136 385.715 155.799 385.4C155.467 385.08 155.022 384.92 154.463 384.92C153.99 384.92 153.575 385.048 153.217 385.304C152.859 385.555 152.58 385.918 152.38 386.391C152.184 386.864 152.086 387.43 152.086 388.091C152.086 388.76 152.184 389.335 152.38 389.817C152.576 390.294 152.85 390.663 153.204 390.923C153.562 391.178 153.982 391.306 154.463 391.306C154.804 391.306 155.109 391.242 155.377 391.114C155.65 390.982 155.878 390.793 156.061 390.545C156.245 390.298 156.37 389.998 156.439 389.644H158.65C158.595 390.339 158.39 390.955 158.037 391.491C157.683 392.024 157.201 392.442 156.592 392.744C155.983 393.043 155.267 393.192 154.444 393.192ZM164.897 393.192C163.912 393.192 163.062 392.987 162.346 392.578C161.635 392.165 161.087 391.581 160.704 390.827C160.32 390.068 160.128 389.175 160.128 388.148C160.128 387.138 160.32 386.252 160.704 385.489C161.091 384.722 161.633 384.126 162.327 383.7C163.022 383.269 163.838 383.054 164.775 383.054C165.381 383.054 165.952 383.152 166.488 383.348C167.03 383.54 167.507 383.838 167.92 384.243C168.338 384.648 168.666 385.163 168.905 385.79C169.143 386.412 169.263 387.153 169.263 388.014V388.724H161.215V387.164H167.045C167.04 386.721 166.944 386.327 166.757 385.982C166.569 385.632 166.307 385.357 165.971 385.157C165.638 384.957 165.251 384.857 164.807 384.857C164.334 384.857 163.919 384.972 163.561 385.202C163.203 385.428 162.924 385.726 162.724 386.097C162.528 386.463 162.427 386.866 162.423 387.305V388.666C162.423 389.237 162.528 389.727 162.736 390.136C162.945 390.541 163.237 390.852 163.612 391.07C163.987 391.283 164.426 391.389 164.929 391.389C165.265 391.389 165.57 391.342 165.843 391.249C166.116 391.151 166.352 391.008 166.552 390.82C166.753 390.633 166.904 390.401 167.006 390.124L169.167 390.366C169.03 390.937 168.77 391.436 168.387 391.862C168.008 392.284 167.522 392.612 166.93 392.847C166.337 393.077 165.66 393.192 164.897 393.192Z" fill="#7D7D7E"/>
<rect x="284" y="131" width="152" height="115" rx="12" fill="white"/>
<path d="M295.291 184V170.909H300.303C301.249 170.909 302.035 171.058 302.661 171.357C303.292 171.651 303.763 172.053 304.074 172.565C304.389 173.076 304.547 173.656 304.547 174.303C304.547 174.836 304.445 175.292 304.24 175.671C304.036 176.046 303.761 176.351 303.415 176.585C303.07 176.82 302.685 176.988 302.259 177.09V177.218C302.723 177.244 303.168 177.386 303.594 177.646C304.025 177.902 304.376 178.264 304.649 178.733C304.922 179.202 305.058 179.768 305.058 180.433C305.058 181.111 304.894 181.72 304.566 182.261C304.238 182.798 303.744 183.222 303.083 183.533C302.423 183.844 301.592 184 300.59 184H295.291ZM297.663 182.018H300.213C301.074 182.018 301.694 181.854 302.073 181.526C302.457 181.194 302.648 180.768 302.648 180.248C302.648 179.86 302.553 179.511 302.361 179.2C302.169 178.884 301.896 178.637 301.543 178.458C301.189 178.275 300.767 178.183 300.277 178.183H297.663V182.018ZM297.663 176.477H300.009C300.418 176.477 300.786 176.402 301.114 176.253C301.442 176.099 301.7 175.884 301.888 175.607C302.08 175.326 302.175 174.994 302.175 174.61C302.175 174.103 301.996 173.685 301.638 173.357C301.285 173.029 300.759 172.865 300.06 172.865H297.663V176.477ZM311.366 184.192C310.381 184.192 309.531 183.987 308.815 183.578C308.104 183.165 307.556 182.581 307.172 181.827C306.789 181.068 306.597 180.175 306.597 179.148C306.597 178.138 306.789 177.252 307.172 176.489C307.56 175.722 308.101 175.126 308.796 174.7C309.491 174.269 310.307 174.054 311.244 174.054C311.849 174.054 312.42 174.152 312.957 174.348C313.498 174.54 313.976 174.838 314.389 175.243C314.807 175.648 315.135 176.163 315.373 176.79C315.612 177.412 315.731 178.153 315.731 179.014V179.724H307.684V178.164H313.513C313.509 177.721 313.413 177.327 313.226 176.982C313.038 176.632 312.776 176.357 312.439 176.157C312.107 175.957 311.719 175.857 311.276 175.857C310.803 175.857 310.388 175.972 310.03 176.202C309.672 176.428 309.393 176.726 309.192 177.097C308.996 177.463 308.896 177.866 308.892 178.305V179.666C308.892 180.237 308.996 180.727 309.205 181.136C309.414 181.541 309.706 181.852 310.081 182.07C310.456 182.283 310.895 182.389 311.398 182.389C311.734 182.389 312.039 182.342 312.312 182.249C312.584 182.151 312.821 182.008 313.021 181.82C313.221 181.633 313.373 181.401 313.475 181.124L315.635 181.366C315.499 181.937 315.239 182.436 314.856 182.862C314.476 183.284 313.991 183.612 313.398 183.847C312.806 184.077 312.128 184.192 311.366 184.192ZM322.592 174.182V175.972H316.947V174.182H322.592ZM318.341 171.83H320.655V181.047C320.655 181.358 320.702 181.597 320.795 181.763C320.893 181.925 321.021 182.036 321.179 182.095C321.337 182.155 321.511 182.185 321.703 182.185C321.848 182.185 321.98 182.174 322.099 182.153C322.223 182.131 322.317 182.112 322.381 182.095L322.771 183.904C322.647 183.947 322.47 183.994 322.24 184.045C322.014 184.096 321.737 184.126 321.409 184.134C320.83 184.151 320.308 184.064 319.843 183.872C319.379 183.676 319.01 183.374 318.737 182.964C318.469 182.555 318.337 182.044 318.341 181.43V171.83ZM329.43 174.182V175.972H323.785V174.182H329.43ZM325.179 171.83H327.493V181.047C327.493 181.358 327.54 181.597 327.633 181.763C327.731 181.925 327.859 182.036 328.017 182.095C328.175 182.155 328.349 182.185 328.541 182.185C328.686 182.185 328.818 182.174 328.937 182.153C329.061 182.131 329.155 182.112 329.219 182.095L329.608 183.904C329.485 183.947 329.308 183.994 329.078 184.045C328.852 184.096 328.575 184.126 328.247 184.134C327.667 184.151 327.145 184.064 326.681 183.872C326.216 183.676 325.848 183.374 325.575 182.964C325.307 182.555 325.175 182.044 325.179 181.43V171.83ZM335.606 184.192C334.621 184.192 333.771 183.987 333.055 183.578C332.344 183.165 331.796 182.581 331.413 181.827C331.029 181.068 330.837 180.175 330.837 179.148C330.837 178.138 331.029 177.252 331.413 176.489C331.8 175.722 332.342 175.126 333.036 174.7C333.731 174.269 334.547 174.054 335.484 174.054C336.089 174.054 336.661 174.152 337.197 174.348C337.739 174.54 338.216 174.838 338.629 175.243C339.047 175.648 339.375 176.163 339.614 176.79C339.852 177.412 339.972 178.153 339.972 179.014V179.724H331.924V178.164H337.754C337.749 177.721 337.653 177.327 337.466 176.982C337.278 176.632 337.016 176.357 336.68 176.157C336.347 175.957 335.96 175.857 335.516 175.857C335.043 175.857 334.628 175.972 334.27 176.202C333.912 176.428 333.633 176.726 333.433 177.097C333.237 177.463 333.136 177.866 333.132 178.305V179.666C333.132 180.237 333.237 180.727 333.445 181.136C333.654 181.541 333.946 181.852 334.321 182.07C334.696 182.283 335.135 182.389 335.638 182.389C335.974 182.389 336.279 182.342 336.552 182.249C336.825 182.151 337.061 182.008 337.261 181.82C337.462 181.633 337.613 181.401 337.715 181.124L339.876 181.366C339.739 181.937 339.479 182.436 339.096 182.862C338.717 183.284 338.231 183.612 337.638 183.847C337.046 184.077 336.369 184.192 335.606 184.192ZM341.929 184V174.182H344.173V175.818H344.275C344.454 175.251 344.761 174.815 345.195 174.508C345.634 174.197 346.135 174.041 346.698 174.041C346.825 174.041 346.968 174.048 347.126 174.06C347.288 174.069 347.422 174.084 347.529 174.105V176.234C347.431 176.2 347.275 176.17 347.062 176.144C346.853 176.114 346.651 176.099 346.455 176.099C346.033 176.099 345.654 176.191 345.317 176.374C344.985 176.553 344.722 176.803 344.531 177.122C344.339 177.442 344.243 177.81 344.243 178.228V184H341.929ZM358.433 174.182V175.972H352.789V174.182H358.433ZM354.183 171.83H356.497V181.047C356.497 181.358 356.544 181.597 356.637 181.763C356.735 181.925 356.863 182.036 357.021 182.095C357.178 182.155 357.353 182.185 357.545 182.185C357.69 182.185 357.822 182.174 357.941 182.153C358.065 182.131 358.159 182.112 358.222 182.095L358.612 183.904C358.489 183.947 358.312 183.994 358.082 184.045C357.856 184.096 357.579 184.126 357.251 184.134C356.671 184.151 356.149 184.064 355.685 183.872C355.22 183.676 354.852 183.374 354.579 182.964C354.311 182.555 354.178 182.044 354.183 181.43V171.83ZM360.369 184V174.182H362.612V175.818H362.714C362.893 175.251 363.2 174.815 363.635 174.508C364.074 174.197 364.575 174.041 365.137 174.041C365.265 174.041 365.408 174.048 365.565 174.06C365.727 174.069 365.862 174.084 365.968 174.105V176.234C365.87 176.2 365.714 176.17 365.501 176.144C365.293 176.114 365.09 176.099 364.894 176.099C364.472 176.099 364.093 176.191 363.756 176.374C363.424 176.553 363.162 176.803 362.97 177.122C362.778 177.442 362.683 177.81 362.683 178.228V184H360.369ZM370.155 184.198C369.533 184.198 368.972 184.087 368.474 183.866C367.979 183.64 367.587 183.308 367.298 182.869C367.012 182.43 366.869 181.888 366.869 181.245C366.869 180.691 366.972 180.233 367.176 179.871C367.381 179.509 367.66 179.219 368.013 179.001C368.367 178.784 368.766 178.62 369.209 178.509C369.656 178.394 370.119 178.311 370.596 178.26C371.171 178.2 371.638 178.147 371.996 178.1C372.354 178.049 372.614 177.972 372.776 177.87C372.942 177.763 373.025 177.599 373.025 177.378V177.339C373.025 176.858 372.882 176.485 372.597 176.221C372.311 175.957 371.9 175.825 371.363 175.825C370.796 175.825 370.347 175.948 370.014 176.195C369.686 176.442 369.464 176.734 369.349 177.071L367.189 176.764C367.359 176.168 367.641 175.669 368.033 175.268C368.425 174.864 368.904 174.561 369.471 174.361C370.038 174.156 370.664 174.054 371.35 174.054C371.823 174.054 372.294 174.109 372.763 174.22C373.232 174.331 373.66 174.514 374.048 174.77C374.435 175.021 374.746 175.364 374.981 175.799C375.219 176.234 375.339 176.777 375.339 177.429V184H373.114V182.651H373.038C372.897 182.924 372.699 183.18 372.443 183.418C372.192 183.653 371.874 183.842 371.491 183.987C371.112 184.128 370.666 184.198 370.155 184.198ZM370.756 182.498C371.22 182.498 371.623 182.406 371.964 182.223C372.305 182.036 372.567 181.788 372.75 181.482C372.938 181.175 373.031 180.84 373.031 180.478V179.321C372.959 179.381 372.835 179.436 372.661 179.487C372.49 179.538 372.298 179.583 372.085 179.621C371.872 179.66 371.661 179.694 371.452 179.724C371.244 179.754 371.063 179.779 370.909 179.8C370.564 179.847 370.255 179.924 369.982 180.031C369.71 180.137 369.494 180.286 369.337 180.478C369.179 180.665 369.1 180.908 369.1 181.207C369.1 181.633 369.256 181.955 369.567 182.172C369.878 182.389 370.274 182.498 370.756 182.498ZM381.948 184.192C380.968 184.192 380.126 183.977 379.423 183.546C378.724 183.116 378.185 182.521 377.806 181.763C377.431 181 377.244 180.122 377.244 179.129C377.244 178.132 377.435 177.252 377.819 176.489C378.202 175.722 378.744 175.126 379.442 174.7C380.146 174.269 380.977 174.054 381.935 174.054C382.732 174.054 383.438 174.201 384.051 174.495C384.669 174.785 385.161 175.196 385.528 175.729C385.894 176.257 386.103 176.875 386.154 177.582H383.942C383.853 177.109 383.64 176.715 383.303 176.4C382.971 176.08 382.526 175.92 381.967 175.92C381.494 175.92 381.079 176.048 380.721 176.304C380.363 176.555 380.084 176.918 379.884 177.391C379.688 177.864 379.589 178.43 379.589 179.091C379.589 179.76 379.688 180.335 379.884 180.817C380.08 181.294 380.354 181.663 380.708 181.923C381.066 182.178 381.486 182.306 381.967 182.306C382.308 182.306 382.613 182.242 382.881 182.114C383.154 181.982 383.382 181.793 383.565 181.545C383.749 181.298 383.874 180.998 383.942 180.644H386.154C386.099 181.339 385.894 181.955 385.54 182.491C385.187 183.024 384.705 183.442 384.096 183.744C383.487 184.043 382.771 184.192 381.948 184.192ZM390.164 180.919L390.157 178.126H390.528L394.056 174.182H396.76L392.42 179.014H391.941L390.164 180.919ZM388.054 184V170.909H390.368V184H388.054ZM394.216 184L391.02 179.532L392.58 177.902L396.984 184H394.216ZM398.302 184V174.182H400.616V184H398.302ZM399.466 172.788C399.099 172.788 398.784 172.667 398.52 172.424C398.255 172.177 398.123 171.881 398.123 171.536C398.123 171.186 398.255 170.89 398.52 170.647C398.784 170.4 399.099 170.276 399.466 170.276C399.836 170.276 400.152 170.4 400.412 170.647C400.676 170.89 400.808 171.186 400.808 171.536C400.808 171.881 400.676 172.177 400.412 172.424C400.152 172.667 399.836 172.788 399.466 172.788ZM405.309 178.247V184H402.996V174.182H405.207V175.85H405.322C405.548 175.3 405.908 174.864 406.403 174.54C406.901 174.216 407.517 174.054 408.25 174.054C408.927 174.054 409.518 174.199 410.02 174.489C410.528 174.778 410.92 175.198 411.197 175.748C411.478 176.298 411.616 176.964 411.612 177.749V184H409.298V178.107C409.298 177.45 409.128 176.937 408.787 176.566C408.45 176.195 407.983 176.01 407.387 176.01C406.982 176.01 406.622 176.099 406.307 176.278C405.996 176.453 405.751 176.707 405.572 177.039C405.397 177.371 405.309 177.774 405.309 178.247ZM418.234 187.886C417.403 187.886 416.689 187.773 416.093 187.548C415.496 187.326 415.017 187.028 414.655 186.653C414.292 186.278 414.041 185.862 413.9 185.406L415.984 184.901C416.078 185.093 416.214 185.283 416.393 185.47C416.572 185.662 416.813 185.82 417.116 185.943C417.422 186.071 417.808 186.135 418.273 186.135C418.929 186.135 419.472 185.975 419.903 185.656C420.333 185.34 420.548 184.82 420.548 184.096V182.236H420.433C420.314 182.474 420.139 182.719 419.909 182.971C419.683 183.222 419.383 183.433 419.008 183.604C418.637 183.774 418.17 183.859 417.608 183.859C416.854 183.859 416.17 183.683 415.556 183.329C414.947 182.971 414.461 182.438 414.099 181.731C413.741 181.019 413.562 180.129 413.562 179.059C413.562 177.981 413.741 177.071 414.099 176.33C414.461 175.584 414.949 175.019 415.562 174.636C416.176 174.248 416.86 174.054 417.614 174.054C418.189 174.054 418.662 174.152 419.033 174.348C419.408 174.54 419.706 174.772 419.928 175.045C420.15 175.313 420.318 175.567 420.433 175.805H420.561V174.182H422.843V184.16C422.843 184.999 422.643 185.694 422.242 186.244C421.841 186.793 421.294 187.205 420.599 187.477C419.905 187.75 419.116 187.886 418.234 187.886ZM418.253 182.044C418.743 182.044 419.161 181.925 419.506 181.686C419.851 181.447 420.113 181.104 420.292 180.657C420.471 180.21 420.561 179.673 420.561 179.046C420.561 178.428 420.471 177.887 420.292 177.423C420.118 176.958 419.858 176.598 419.513 176.342C419.172 176.082 418.752 175.952 418.253 175.952C417.738 175.952 417.307 176.087 416.962 176.355C416.617 176.624 416.357 176.992 416.182 177.461C416.008 177.925 415.92 178.454 415.92 179.046C415.92 179.647 416.008 180.173 416.182 180.625C416.361 181.072 416.623 181.422 416.969 181.673C417.318 181.92 417.746 182.044 418.253 182.044ZM299.101 206.192C298.206 206.192 297.437 206.03 296.793 205.706C296.15 205.382 295.653 204.945 295.304 204.396C294.959 203.842 294.786 203.217 294.786 202.523C294.786 201.999 294.893 201.534 295.106 201.129C295.323 200.724 295.621 200.349 296.001 200.004C296.384 199.659 296.827 199.316 297.33 198.975L299.651 197.396C299.991 197.175 300.249 196.94 300.424 196.693C300.603 196.446 300.692 196.156 300.692 195.824C300.692 195.543 300.573 195.276 300.335 195.025C300.1 194.773 299.776 194.648 299.363 194.648C299.086 194.648 298.841 194.714 298.628 194.846C298.419 194.974 298.255 195.142 298.136 195.351C298.021 195.56 297.963 195.781 297.963 196.016C297.963 196.301 298.042 196.591 298.2 196.885C298.362 197.179 298.57 197.484 298.826 197.799C299.086 198.114 299.363 198.449 299.657 198.803L305.8 206H303.294L298.193 200.158C297.814 199.714 297.447 199.278 297.094 198.847C296.744 198.417 296.457 197.969 296.231 197.505C296.009 197.036 295.898 196.529 295.898 195.984C295.898 195.366 296.041 194.814 296.327 194.328C296.612 193.838 297.011 193.452 297.522 193.171C298.038 192.89 298.641 192.749 299.331 192.749C300.021 192.749 300.614 192.886 301.108 193.158C301.602 193.431 301.984 193.793 302.252 194.245C302.521 194.697 302.655 195.189 302.655 195.722C302.655 196.339 302.501 196.893 302.195 197.384C301.888 197.869 301.462 198.31 300.916 198.707L298.27 200.643C297.835 200.959 297.524 201.278 297.337 201.602C297.149 201.922 297.055 202.195 297.055 202.42C297.055 202.766 297.143 203.079 297.317 203.36C297.492 203.641 297.737 203.867 298.053 204.038C298.372 204.204 298.745 204.287 299.171 204.287C299.64 204.287 300.102 204.183 300.558 203.974C301.014 203.761 301.43 203.458 301.805 203.066C302.18 202.674 302.478 202.205 302.7 201.66C302.921 201.11 303.032 200.501 303.032 199.832H305.02C305.02 200.658 304.928 201.379 304.745 201.992C304.562 202.602 304.325 203.117 304.036 203.539C303.746 203.957 303.439 204.291 303.115 204.543C303.013 204.615 302.915 204.688 302.821 204.76C302.727 204.832 302.629 204.905 302.527 204.977C302.067 205.395 301.528 205.702 300.91 205.898C300.296 206.094 299.693 206.192 299.101 206.192ZM314.415 206.198C313.792 206.198 313.232 206.087 312.733 205.866C312.239 205.64 311.847 205.308 311.557 204.869C311.272 204.43 311.129 203.888 311.129 203.245C311.129 202.691 311.231 202.233 311.436 201.871C311.64 201.509 311.92 201.219 312.273 201.001C312.627 200.784 313.025 200.62 313.469 200.509C313.916 200.394 314.378 200.311 314.856 200.26C315.431 200.2 315.898 200.147 316.256 200.1C316.613 200.049 316.873 199.972 317.035 199.87C317.202 199.763 317.285 199.599 317.285 199.378V199.339C317.285 198.858 317.142 198.485 316.856 198.221C316.571 197.957 316.16 197.825 315.623 197.825C315.056 197.825 314.606 197.948 314.274 198.195C313.946 198.442 313.724 198.734 313.609 199.071L311.449 198.764C311.619 198.168 311.9 197.669 312.292 197.268C312.684 196.864 313.164 196.561 313.731 196.361C314.297 196.156 314.924 196.054 315.61 196.054C316.083 196.054 316.554 196.109 317.023 196.22C317.491 196.331 317.92 196.514 318.307 196.77C318.695 197.021 319.006 197.364 319.241 197.799C319.479 198.234 319.599 198.777 319.599 199.429V206H317.374V204.651H317.297C317.157 204.924 316.959 205.18 316.703 205.418C316.452 205.653 316.134 205.842 315.751 205.987C315.371 206.128 314.926 206.198 314.415 206.198ZM315.015 204.498C315.48 204.498 315.883 204.406 316.224 204.223C316.564 204.036 316.827 203.788 317.01 203.482C317.197 203.175 317.291 202.84 317.291 202.478V201.321C317.219 201.381 317.095 201.436 316.92 201.487C316.75 201.538 316.558 201.583 316.345 201.621C316.132 201.66 315.921 201.694 315.712 201.724C315.503 201.754 315.322 201.779 315.169 201.8C314.824 201.847 314.515 201.924 314.242 202.031C313.969 202.137 313.754 202.286 313.596 202.478C313.439 202.665 313.36 202.908 313.36 203.207C313.36 203.633 313.515 203.955 313.827 204.172C314.138 204.389 314.534 204.498 315.015 204.498ZM324.239 200.247V206H321.925V196.182H324.137V197.85H324.252C324.478 197.3 324.838 196.864 325.332 196.54C325.831 196.216 326.447 196.054 327.18 196.054C327.857 196.054 328.447 196.199 328.95 196.489C329.457 196.778 329.849 197.198 330.126 197.748C330.407 198.298 330.546 198.964 330.542 199.749V206H328.228V200.107C328.228 199.45 328.057 198.937 327.716 198.566C327.38 198.195 326.913 198.01 326.317 198.01C325.912 198.01 325.552 198.099 325.236 198.278C324.925 198.453 324.68 198.707 324.501 199.039C324.327 199.371 324.239 199.774 324.239 200.247ZM335.719 206.198C335.097 206.198 334.537 206.087 334.038 205.866C333.544 205.64 333.152 205.308 332.862 204.869C332.577 204.43 332.434 203.888 332.434 203.245C332.434 202.691 332.536 202.233 332.741 201.871C332.945 201.509 333.224 201.219 333.578 201.001C333.932 200.784 334.33 200.62 334.773 200.509C335.221 200.394 335.683 200.311 336.16 200.26C336.736 200.2 337.202 200.147 337.56 200.1C337.918 200.049 338.178 199.972 338.34 199.87C338.506 199.763 338.589 199.599 338.589 199.378V199.339C338.589 198.858 338.447 198.485 338.161 198.221C337.876 197.957 337.464 197.825 336.927 197.825C336.361 197.825 335.911 197.948 335.579 198.195C335.251 198.442 335.029 198.734 334.914 199.071L332.753 198.764C332.924 198.168 333.205 197.669 333.597 197.268C333.989 196.864 334.469 196.561 335.035 196.361C335.602 196.156 336.229 196.054 336.915 196.054C337.388 196.054 337.858 196.109 338.327 196.22C338.796 196.331 339.224 196.514 339.612 196.77C340 197.021 340.311 197.364 340.545 197.799C340.784 198.234 340.903 198.777 340.903 199.429V206H338.679V204.651H338.602C338.461 204.924 338.263 205.18 338.008 205.418C337.756 205.653 337.439 205.842 337.055 205.987C336.676 206.128 336.231 206.198 335.719 206.198ZM336.32 204.498C336.785 204.498 337.187 204.406 337.528 204.223C337.869 204.036 338.131 203.788 338.314 203.482C338.502 203.175 338.596 202.84 338.596 202.478V201.321C338.523 201.381 338.4 201.436 338.225 201.487C338.055 201.538 337.863 201.583 337.65 201.621C337.437 201.66 337.226 201.694 337.017 201.724C336.808 201.754 336.627 201.779 336.474 201.8C336.128 201.847 335.819 201.924 335.547 202.031C335.274 202.137 335.059 202.286 334.901 202.478C334.743 202.665 334.665 202.908 334.665 203.207C334.665 203.633 334.82 203.955 335.131 204.172C335.442 204.389 335.839 204.498 336.32 204.498ZM345.544 192.909V206H343.23V192.909H345.544ZM349.362 209.682C349.046 209.682 348.754 209.656 348.486 209.605C348.222 209.558 348.011 209.503 347.853 209.439L348.39 207.636C348.727 207.734 349.027 207.781 349.291 207.777C349.555 207.773 349.788 207.69 349.988 207.528C350.192 207.37 350.365 207.106 350.506 206.735L350.704 206.205L347.143 196.182H349.598L351.861 203.597H351.963L354.232 196.182H356.693L352.762 207.189C352.579 207.709 352.336 208.154 352.033 208.525C351.731 208.9 351.36 209.185 350.921 209.381C350.487 209.582 349.967 209.682 349.362 209.682ZM363.197 196.182V197.972H357.553V196.182H363.197ZM358.946 193.83H361.26V203.047C361.26 203.358 361.307 203.597 361.401 203.763C361.499 203.925 361.627 204.036 361.784 204.095C361.942 204.155 362.117 204.185 362.309 204.185C362.453 204.185 362.586 204.174 362.705 204.153C362.828 204.131 362.922 204.112 362.986 204.095L363.376 205.904C363.252 205.947 363.076 205.994 362.846 206.045C362.62 206.096 362.343 206.126 362.015 206.134C361.435 206.151 360.913 206.064 360.449 205.872C359.984 205.676 359.615 205.374 359.343 204.964C359.074 204.555 358.942 204.044 358.946 203.43V193.83ZM365.132 206V196.182H367.446V206H365.132ZM366.296 194.788C365.929 194.788 365.614 194.667 365.35 194.424C365.085 194.177 364.953 193.881 364.953 193.536C364.953 193.186 365.085 192.89 365.35 192.647C365.614 192.4 365.929 192.276 366.296 192.276C366.666 192.276 366.982 192.4 367.242 192.647C367.506 192.89 367.638 193.186 367.638 193.536C367.638 193.881 367.506 194.177 367.242 194.424C366.982 194.667 366.666 194.788 366.296 194.788ZM374.108 206.192C373.128 206.192 372.287 205.977 371.583 205.546C370.885 205.116 370.346 204.521 369.966 203.763C369.591 203 369.404 202.122 369.404 201.129C369.404 200.132 369.596 199.252 369.979 198.489C370.363 197.722 370.904 197.126 371.603 196.7C372.306 196.269 373.137 196.054 374.096 196.054C374.892 196.054 375.598 196.201 376.211 196.495C376.829 196.785 377.321 197.196 377.688 197.729C378.054 198.257 378.263 198.875 378.314 199.582H376.103C376.013 199.109 375.8 198.715 375.463 198.4C375.131 198.08 374.686 197.92 374.127 197.92C373.654 197.92 373.239 198.048 372.881 198.304C372.523 198.555 372.244 198.918 372.044 199.391C371.848 199.864 371.75 200.43 371.75 201.091C371.75 201.76 371.848 202.335 372.044 202.817C372.24 203.294 372.515 203.663 372.868 203.923C373.226 204.178 373.646 204.306 374.127 204.306C374.468 204.306 374.773 204.242 375.042 204.114C375.314 203.982 375.542 203.793 375.725 203.545C375.909 203.298 376.034 202.998 376.103 202.644H378.314C378.259 203.339 378.054 203.955 377.701 204.491C377.347 205.024 376.865 205.442 376.256 205.744C375.647 206.043 374.931 206.192 374.108 206.192ZM387.974 198.777L385.865 199.007C385.805 198.794 385.701 198.594 385.552 198.406C385.407 198.219 385.211 198.067 384.964 197.952C384.716 197.837 384.414 197.78 384.056 197.78C383.574 197.78 383.17 197.884 382.841 198.093C382.518 198.302 382.358 198.572 382.362 198.905C382.358 199.19 382.462 199.423 382.675 199.602C382.893 199.781 383.251 199.928 383.749 200.043L385.424 200.401C386.353 200.601 387.043 200.918 387.495 201.353C387.951 201.788 388.181 202.357 388.185 203.06C388.181 203.678 388 204.223 387.642 204.696C387.288 205.165 386.796 205.531 386.165 205.795C385.535 206.06 384.81 206.192 383.992 206.192C382.79 206.192 381.823 205.94 381.09 205.438C380.357 204.93 379.92 204.225 379.78 203.322L382.036 203.104C382.138 203.548 382.356 203.882 382.688 204.108C383.02 204.334 383.453 204.447 383.986 204.447C384.535 204.447 384.976 204.334 385.309 204.108C385.645 203.882 385.814 203.603 385.814 203.271C385.814 202.989 385.705 202.757 385.488 202.574C385.275 202.391 384.942 202.25 384.491 202.152L382.816 201.8C381.874 201.604 381.177 201.274 380.726 200.81C380.274 200.341 380.05 199.749 380.055 199.033C380.05 198.428 380.214 197.903 380.547 197.46C380.883 197.013 381.35 196.668 381.947 196.425C382.547 196.178 383.24 196.054 384.024 196.054C385.175 196.054 386.08 196.299 386.741 196.789C387.405 197.279 387.817 197.942 387.974 198.777Z" fill="#7D7D7E"/>
<rect x="284" y="318" width="152" height="115" rx="12" fill="white"/>
<path d="M311.972 382H309.441L314.05 368.909H316.977L321.592 382H319.061L315.565 371.594H315.462L311.972 382ZM312.055 376.867H318.959V378.772H312.055V376.867ZM328.558 368.295L324.339 383.969H322.313L326.532 368.295H328.558ZM330.137 382V368.909H335.148C336.094 368.909 336.881 369.058 337.507 369.357C338.138 369.651 338.608 370.053 338.92 370.565C339.235 371.076 339.393 371.656 339.393 372.303C339.393 372.836 339.29 373.292 339.086 373.671C338.881 374.046 338.606 374.351 338.261 374.585C337.916 374.82 337.53 374.988 337.104 375.09V375.218C337.569 375.244 338.014 375.386 338.44 375.646C338.871 375.902 339.222 376.264 339.495 376.733C339.768 377.202 339.904 377.768 339.904 378.433C339.904 379.111 339.74 379.72 339.412 380.261C339.084 380.798 338.589 381.222 337.929 381.533C337.268 381.844 336.437 382 335.436 382H330.137ZM332.508 380.018H335.059C335.92 380.018 336.54 379.854 336.919 379.526C337.302 379.194 337.494 378.768 337.494 378.248C337.494 377.86 337.398 377.511 337.206 377.2C337.015 376.884 336.742 376.637 336.388 376.458C336.035 376.275 335.613 376.183 335.123 376.183H332.508V380.018ZM332.508 374.477H334.854C335.263 374.477 335.632 374.402 335.96 374.253C336.288 374.099 336.546 373.884 336.733 373.607C336.925 373.326 337.021 372.994 337.021 372.61C337.021 372.103 336.842 371.685 336.484 371.357C336.131 371.029 335.604 370.865 334.905 370.865H332.508V374.477ZM345.857 370.897V368.909H356.301V370.897H352.255V382H349.903V370.897H345.857ZM361.135 382.192C360.151 382.192 359.301 381.987 358.585 381.578C357.873 381.165 357.325 380.581 356.942 379.827C356.558 379.068 356.367 378.175 356.367 377.148C356.367 376.138 356.558 375.252 356.942 374.489C357.33 373.722 357.871 373.126 358.566 372.7C359.26 372.269 360.076 372.054 361.014 372.054C361.619 372.054 362.19 372.152 362.727 372.348C363.268 372.54 363.745 372.838 364.159 373.243C364.576 373.648 364.904 374.163 365.143 374.79C365.382 375.412 365.501 376.153 365.501 377.014V377.724H357.453V376.164H363.283C363.279 375.721 363.183 375.327 362.995 374.982C362.808 374.632 362.546 374.357 362.209 374.157C361.877 373.957 361.489 373.857 361.046 373.857C360.573 373.857 360.157 373.972 359.799 374.202C359.441 374.428 359.162 374.726 358.962 375.097C358.766 375.463 358.666 375.866 358.661 376.305V377.666C358.661 378.237 358.766 378.727 358.975 379.136C359.183 379.541 359.475 379.852 359.85 380.07C360.225 380.283 360.664 380.389 361.167 380.389C361.504 380.389 361.808 380.342 362.081 380.249C362.354 380.151 362.59 380.008 362.791 379.82C362.991 379.633 363.142 379.401 363.244 379.124L365.405 379.366C365.269 379.937 365.009 380.436 364.625 380.862C364.246 381.284 363.76 381.612 363.168 381.847C362.575 382.077 361.898 382.192 361.135 382.192ZM375.218 374.777L373.109 375.007C373.049 374.794 372.945 374.594 372.796 374.406C372.651 374.219 372.455 374.067 372.208 373.952C371.961 373.837 371.658 373.78 371.3 373.78C370.819 373.78 370.414 373.884 370.086 374.093C369.762 374.302 369.602 374.572 369.606 374.905C369.602 375.19 369.706 375.423 369.919 375.602C370.137 375.781 370.495 375.928 370.993 376.043L372.668 376.401C373.597 376.601 374.287 376.918 374.739 377.353C375.195 377.788 375.425 378.357 375.429 379.06C375.425 379.678 375.244 380.223 374.886 380.696C374.532 381.165 374.04 381.531 373.409 381.795C372.779 382.06 372.054 382.192 371.236 382.192C370.034 382.192 369.067 381.94 368.334 381.438C367.601 380.93 367.164 380.225 367.024 379.322L369.28 379.104C369.382 379.548 369.6 379.882 369.932 380.108C370.265 380.334 370.697 380.447 371.23 380.447C371.779 380.447 372.221 380.334 372.553 380.108C372.89 379.882 373.058 379.603 373.058 379.271C373.058 378.989 372.949 378.757 372.732 378.574C372.519 378.391 372.186 378.25 371.735 378.152L370.06 377.8C369.118 377.604 368.422 377.274 367.97 376.81C367.518 376.341 367.294 375.749 367.299 375.033C367.294 374.428 367.458 373.903 367.791 373.46C368.127 373.013 368.594 372.668 369.191 372.425C369.792 372.178 370.484 372.054 371.268 372.054C372.419 372.054 373.324 372.299 373.985 372.789C374.65 373.279 375.061 373.942 375.218 374.777ZM382.24 372.182V373.972H376.596V372.182H382.24ZM377.989 369.83H380.303V379.047C380.303 379.358 380.35 379.597 380.444 379.763C380.542 379.925 380.67 380.036 380.827 380.095C380.985 380.155 381.16 380.185 381.352 380.185C381.496 380.185 381.629 380.174 381.748 380.153C381.871 380.131 381.965 380.112 382.029 380.095L382.419 381.904C382.295 381.947 382.119 381.994 381.888 382.045C381.663 382.096 381.386 382.126 381.058 382.134C380.478 382.151 379.956 382.064 379.491 381.872C379.027 381.676 378.658 381.374 378.386 380.964C378.117 380.555 377.985 380.044 377.989 379.43V369.83ZM384.175 382V372.182H386.489V382H384.175ZM385.339 370.788C384.972 370.788 384.657 370.667 384.393 370.424C384.128 370.177 383.996 369.881 383.996 369.536C383.996 369.186 384.128 368.89 384.393 368.647C384.657 368.4 384.972 368.276 385.339 368.276C385.709 368.276 386.025 368.4 386.285 368.647C386.549 368.89 386.681 369.186 386.681 369.536C386.681 369.881 386.549 370.177 386.285 370.424C386.025 370.667 385.709 370.788 385.339 370.788ZM391.183 376.247V382H388.869V372.182H391.08V373.85H391.195C391.421 373.3 391.781 372.864 392.276 372.54C392.774 372.216 393.39 372.054 394.123 372.054C394.8 372.054 395.391 372.199 395.893 372.489C396.401 372.778 396.793 373.198 397.07 373.748C397.351 374.298 397.489 374.964 397.485 375.749V382H395.171V376.107C395.171 375.45 395.001 374.937 394.66 374.566C394.323 374.195 393.857 374.01 393.26 374.01C392.855 374.01 392.495 374.099 392.18 374.278C391.869 374.453 391.624 374.707 391.445 375.039C391.27 375.371 391.183 375.774 391.183 376.247ZM404.107 385.886C403.276 385.886 402.563 385.773 401.966 385.548C401.369 385.326 400.89 385.028 400.528 384.653C400.165 384.278 399.914 383.862 399.773 383.406L401.857 382.901C401.951 383.093 402.087 383.283 402.266 383.47C402.445 383.662 402.686 383.82 402.989 383.943C403.295 384.071 403.681 384.135 404.146 384.135C404.802 384.135 405.345 383.975 405.776 383.656C406.206 383.34 406.421 382.82 406.421 382.096V380.236H406.306C406.187 380.474 406.012 380.719 405.782 380.971C405.556 381.222 405.256 381.433 404.881 381.604C404.51 381.774 404.043 381.859 403.481 381.859C402.727 381.859 402.043 381.683 401.429 381.329C400.82 380.971 400.334 380.438 399.972 379.731C399.614 379.019 399.435 378.129 399.435 377.059C399.435 375.981 399.614 375.071 399.972 374.33C400.334 373.584 400.822 373.019 401.435 372.636C402.049 372.248 402.733 372.054 403.487 372.054C404.063 372.054 404.536 372.152 404.906 372.348C405.281 372.54 405.58 372.772 405.801 373.045C406.023 373.313 406.191 373.567 406.306 373.805H406.434V372.182H408.716V382.16C408.716 382.999 408.516 383.694 408.115 384.244C407.714 384.793 407.167 385.205 406.472 385.477C405.778 385.75 404.989 385.886 404.107 385.886ZM404.126 380.044C404.616 380.044 405.034 379.925 405.379 379.686C405.724 379.447 405.987 379.104 406.165 378.657C406.344 378.21 406.434 377.673 406.434 377.046C406.434 376.428 406.344 375.887 406.165 375.423C405.991 374.958 405.731 374.598 405.386 374.342C405.045 374.082 404.625 373.952 404.126 373.952C403.611 373.952 403.18 374.087 402.835 374.355C402.49 374.624 402.23 374.992 402.055 375.461C401.881 375.925 401.793 376.454 401.793 377.046C401.793 377.647 401.881 378.173 402.055 378.625C402.234 379.072 402.496 379.422 402.842 379.673C403.191 379.92 403.619 380.044 404.126 380.044Z" fill="#7D7D7E"/>
<defs>
<linearGradient id="paint0_linear_1923_722" x1="-606" y1="-711" x2="853.5" y2="963" gradientUnits="userSpaceOnUse">
<stop stop-color="#515BDA"/>
<stop offset="1" stop-color="#EAD3FF"/>
</linearGradient>
</defs>
</svg>
