<svg width="62" height="62" viewBox="0 0 62 62" fill="none" xmlns="http://www.w3.org/2000/svg">
<rect width="62" height="62" rx="8" fill="#9F7BEA"/>
<path d="M29.5751 51.4766V34.9156C28.8786 34.5901 28.3114 34.1044 27.8733 33.4584C27.4353 32.8125 27.2163 32.0797 27.2163 31.2599C27.2163 30.148 27.6122 29.1961 28.404 28.4043C29.1959 27.6125 30.1477 27.2165 31.2596 27.2165C32.3716 27.2165 33.3234 27.6125 34.1152 28.4043C34.9071 29.1961 35.303 30.148 35.303 31.2599C35.303 32.0797 35.084 32.8154 34.6459 33.467C34.2079 34.1184 33.6407 34.6012 32.9442 34.9156V51.4766H29.5751ZM17.3101 45.917C15.3896 44.0638 13.8649 41.8821 12.7361 39.3718C11.6074 36.8616 11.043 34.1576 11.043 31.2599C11.043 28.4632 11.5737 25.8351 12.635 23.3754C13.6964 20.9157 15.1368 18.7761 16.9563 16.9566C18.7758 15.1371 20.9154 13.6967 23.3751 12.6353C25.8348 11.5739 28.463 11.0432 31.2596 11.0432C34.0563 11.0432 36.6844 11.5739 39.1441 12.6353C41.6038 13.6967 43.7434 15.1371 45.5629 16.9566C47.3824 18.7761 48.8229 20.9157 49.8842 23.3754C50.9456 25.8351 51.4763 28.4632 51.4763 31.2599C51.4763 34.1576 50.9119 36.8645 49.7832 39.3804C48.6544 41.896 47.1297 44.0749 45.2091 45.917L42.817 43.5248C44.4566 41.9749 45.7481 40.1525 46.6915 38.0577C47.635 35.963 48.1067 33.697 48.1067 31.2599C48.1067 26.5652 46.4725 22.5837 43.2042 19.3154C39.9358 16.047 35.9543 14.4128 31.2596 14.4128C26.565 14.4128 22.5835 16.047 19.3151 19.3154C16.0468 22.5837 14.4126 26.5652 14.4126 31.2599C14.4126 33.697 14.8843 35.9601 15.8277 38.0491C16.7712 40.1382 18.0684 41.9577 19.7195 43.5076L17.3101 45.917ZM23.0213 40.2058C21.842 39.0938 20.8986 37.7713 20.191 36.2382C19.4834 34.7051 19.1296 33.0457 19.1296 31.2599C19.1296 27.8904 20.3089 25.0264 22.6676 22.6678C25.0262 20.3092 27.8902 19.1299 31.2596 19.1299C34.6291 19.1299 37.4931 20.3092 39.8517 22.6678C42.2103 25.0264 43.3896 27.8904 43.3896 31.2599C43.3896 33.0457 43.0358 34.708 42.3283 36.2468C41.6207 37.7853 40.6772 39.105 39.4979 40.2058L37.0886 37.7964C37.9984 36.9766 38.7144 36.0108 39.2366 34.8989C39.7589 33.787 40.02 32.574 40.02 31.2599C40.02 28.8339 39.1665 26.7672 37.4596 25.0599C35.7523 23.353 33.6856 22.4995 31.2596 22.4995C28.8336 22.4995 26.767 23.353 25.0597 25.0599C23.3527 26.7672 22.4993 28.8339 22.4993 31.2599C22.4993 32.5851 22.7604 33.8009 23.2826 34.9075C23.8049 36.0137 24.5209 36.9766 25.4307 37.7964L23.0213 40.2058Z" fill="white"/>
</svg>
