<svg width="46" height="46" viewBox="0 0 46 46" fill="none" xmlns="http://www.w3.org/2000/svg">
<rect width="46" height="46" rx="8" fill="#03D6BA"/>
<g clip-path="url(#clip0_2146_879)">
<path d="M30.5 17H15.5C13.85 17 12.5 18.35 12.5 20V35C12.5 36.65 13.85 38 15.5 38H30.5C32.15 38 33.5 36.65 33.5 35V20C33.5 18.35 32.15 17 30.5 17ZM24.5 35.75H21.5V33.5H24.5V35.75ZM24.5 32H21.5C21.5 29.75 17.75 27.5 17.75 24.5C17.75 21.605 20.105 19.25 23 19.25C25.895 19.25 28.25 21.605 28.25 24.5C28.25 27.5 24.5 29.75 24.5 32ZM32 14.75H14C14 13.505 15.005 12.5 16.25 12.5H29.75C30.995 12.5 32 13.505 32 14.75ZM30.5 10.25H15.5C15.5 9.005 16.505 8 17.75 8H28.25C29.495 8 30.5 9.005 30.5 10.25Z" fill="white"/>
</g>
<defs>
<clipPath id="clip0_2146_879">
<rect width="36" height="36" fill="white" transform="translate(5 5)"/>
</clipPath>
</defs>
</svg>
