<svg width="47" height="46" viewBox="0 0 47 46" fill="none" xmlns="http://www.w3.org/2000/svg">
<rect x="0.5" width="46" height="46" rx="8" fill="#63DCA4"/>
<path d="M11.8333 38C10.9167 38 10.1319 37.6736 9.47917 37.0208C8.82639 36.3681 8.5 35.5833 8.5 34.6667V11.3333C8.5 10.4167 8.82639 9.63194 9.47917 8.97917C10.1319 8.32639 10.9167 8 11.8333 8H35.1667C36.0833 8 36.8681 8.32639 37.5208 8.97917C38.1736 9.63194 38.5 10.4167 38.5 11.3333V34.6667C38.5 35.5833 38.1736 36.3681 37.5208 37.0208C36.8681 37.6736 36.0833 38 35.1667 38H11.8333ZM11.8333 34.6667H35.1667V29.6667H30.1667C29.3333 30.7222 28.3403 31.5417 27.1875 32.125C26.0347 32.7083 24.8056 33 23.5 33C22.1944 33 20.9653 32.7083 19.8125 32.125C18.6597 31.5417 17.6667 30.7222 16.8333 29.6667H11.8333V34.6667ZM23.5 29.6667C24.5556 29.6667 25.5139 29.3611 26.375 28.75C27.2361 28.1389 27.8333 27.3333 28.1667 26.3333H35.1667V11.3333H11.8333V26.3333H18.8333C19.1667 27.3333 19.7639 28.1389 20.625 28.75C21.4861 29.3611 22.4444 29.6667 23.5 29.6667ZM15.1667 23.4167H31.8333V20.0833H15.1667V23.4167ZM15.1667 17.5833H31.8333V14.25H15.1667V17.5833Z" fill="white"/>
</svg>
