<svg width="62" height="62" viewBox="0 0 62 62" fill="none" xmlns="http://www.w3.org/2000/svg">
<rect width="62" height="62" rx="8" fill="#9EEA7B"/>
<path d="M45 25C43.1 25 41.45 24.4333 40.05 23.3C38.65 22.1667 37.7167 20.7333 37.25 19H24.7C24.3333 20.4 23.6417 21.6083 22.625 22.625C21.6083 23.6417 20.4 24.3333 19 24.7V37.25C20.7333 37.7167 22.1667 38.65 23.3 40.05C24.4333 41.45 25 43.1 25 45C25 47.2 24.2167 49.0833 22.65 50.65C21.0833 52.2167 19.2 53 17 53C14.8 53 12.9167 52.2167 11.35 50.65C9.78333 49.0833 9 47.2 9 45C9 43.1 9.56667 41.45 10.7 40.05C11.8333 38.65 13.2667 37.7167 15 37.25V24.7C13.2667 24.2333 11.8333 23.3 10.7 21.9C9.56667 20.5 9 18.8667 9 17C9 14.8 9.78333 12.9167 11.35 11.35C12.9167 9.78333 14.8 9 17 9C18.8667 9 20.5 9.56667 21.9 10.7C23.3 11.8333 24.2333 13.2667 24.7 15H37.25C37.7167 13.2667 38.65 11.8333 40.05 10.7C41.45 9.56667 43.1 9 45 9C47.2 9 49.0833 9.78333 50.65 11.35C52.2167 12.9167 53 14.8 53 17C53 19.2 52.2167 21.0833 50.65 22.65C49.0833 24.2167 47.2 25 45 25ZM17 49C18.1 49 19.0417 48.6 19.825 47.8C20.6083 47 21 46.0667 21 45C21 43.9 20.6083 42.9583 19.825 42.175C19.0417 41.3917 18.1 41 17 41C15.9333 41 15 41.3917 14.2 42.175C13.4 42.9583 13 43.9 13 45C13 46.0667 13.4 47 14.2 47.8C15 48.6 15.9333 49 17 49ZM17 21C18.1 21 19.0417 20.6083 19.825 19.825C20.6083 19.0417 21 18.1 21 17C21 15.9 20.6083 14.9583 19.825 14.175C19.0417 13.3917 18.1 13 17 13C15.9333 13 15 13.3917 14.2 14.175C13.4 14.9583 13 15.9 13 17C13 18.1 13.4 19.0417 14.2 19.825C15 20.6083 15.9333 21 17 21ZM45 53C42.8 53 40.9167 52.2167 39.35 50.65C37.7833 49.0833 37 47.2 37 45C37 42.8 37.7833 40.9167 39.35 39.35C40.9167 37.7833 42.8 37 45 37C47.2 37 49.0833 37.7833 50.65 39.35C52.2167 40.9167 53 42.8 53 45C53 47.2 52.2167 49.0833 50.65 50.65C49.0833 52.2167 47.2 53 45 53ZM45 49C46.1 49 47.0417 48.6 47.825 47.8C48.6083 47 49 46.0667 49 45C49 43.9 48.6083 42.9583 47.825 42.175C47.0417 41.3917 46.1 41 45 41C43.9 41 42.9583 41.3917 42.175 42.175C41.3917 42.9583 41 43.9 41 45C41 46.0667 41.3917 47 42.175 47.8C42.9583 48.6 43.9 49 45 49ZM45 21C46.1 21 47.0417 20.6083 47.825 19.825C48.6083 19.0417 49 18.1 49 17C49 15.9 48.6083 14.9583 47.825 14.175C47.0417 13.3917 46.1 13 45 13C43.9 13 42.9583 13.3917 42.175 14.175C41.3917 14.9583 41 15.9 41 17C41 18.1 41.3917 19.0417 42.175 19.825C42.9583 20.6083 43.9 21 45 21Z" fill="white"/>
</svg>
