<svg width="62" height="62" viewBox="0 0 62 62" fill="none" xmlns="http://www.w3.org/2000/svg">
<rect width="62" height="62" rx="8" fill="#515BDA"/>
<path d="M37.9 37.1L40.1 35L35.9 30.8C36.2667 30.2333 36.5417 29.6333 36.725 29C36.9083 28.3667 37 27.7 37 27C37 25.0333 36.3083 23.375 34.925 22.025C33.5417 20.675 31.9 20 30 20C28.1 20 26.4583 20.675 25.075 22.025C23.6917 23.375 23 25.0333 23 27C23 28.9667 23.6917 30.625 25.075 31.975C26.4583 33.325 28.1 34 30 34C30.7 34 31.3583 33.9083 31.975 33.725C32.5917 33.5417 33.2 33.2667 33.8 32.9L37.9 37.1ZM30 31C28.9 31 27.9583 30.6083 27.175 29.825C26.3917 29.0417 26 28.1 26 27C26 25.9 26.3917 24.9583 27.175 24.175C27.9583 23.3917 28.9 23 30 23C31.0667 23 32 23.3917 32.8 24.175C33.6 24.9583 34 25.9 34 27C34 28.1 33.6083 29.0417 32.825 29.825C32.0417 30.6083 31.1 31 30 31ZM15 43C13.9 43 12.9583 42.6083 12.175 41.825C11.3917 41.0417 11 40.1 11 39V17C11 15.9 11.3917 14.9583 12.175 14.175C12.9583 13.3917 13.9 13 15 13H47C48.1 13 49.0417 13.3917 49.825 14.175C50.6083 14.9583 51 15.9 51 17V39C51 40.1 50.6083 41.0417 49.825 41.825C49.0417 42.6083 48.1 43 47 43H15ZM15 39H47V17H15V39ZM9 49V45H53V49H9Z" fill="white"/>
</svg>
