<svg width="46" height="46" viewBox="0 0 46 46" fill="none" xmlns="http://www.w3.org/2000/svg">
<rect width="46" height="46" rx="8" fill="#9F51DA"/>
<g clip-path="url(#clip0_2146_909)">
<path d="M28.25 21.5C29.4926 21.5 30.5 20.4926 30.5 19.25C30.5 18.0074 29.4926 17 28.25 17C27.0074 17 26 18.0074 26 19.25C26 20.4926 27.0074 21.5 28.25 21.5Z" fill="white"/>
<path d="M17.75 21.5C18.9926 21.5 20 20.4926 20 19.25C20 18.0074 18.9926 17 17.75 17C16.5074 17 15.5 18.0074 15.5 19.25C15.5 20.4926 16.5074 21.5 17.75 21.5Z" fill="white"/>
<path d="M23 29C20.78 29 18.875 27.785 17.825 26H15.32C16.52 29.075 19.505 31.25 23 31.25C26.495 31.25 29.48 29.075 30.68 26H28.175C27.14 27.785 25.22 29 23 29ZM22.985 8C14.705 8 8 14.72 8 23C8 31.28 14.705 38 22.985 38C31.28 38 38 31.28 38 23C38 14.72 31.28 8 22.985 8ZM23 35C16.37 35 11 29.63 11 23C11 16.37 16.37 11 23 11C29.63 11 35 16.37 35 23C35 29.63 29.63 35 23 35Z" fill="white"/>
</g>
<defs>
<clipPath id="clip0_2146_909">
<rect width="36" height="36" fill="white" transform="translate(5 5)"/>
</clipPath>
</defs>
</svg>
