<svg width="62" height="62" viewBox="0 0 62 62" fill="none" xmlns="http://www.w3.org/2000/svg">
<rect width="62" height="62" rx="8" fill="#FFC39E"/>
<path d="M19 51C17.9 51 16.9583 50.6083 16.175 49.825C15.3917 49.0417 15 48.1 15 47V23C15 21.9 15.3917 20.9583 16.175 20.175C16.9583 19.3917 17.9 19 19 19H23C23 16.8 23.7833 14.9167 25.35 13.35C26.9167 11.7833 28.8 11 31 11C33.2 11 35.0833 11.7833 36.65 13.35C38.2167 14.9167 39 16.8 39 19H43C44.1 19 45.0417 19.3917 45.825 20.175C46.6083 20.9583 47 21.9 47 23V47C47 48.1 46.6083 49.0417 45.825 49.825C45.0417 50.6083 44.1 51 43 51H19ZM19 47H43V23H39V27C39 27.5667 38.8083 28.0417 38.425 28.425C38.0417 28.8083 37.5667 29 37 29C36.4333 29 35.9583 28.8083 35.575 28.425C35.1917 28.0417 35 27.5667 35 27V23H27V27C27 27.5667 26.8083 28.0417 26.425 28.425C26.0417 28.8083 25.5667 29 25 29C24.4333 29 23.9583 28.8083 23.575 28.425C23.1917 28.0417 23 27.5667 23 27V23H19V47ZM27 19H35C35 17.9 34.6083 16.9583 33.825 16.175C33.0417 15.3917 32.1 15 31 15C29.9 15 28.9583 15.3917 28.175 16.175C27.3917 16.9583 27 17.9 27 19Z" fill="white"/>
</svg>
