<svg width="62" height="62" viewBox="0 0 62 62" fill="none" xmlns="http://www.w3.org/2000/svg">
<rect width="62" height="62" rx="8" fill="#9F7BEA"/>
<path d="M15 49C13.9 49 12.9583 48.6083 12.175 47.825C11.3917 47.0417 11 46.1 11 45V17C11 15.9 11.3917 14.9583 12.175 14.175C12.9583 13.3917 13.9 13 15 13H47C48.1 13 49.0417 13.3917 49.825 14.175C50.6083 14.9583 51 15.9 51 17V45C51 46.1 50.6083 47.0417 49.825 47.825C49.0417 48.6083 48.1 49 47 49H15ZM15 45H47V17H15V45ZM19 41H43V37H19V41ZM19 33H27V21H19V33ZM31 33H43V29H31V33ZM31 25H43V21H31V25Z" fill="white"/>
</svg>
