<svg width="47" height="46" viewBox="0 0 47 46" fill="none" xmlns="http://www.w3.org/2000/svg">
<rect x="0.5" width="46" height="46" rx="8" fill="#EE986D"/>
<path d="M32.5 36L30.4 33.7765L32.7625 31.2353H26.5V28.0588H32.7625L30.4 25.5176L32.5 23.2941L38.5 29.6471L32.5 36ZM11.5 31.2353C10.675 31.2353 9.96875 30.9243 9.38125 30.3022C8.79375 29.6801 8.5 28.9324 8.5 28.0588V12.1765C8.5 11.3029 8.79375 10.5551 9.38125 9.93309C9.96875 9.31103 10.675 9 11.5 9H31C31.825 9 32.5312 9.31103 33.1188 9.93309C33.7063 10.5551 34 11.3029 34 12.1765V20.2765C33.75 20.2235 33.5 20.1838 33.25 20.1574C33 20.1309 32.75 20.1176 32.5 20.1176C32.25 20.1176 32 20.1243 31.75 20.1375C31.5 20.1507 31.25 20.1838 31 20.2368V14.4L21.1 21.7059L11.5 14.4397V28.0588H23.6125C23.5625 28.3235 23.5313 28.5882 23.5188 28.8529C23.5063 29.1176 23.5 29.3824 23.5 29.6471C23.5 29.9118 23.5125 30.1765 23.5375 30.4412C23.5625 30.7059 23.6 30.9706 23.65 31.2353H11.5ZM13.675 12.1765L21.1 17.8147L28.75 12.1765H13.675Z" fill="white"/>
</svg>
