<svg width="46" height="46" viewBox="0 0 46 46" fill="none" xmlns="http://www.w3.org/2000/svg">
<rect width="46" height="46" rx="8" fill="#03D6BA"/>
<g clip-path="url(#clip0_1226_820)">
<path d="M19.5864 24.5C20.3654 24.5 21.0028 25.175 21.0028 26C21.0028 26.825 20.3654 27.5 19.5864 27.5C18.8074 27.5 18.17 26.825 18.17 26C18.17 25.175 18.8074 24.5 19.5864 24.5ZM19.5864 21.5C17.2351 21.5 15.3371 23.51 15.3371 26C15.3371 28.49 17.2351 30.5 19.5864 30.5C21.9377 30.5 23.8357 28.49 23.8357 26C23.8357 23.51 21.9377 21.5 19.5864 21.5ZM31.6261 18.5L33.17 14.885L36.5836 13.25L33.17 11.615L31.6261 8L30.0822 11.615L26.6686 13.25L30.0822 14.885L31.6261 18.5ZM35.5637 24.08L34.4589 21.5L33.3541 24.08L30.9178 25.25L33.3541 26.42L34.4589 29L35.5637 26.42L38 25.25L35.5637 24.08ZM28.4391 26C28.4391 25.82 28.4391 25.625 28.4249 25.445L31.1728 23.24L27.6317 16.745L24.4589 18.155C24.1756 17.96 23.864 17.765 23.5524 17.6L23.1275 14H16.0453L15.6204 17.615C15.3088 17.78 15.0113 17.975 14.7139 18.17L11.5411 16.745L8 23.24L10.7479 25.445C10.7337 25.625 10.7337 25.82 10.7337 26C10.7337 26.18 10.7337 26.375 10.7479 26.555L8 28.76L11.5411 35.255L14.7139 33.845C14.9972 34.04 15.3088 34.235 15.6204 34.4L16.0453 38H23.1275L23.5524 34.385C23.864 34.22 24.1615 34.04 24.4589 33.83L27.6317 35.24L31.1728 28.745L28.4249 26.54C28.4391 26.375 28.4391 26.18 28.4391 26ZM26.4278 31.46L23.9773 30.365C23.1841 31.265 22.136 31.925 20.9603 32.21L20.6204 35H18.5524L18.2266 32.21C17.051 31.925 16.0028 31.265 15.2096 30.365L12.7592 31.46L11.7252 29.555L13.8357 27.86C13.6657 27.275 13.5807 26.66 13.5807 26.015C13.5807 25.37 13.6657 24.755 13.8357 24.17L11.7252 22.475L12.7592 20.57L15.2096 21.665C16.0028 20.765 17.051 20.105 18.2266 19.82L18.5524 17H20.6346L20.9603 19.79C22.136 20.075 23.1841 20.735 23.9773 21.635L26.4278 20.54L27.4618 22.445L25.3513 24.14C25.5212 24.725 25.6062 25.34 25.6062 25.985C25.6062 26.63 25.5212 27.245 25.3513 27.83L27.4618 29.525L26.4278 31.46Z" fill="white"/>
</g>
<defs>
<clipPath id="clip0_1226_820">
<rect width="36" height="36" fill="white" transform="translate(5 5)"/>
</clipPath>
</defs>
</svg>
