<svg width="1200" height="630" viewBox="0 0 1200 630" fill="none" xmlns="http://www.w3.org/2000/svg">
<rect width="1200" height="630" fill="#B8BDFF"/>
<g filter="url(#filter0_f_667_337)">
<ellipse cx="599.5" cy="314.5" rx="269.5" ry="256.5" fill="#BFC4FF"/>
</g>
<rect width="373" height="347" transform="translate(413 141)" fill="#BFC4FF"/>
<line x1="494.029" y1="237.5" x2="751.029" y2="237.5" stroke="black" stroke-width="7"/>
<circle cx="686.029" cy="216" r="4" fill="black"/>
<circle cx="702.029" cy="216" r="4" fill="black"/>
<circle cx="718.029" cy="216" r="4" fill="black"/>
<path fill-rule="evenodd" clip-rule="evenodd" d="M546.584 288.607C546.584 282.181 541.374 276.971 534.947 276.971H522.735C516.309 276.971 511.099 282.181 511.099 288.607V290.888C511.099 294.683 508.552 297.98 505.046 299.435C501.54 300.891 497.457 300.337 494.773 297.652L492.318 295.198C487.151 290.031 478.774 290.031 473.607 295.198L467.227 301.579C462.06 306.745 462.06 315.122 467.227 320.289L469.681 322.744C472.366 325.428 472.92 329.511 471.465 333.017C470.009 336.522 466.712 339.07 462.917 339.07H460.636C454.21 339.07 449 344.28 449 350.706V362.918C449 369.344 454.21 374.555 460.636 374.555H464.256C467.257 374.555 469.871 376.559 470.961 379.355C472.008 382.041 471.509 385.117 469.47 387.156L466.645 389.981C461.799 394.826 461.799 402.683 466.645 407.529L475.205 416.088C479.489 420.373 486.436 420.373 490.721 416.088L491.116 415.693C494.452 412.358 499.565 411.794 503.884 413.692C508.039 415.517 511.099 419.451 511.099 423.989V425.017C511.099 431.443 516.309 436.653 522.735 436.653H534.947C541.374 436.653 546.584 431.443 546.584 425.017V422.736C546.584 418.941 549.131 415.643 552.636 414.189C556.142 412.733 560.225 413.287 562.909 415.973L563.682 416.745C567.604 420.667 573.963 420.667 577.885 416.745L588.774 405.856C592.696 401.934 592.696 395.575 588.774 391.653L588.002 390.88C585.316 388.196 584.762 384.113 586.218 380.606C587.672 377.101 590.97 374.555 594.765 374.555H597.046C603.472 374.555 608.682 369.344 608.682 362.918V350.706C608.682 344.28 603.472 339.07 597.046 339.07H596.019C591.48 339.07 587.547 336.01 585.721 331.855C583.823 327.536 584.387 322.422 587.722 319.087L588.117 318.692C592.402 314.407 592.402 307.46 588.117 303.176L579.557 294.616C574.712 289.77 566.855 289.77 562.01 294.616L559.185 297.441C557.146 299.48 554.07 299.979 551.384 298.932C548.588 297.842 546.584 295.228 546.584 292.227V288.607Z" stroke="#09090B" stroke-width="8.87123" stroke-linejoin="round"/>
<circle cx="529.029" cy="357" r="44" fill="#BFC4FF" stroke="black" stroke-width="6"/>
<path d="M508.508 351.348C508.406 350.317 507.967 349.516 507.191 348.945C506.416 348.374 505.363 348.088 504.034 348.088C503.13 348.088 502.367 348.216 501.745 348.472C501.123 348.719 500.646 349.064 500.313 349.507C499.99 349.95 499.828 350.453 499.828 351.016C499.811 351.484 499.909 351.893 500.122 352.243C500.343 352.592 500.646 352.895 501.029 353.151C501.413 353.398 501.856 353.615 502.359 353.803C502.862 353.982 503.399 354.135 503.97 354.263L506.322 354.825C507.464 355.081 508.512 355.422 509.467 355.848C510.421 356.274 511.248 356.798 511.947 357.42C512.646 358.043 513.187 358.776 513.57 359.619C513.963 360.463 514.163 361.43 514.171 362.521C514.163 364.124 513.754 365.513 512.944 366.689C512.143 367.857 510.984 368.764 509.467 369.412C507.958 370.051 506.139 370.371 504.008 370.371C501.894 370.371 500.053 370.047 498.485 369.399C496.926 368.751 495.707 367.793 494.829 366.523C493.96 365.244 493.504 363.663 493.461 361.78H498.818C498.877 362.658 499.129 363.391 499.572 363.979C500.024 364.558 500.624 364.997 501.374 365.295C502.133 365.585 502.99 365.73 503.944 365.73C504.882 365.73 505.695 365.594 506.386 365.321C507.085 365.048 507.626 364.669 508.009 364.183C508.393 363.697 508.585 363.139 508.585 362.509C508.585 361.92 508.41 361.426 508.061 361.026C507.72 360.625 507.217 360.284 506.552 360.003C505.896 359.722 505.09 359.466 504.136 359.236L501.285 358.52C499.078 357.983 497.335 357.143 496.056 356.001C494.778 354.859 494.143 353.321 494.151 351.386C494.143 349.801 494.565 348.416 495.417 347.232C496.278 346.047 497.458 345.122 498.958 344.457C500.458 343.793 502.163 343.46 504.072 343.46C506.015 343.46 507.711 343.793 509.16 344.457C510.617 345.122 511.751 346.047 512.561 347.232C513.37 348.416 513.788 349.788 513.813 351.348H508.508ZM517.895 370V343.818H535.537V348.382H523.43V354.621H534.629V359.185H523.43V365.436H535.588V370H517.895ZM563.997 356.909C563.997 359.764 563.456 362.193 562.374 364.196C561.3 366.199 559.834 367.729 557.976 368.786C556.127 369.834 554.047 370.358 551.737 370.358C549.411 370.358 547.323 369.83 545.473 368.773C543.624 367.716 542.162 366.186 541.088 364.183C540.014 362.18 539.477 359.756 539.477 356.909C539.477 354.054 540.014 351.625 541.088 349.622C542.162 347.619 543.624 346.094 545.473 345.045C547.323 343.989 549.411 343.46 551.737 343.46C554.047 343.46 556.127 343.989 557.976 345.045C559.834 346.094 561.3 347.619 562.374 349.622C563.456 351.625 563.997 354.054 563.997 356.909ZM558.385 356.909C558.385 355.06 558.108 353.5 557.554 352.23C557.009 350.96 556.237 349.997 555.24 349.341C554.243 348.685 553.075 348.357 551.737 348.357C550.399 348.357 549.232 348.685 548.235 349.341C547.237 349.997 546.462 350.96 545.908 352.23C545.362 353.5 545.09 355.06 545.09 356.909C545.09 358.759 545.362 360.318 545.908 361.588C546.462 362.858 547.237 363.821 548.235 364.477C549.232 365.134 550.399 365.462 551.737 365.462C553.075 365.462 554.243 365.134 555.24 364.477C556.237 363.821 557.009 362.858 557.554 361.588C558.108 360.318 558.385 358.759 558.385 356.909Z" fill="black"/>
<path d="M492 295V195C492 193.895 492.895 193 494 193H748.5C749.605 193 750.5 193.895 750.5 195V414C750.5 415.105 749.605 416 748.5 416H582.5" stroke="black" stroke-width="8" stroke-linecap="round"/>
<defs>
<filter id="filter0_f_667_337" x="290" y="18" width="619" height="593" filterUnits="userSpaceOnUse" color-interpolation-filters="sRGB">
<feFlood flood-opacity="0" result="BackgroundImageFix"/>
<feBlend mode="normal" in="SourceGraphic" in2="BackgroundImageFix" result="shape"/>
<feGaussianBlur stdDeviation="20" result="effect1_foregroundBlur_667_337"/>
</filter>
</defs>
</svg>
