<svg width="47" height="46" viewBox="0 0 47 46" fill="none" xmlns="http://www.w3.org/2000/svg">
<rect x="0.5" width="46" height="46" rx="8" fill="#956DEE"/>
<path d="M13.8421 21.5L22.2368 8L30.6316 21.5H13.8421ZM30.6316 38C28.7237 38 27.102 37.3438 25.7664 36.0312C24.4309 34.7188 23.7632 33.125 23.7632 31.25C23.7632 29.375 24.4309 27.7812 25.7664 26.4688C27.102 25.1562 28.7237 24.5 30.6316 24.5C32.5395 24.5 34.1612 25.1562 35.4967 26.4688C36.8322 27.7812 37.5 29.375 37.5 31.25C37.5 33.125 36.8322 34.7188 35.4967 36.0312C34.1612 37.3438 32.5395 38 30.6316 38ZM8.5 37.25V25.25H20.7105V37.25H8.5ZM30.6316 35C31.7 35 32.6031 34.6375 33.3408 33.9125C34.0785 33.1875 34.4474 32.3 34.4474 31.25C34.4474 30.2 34.0785 29.3125 33.3408 28.5875C32.6031 27.8625 31.7 27.5 30.6316 27.5C29.5632 27.5 28.6601 27.8625 27.9224 28.5875C27.1847 29.3125 26.8158 30.2 26.8158 31.25C26.8158 32.3 27.1847 33.1875 27.9224 33.9125C28.6601 34.6375 29.5632 35 30.6316 35ZM11.5526 34.25H17.6579V28.25H11.5526V34.25ZM19.2605 18.5H25.2132L22.2368 13.775L19.2605 18.5Z" fill="white"/>
</svg>
