<svg width="46" height="46" viewBox="0 0 46 46" fill="none" xmlns="http://www.w3.org/2000/svg">
<rect width="46" height="46" rx="8" fill="#9F51DA"/>
<g clip-path="url(#clip0_1226_831)">
<path d="M33.7455 31.5286C34.3455 30.5286 34.7 29.3714 34.7 28.1143C34.7 24.5571 31.9591 21.6857 28.5636 21.6857C25.1682 21.6857 22.4273 24.5571 22.4273 28.1143C22.4273 31.6714 25.1682 34.5429 28.55 34.5429C29.75 34.5429 30.8682 34.1714 31.8091 33.5429L36.0636 38L38 35.9714L33.7455 31.5286ZM28.5636 31.6857C26.6818 31.6857 25.1545 30.0857 25.1545 28.1143C25.1545 26.1429 26.6818 24.5429 28.5636 24.5429C30.4455 24.5429 31.9727 26.1429 31.9727 28.1143C31.9727 30.0857 30.4455 31.6857 28.5636 31.6857ZM28.0727 19.5429C27.0636 19.5714 26.0955 19.8 25.2091 20.1857L24.4591 19L19.2773 27.8286L15.1727 22.8L10.2227 31.1L8 29.4286L14.8182 18L18.9091 23L24.3636 13.7143L28.0727 19.5429ZM31.6045 20.2571C30.7318 19.8571 29.7909 19.6143 28.8091 19.5571L35.7909 8L38 9.68571L31.6045 20.2571Z" fill="white"/>
</g>
<defs>
<clipPath id="clip0_1226_831">
<rect width="36" height="36" fill="white" transform="translate(5 5)"/>
</clipPath>
</defs>
</svg>
