<svg width="72" height="73" viewBox="0 0 72 73" fill="none" xmlns="http://www.w3.org/2000/svg">
<g clip-path="url(#clip0_1811_183)">
<path d="M1.53578 35.8468C1.53409 41.9435 3.12709 47.8964 6.15616 53.1434L1.24609 71.0709L19.5926 66.2604C24.667 69.0228 30.3525 70.4702 36.1301 70.4707H36.1453C55.2183 70.4707 70.7441 54.9505 70.7523 35.8741C70.7559 26.6303 67.1593 17.938 60.6247 11.3983C54.0913 4.85927 45.4021 1.25617 36.1439 1.25195C17.0687 1.25195 1.54394 16.7713 1.53606 35.8468" fill="url(#paint0_linear_1811_183)"/>
<path d="M0.300938 35.8358C0.298969 42.1518 1.94906 48.3176 5.08612 53.7525L0 72.3226L19.0043 67.3397C24.2407 70.1947 30.1362 71.6999 36.1353 71.7022H36.1507C55.908 71.7022 71.9916 55.6237 72 35.8644C72.0034 26.2884 68.2774 17.2837 61.5094 10.5098C54.7405 3.73669 45.7405 0.0039375 36.1507 0C16.3901 0 0.308813 16.0763 0.300938 35.8358ZM11.6187 52.8165L10.9091 51.6901C7.92619 46.9471 6.35175 41.4661 6.354 35.838C6.36019 19.4144 19.7263 6.0525 36.162 6.0525C44.1214 6.05588 51.6015 9.15863 57.2276 14.7881C62.8535 20.4182 65.9492 27.9023 65.9472 35.8622C65.9399 52.2858 52.5735 65.6494 36.1507 65.6494H36.1389C30.7915 65.6466 25.5471 64.2105 20.9734 61.4967L19.8849 60.8512L8.60738 63.808L11.6187 52.8165Z" fill="url(#paint1_linear_1811_183)"/>
<path d="M27.1915 20.8542C26.5204 19.3627 25.8142 19.3326 25.176 19.3065C24.6535 19.284 24.0561 19.2857 23.4593 19.2857C22.8619 19.2857 21.8913 19.5104 21.0709 20.4062C20.2497 21.3028 17.9355 23.4695 17.9355 27.8765C17.9355 32.2834 21.1455 36.5426 21.5929 37.1408C22.041 37.7379 27.7897 47.0709 36.8943 50.6614C44.4611 53.6451 46.0009 53.0517 47.6431 52.9021C49.2856 52.753 52.943 50.7359 53.6892 48.6442C54.4359 46.5529 54.4359 44.7602 54.212 44.3856C53.9881 44.0123 53.3908 43.7882 52.495 43.3404C51.5992 42.8927 47.1951 40.7254 46.3741 40.4264C45.5529 40.1277 44.9558 39.9786 44.3584 40.8756C43.761 41.7711 42.0457 43.7882 41.5229 44.3856C41.0006 44.9843 40.4777 45.0589 39.5822 44.6108C38.6859 44.1614 35.8011 43.2167 32.3786 40.1654C29.7157 37.7911 27.918 34.859 27.3954 33.9621C26.8728 33.0666 27.3394 32.5812 27.7886 32.1349C28.191 31.7335 28.6846 31.0889 29.133 30.5661C29.5796 30.0429 29.7286 29.6697 30.0273 29.0723C30.3263 28.4744 30.1767 27.9513 29.9531 27.5032C29.7286 27.0552 27.988 22.6252 27.1915 20.8542Z" fill="white"/>
</g>
<defs>
<linearGradient id="paint0_linear_1811_183" x1="3476.55" y1="6983.14" x2="3476.55" y2="1.25195" gradientUnits="userSpaceOnUse">
<stop stop-color="#1FAF38"/>
<stop offset="1" stop-color="#60D669"/>
</linearGradient>
<linearGradient id="paint1_linear_1811_183" x1="3600" y1="7232.26" x2="3600" y2="0" gradientUnits="userSpaceOnUse">
<stop stop-color="#F9F9F9"/>
<stop offset="1" stop-color="white"/>
</linearGradient>
<clipPath id="clip0_1811_183">
<rect width="72" height="72.5625" fill="white"/>
</clipPath>
</defs>
</svg>
