<svg width="62" height="62" viewBox="0 0 62 62" fill="none" xmlns="http://www.w3.org/2000/svg">
<rect width="62" height="62" rx="8" fill="#9EEA7B"/>
<path d="M16.4341 46.0853H35.9765V35.977H46.0848V16.4346H16.4341V46.0853ZM16.4341 49.4549C15.5075 49.4549 14.7141 49.1251 14.0541 48.4653C13.3943 47.8053 13.0645 47.0119 13.0645 46.0853V16.4346C13.0645 15.508 13.3943 14.7146 14.0541 14.0545C14.7141 13.3948 15.5075 13.0649 16.4341 13.0649H46.0848C47.0114 13.0649 47.8048 13.3948 48.4648 14.0545C49.1246 14.7146 49.4545 15.508 49.4545 16.4346V37.3249L37.3245 49.4549H16.4341ZM21.8248 34.6296V31.2599H30.9223V34.6296H21.8248ZM21.8248 26.5429V23.1733H40.6941V26.5429H21.8248Z" fill="white"/>
</svg>
