<svg width="72" height="44" viewBox="0 0 72 44" fill="none" xmlns="http://www.w3.org/2000/svg">
<g clip-path="url(#clip0_1811_191)">
<path d="M70.4099 6.79941C69.9969 5.4852 69.1913 4.28707 68.0733 3.32433C66.9554 2.3616 65.564 1.66785 64.0379 1.31217C58.4506 0 35.9635 0 35.9635 0C35.9635 0 13.4753 0.0397186 7.88799 1.35189C6.36179 1.70759 4.97043 2.40138 3.85246 3.36415C2.73449 4.32693 1.92893 5.52511 1.51599 6.83938C-0.17404 15.3881 -0.829633 28.4144 1.5624 36.6212C1.97538 37.9354 2.78096 39.1335 3.89892 40.0963C5.01689 41.059 6.40823 41.7527 7.9344 42.1084C13.5217 43.4206 36.0093 43.4206 36.0093 43.4206C36.0093 43.4206 58.4967 43.4206 64.0837 42.1084C65.6099 41.7528 67.0013 41.059 68.1193 40.0963C69.2374 39.1336 70.043 37.9354 70.456 36.6212C72.2385 28.0603 72.7878 15.042 70.4099 6.79941Z" fill="#FF0000"/>
<path d="M28.8066 31.0145L47.4614 21.7101L28.8066 12.4058V31.0145Z" fill="white"/>
</g>
<defs>
<clipPath id="clip0_1811_191">
<rect width="72" height="43.5938" fill="white"/>
</clipPath>
</defs>
</svg>
